<?xml version="1.0" encoding="utf-8"?>
<!-- Generator: Adobe Illustrator 16.0.0, SVG Export Plug-In . SVG Version: 6.00 Build 0)  -->
<!DOCTYPE svg PUBLIC "-//W3C//DTD SVG 1.1//EN" "http://www.w3.org/Graphics/SVG/1.1/DTD/svg11.dtd">
<svg version="1.1" id="图层_1" xmlns="http://www.w3.org/2000/svg" xmlns:xlink="http://www.w3.org/1999/xlink" x="0px" y="0px"
	 width="631.34px" height="266.527px" viewBox="0 0 631.34 266.527" enable-background="new 0 0 631.34 266.527"
	 xml:space="preserve">
<g>
	<g>
		<path fill="#C7BF93" d="M243.497,221.154h-21.473c-0.671,0-1.213,0.541-1.213,1.209v21.478c0,12.528,10.156,22.688,22.686,22.688
			c12.53,0,22.688-10.156,22.688-22.688C266.186,231.309,256.029,221.154,243.497,221.154z"/>
		<path fill="#FFFFFF" d="M243.502,227.582c-3.655,0-6.771,2.688-7.336,6.271c-0.535-0.17-1.138-0.254-1.739-0.254
			c-1.617,0-3.099,0.637-4.167,1.711c-1.059,1.063-1.725,2.556-1.725,4.182c0,1.543,0.604,2.961,1.59,4.003l-1.406,1.419
			c-0.604,0.607-1.092,1.313-1.407,2.064l0,0c-0.322,0.778-0.473,1.605-0.473,2.48v1.75c0,0.459,0.139,0.938,0.407,1.317
			c0.301,0.415,0.712,0.698,1.263,0.782c0.041,0,0.092,0,0.124,0h1.351v0.469c0,0.604,0.493,1.088,1.09,1.088h0.025h24.796h0.032
			c0.589,0,1.074-0.484,1.074-1.088v-0.469h1.352c0.037,0,0.087,0,0.135,0c0.54-0.084,0.973-0.367,1.264-0.782
			c0.26-0.384,0.411-0.858,0.411-1.317v-1.75c0-0.875-0.167-1.702-0.481-2.48c-0.312-0.752-0.794-1.457-1.405-2.064l-1.412-1.419
			c0.98-1.042,1.602-2.46,1.602-4.003c0-1.626-0.668-3.115-1.735-4.182c-1.061-1.074-2.55-1.711-4.157-1.711
			c-0.614,0-1.194,0.084-1.757,0.254C250.261,230.267,247.139,227.582,243.502,227.582L243.502,227.582z M240.163,252.697
			L240.163,252.697v-0.943v-0.016l-0.019-0.104v-3.834c0-0.359-0.284-0.652-0.632-0.652c-0.354,0-0.655,0.293-0.655,0.652v2.849
			h-2.793c-0.038-0.063-0.05-0.163-0.05-0.247v-2.313c0-0.816,0.136-1.575,0.428-2.273v-0.008c0.181-0.416,0.408-0.813,0.69-1.217
			l0,0l0.012-0.016l0.019-0.006l0.008-0.017l0.008-0.02c0.176-0.229,0.369-0.438,0.575-0.65l2.328-2.321
			c2.129,1.104,4.707,1.104,6.818,0l2.333,2.321c0.203,0.216,0.4,0.423,0.566,0.65l0.019,0.02v0.017l0.016,0.006l0.015,0.016l0,0
			c0.293,0.399,0.521,0.801,0.691,1.217v0.008c0.286,0.698,0.427,1.457,0.427,2.273v2.313c0,0.084-0.013,0.184-0.044,0.247h-2.792
			v-2.849c0-0.359-0.297-0.652-0.652-0.652c-0.352,0-0.636,0.293-0.636,0.652v3.834l-0.014,0.104v0.016v0.943H240.163
			L240.163,252.697z M238.255,234.993L238.255,234.993c0-2.884,2.345-5.245,5.247-5.245c2.884,0,5.249,2.361,5.249,5.245
			C248.751,241.835,238.255,241.835,238.255,234.993L238.255,234.993z M254.819,252.697L254.819,252.697h-3.14
			c0.408-0.139,0.734-0.408,0.981-0.76c0.317-0.438,0.491-0.997,0.491-1.535v-2.313c0-0.947-0.165-1.86-0.468-2.714
			c0.871-0.017,1.69-0.229,2.434-0.565l1.618,1.607c0.434,0.431,0.742,0.896,0.957,1.391c0.198,0.516,0.294,1.063,0.294,1.646v1.685
			h-1.878v-1.911c0-0.354-0.271-0.652-0.642-0.652c-0.352,0-0.649,0.3-0.649,0.652L254.819,252.697L254.819,252.697z
			 M250.805,236.174L250.805,236.174c0.202-0.104,0.411-0.184,0.63-0.253c0.351-0.112,0.734-0.177,1.132-0.177
			c1.021,0,1.958,0.43,2.629,1.097c0.674,0.681,1.102,1.604,1.102,2.647c0,1.02-0.427,1.955-1.102,2.638v-0.007
			c-0.671,0.68-1.606,1.088-2.629,1.088c-0.281,0-0.521-0.006-0.753-0.054c-0.149-0.046-0.306-0.085-0.458-0.138
			c-0.191-0.221-0.387-0.445-0.597-0.651l0,0l-2.073-2.085l0.043-0.039l0,0l0,0c0.972-0.984,1.644-2.195,1.966-3.516l0.016-0.043
			v-0.025v-0.008l0.019-0.031l0.06-0.306v-0.019v-0.021l0.009-0.029L250.805,236.174L250.805,236.174z M232.18,252.697
			L232.18,252.697v-3.469c0-0.354-0.301-0.652-0.658-0.652c-0.354,0-0.646,0.3-0.646,0.652v1.911h-1.869v-1.685
			c0-0.583,0.092-1.135,0.298-1.646l0,0l0,0c0.21-0.49,0.522-0.96,0.959-1.391l1.618-1.607c0.738,0.336,1.558,0.553,2.431,0.565
			c-0.308,0.854-0.458,1.767-0.458,2.715v2.312c0,0.538,0.167,1.098,0.477,1.535c0.244,0.352,0.585,0.621,0.979,0.76H232.18
			L232.18,252.697z M236.186,236.174L236.186,236.174l0.012,0.07v0.029l0.02,0.021v0.019l0.053,0.306l0.01,0.031v0.008l0.009,0.025
			l0.005,0.043c0.333,1.316,0.996,2.527,1.966,3.516l0,0l0.052,0.039l-2.079,2.085c-0.211,0.206-0.414,0.435-0.597,0.651
			c-0.137,0.053-0.306,0.092-0.459,0.138c-0.221,0.048-0.462,0.054-0.745,0.054c-1.02,0-1.956-0.408-2.631-1.088v0.007
			c-0.673-0.683-1.092-1.618-1.092-2.638c0-1.043,0.418-1.971,1.092-2.647c0.675-0.667,1.611-1.097,2.631-1.097
			c0.406,0,0.789,0.063,1.127,0.177C235.783,235.99,235.985,236.068,236.186,236.174L236.186,236.174z"/>
	</g>
	<g>
		<path fill="#A0A1A1" d="M448.438,221.154h-21.477c-0.673,0-1.211,0.541-1.211,1.209v21.478c0,12.528,10.155,22.688,22.688,22.688
			c12.528,0,22.685-10.156,22.685-22.688C471.119,231.309,460.967,221.154,448.438,221.154z"/>
		<path fill="#FFFFFF" d="M436.966,251.418c-0.364,0-0.662-0.305-0.662-0.674c0-0.371,0.298-0.662,0.662-0.662h1.164v-12.037h-2.328
			c-0.614,0-1.104-0.496-1.104-1.107c0-0.465,0.283-0.877,0.699-1.033l12.535-6.277c0.328-0.141,0.695-0.141,0.987,0h0.02
			l12.624,6.326c0.55,0.275,0.771,0.945,0.483,1.48c-0.188,0.391-0.58,0.604-0.982,0.604v0.01h-2.332v12.037h1.177
			c0.367,0,0.659,0.291,0.659,0.662c0,0.369-0.292,0.674-0.659,0.674L436.966,251.418L436.966,251.418z M440.349,238.045
			L440.349,238.045v12.037h3.903v-12.037H440.349L440.349,238.045z M446.488,238.045L446.488,238.045v12.037h3.9v-12.037H446.488
			L446.488,238.045z M452.6,238.045L452.6,238.045v12.037h3.914v-12.037H452.6L452.6,238.045z M456.379,235.822L456.379,235.822
			l-7.946-3.975l-7.948,3.975H456.379L456.379,235.822z M435.802,254.277L435.802,254.277c-0.614,0-1.104-0.498-1.104-1.117
			c0-0.605,0.485-1.104,1.104-1.104h25.266c0.611,0,1.11,0.491,1.11,1.104c0,0.619-0.499,1.117-1.11,1.117H435.802L435.802,254.277z
			"/>
	</g>
	<g>
		<path fill="#B2DBC7" d="M311.811,221.154h-21.478c-0.664,0-1.207,0.541-1.207,1.209v21.478c0,12.528,10.151,22.688,22.685,22.688
			c12.534,0,22.688-10.156,22.688-22.688C334.496,231.309,324.342,221.154,311.811,221.154z"/>
		<path fill="#FFFFFF" d="M298.882,248.195h0.012h5.363c0.329,0,0.58,0.252,0.58,0.57v0.016v4.93c0,0.297-0.25,0.563-0.58,0.563
			h-0.013h-5.362c-0.313,0-0.58-0.27-0.58-0.563v-0.025v-4.916C298.302,248.447,298.571,248.195,298.882,248.195L298.882,248.195z
			 M313.061,234.982L313.061,234.982c-1.357,1.438-2.914,2.701-4.632,3.746c-2.393,1.455-5.128,2.473-8.065,2.92
			c-0.532,0.066-1.006-0.285-1.096-0.799c-0.073-0.545,0.285-1.021,0.801-1.104c2.697-0.409,5.187-1.331,7.375-2.665
			c1.718-1.025,3.25-2.314,4.563-3.787h-4.015c-0.529,0-0.946-0.421-0.946-0.949c0-0.521,0.417-0.948,0.946-0.948h6.02
			c0.525,0,0.962,0.429,0.962,0.948v0.025v5.987c0,0.532-0.438,0.961-0.962,0.961c-0.533,0-0.951-0.429-0.951-0.961V234.982
			L313.061,234.982z M317.731,235.191L317.731,235.191h0.026h5.354c0.322,0,0.572,0.264,0.572,0.563v0.027v17.928
			c0,0.297-0.25,0.563-0.572,0.563h-0.018h-5.364c-0.312,0-0.576-0.27-0.576-0.563v-0.025v-17.93
			C317.155,235.455,317.421,235.191,317.731,235.191L317.731,235.191z M322.537,236.34L322.537,236.34h-4.229v16.787h4.229V236.34
			L322.537,236.34z M308.307,241.691L308.307,241.691c-0.313,0-0.575,0.256-0.575,0.568c0,3.813,0,7.615,0,11.422
			c0,0.015,0,0.015,0,0.025c0,0.297,0.264,0.563,0.575,0.563c1.792,0,3.586,0,5.376,0c0,0,0,0,0.017,0
			c0.313,0,0.565-0.27,0.565-0.563c0-3.814,0-7.62,0-11.436v-0.018c0-0.313-0.253-0.566-0.565-0.566c-1.793,0-3.586,0-5.379,0
			C308.319,241.691,308.319,241.691,308.307,241.691L308.307,241.691z M313.106,242.836L313.106,242.836c0,3.434,0,6.859,0,10.291
			c-1.403,0-2.815,0-4.227,0c0-3.432,0-6.857,0-10.291C310.288,242.836,311.7,242.836,313.106,242.836L313.106,242.836z
			 M303.681,249.35L303.681,249.35h-4.229v3.773h4.229V249.35L303.681,249.35z"/>
	</g>
	<g>
		<path fill="#A1D9F6" d="M380.119,221.154H358.64c-0.665,0-1.205,0.541-1.205,1.209v21.478c0,12.528,10.158,22.688,22.685,22.688
			c12.533,0,22.687-10.156,22.687-22.688C402.806,231.309,392.655,221.154,380.119,221.154z"/>
		<path fill="#FFFFFF" d="M369.535,230.103h0.032h21.138c0.603,0,1.093,0.484,1.093,1.109v0.02v26.413
			c0,0.626-0.49,1.108-1.093,1.108h-0.03h-21.14c-0.602,0-1.094-0.482-1.094-1.108v-0.018v-26.415
			C368.444,230.592,368.938,230.103,369.535,230.103L369.535,230.103z M373.944,233.344L373.944,233.344
			c0.539,0,1.021,0.221,1.362,0.563c0.346,0.345,0.563,0.828,0.563,1.364v0.841h2.343v-0.841c0-0.536,0.218-1.021,0.559-1.364
			c0.349-0.345,0.827-0.563,1.365-0.563c0.519,0,0.994,0.221,1.348,0.563c0.345,0.345,0.564,0.828,0.564,1.364v0.841h2.324v-0.841
			c0-0.536,0.223-1.021,0.564-1.364c0.346-0.345,0.828-0.563,1.359-0.563c0.53,0,1.01,0.221,1.354,0.563
			c0.354,0.345,0.566,0.828,0.566,1.364v0.841h1.377v-3.802h-18.953v3.802h1.385v-0.841c0-0.536,0.222-1.021,0.563-1.364
			C372.938,233.562,373.421,233.344,373.944,233.344L373.944,233.344z M389.596,237.429L389.596,237.429h-1.377v0.835
			c0,0.529-0.216,1.01-0.566,1.354c-0.345,0.354-0.82,0.566-1.354,0.566c-0.531,0-1.018-0.212-1.358-0.566
			c-0.347-0.344-0.565-0.82-0.565-1.354v-0.835h-2.324v0.835c0,0.529-0.224,1.01-0.564,1.354c-0.354,0.354-0.829,0.566-1.348,0.566
			c-0.538,0-1.021-0.212-1.364-0.566c-0.342-0.344-0.56-0.82-0.56-1.354v-0.835h-2.343v0.835c0,0.529-0.218,1.01-0.563,1.354
			c-0.344,0.354-0.823,0.566-1.362,0.566c-0.521,0-1.008-0.212-1.354-0.566c-0.344-0.344-0.563-0.82-0.563-1.354v-0.835h-1.385
			v6.335h1.385v-0.838c0-0.521,0.222-1.014,0.563-1.354c0.347-0.342,0.83-0.563,1.354-0.563c0.539,0,1.021,0.223,1.362,0.563
			c0.346,0.342,0.563,0.831,0.563,1.354v0.838h2.343v-0.838c0-0.521,0.218-1.014,0.56-1.354c0.348-0.342,0.826-0.563,1.364-0.563
			c0.519,0,0.994,0.223,1.348,0.563c0.345,0.342,0.564,0.831,0.564,1.354v0.838h7.55L389.596,237.429L389.596,237.429z
			 M370.643,245.098L370.643,245.098v6.324h7.567v-0.837c0-0.528,0.218-1.018,0.559-1.345c0.349-0.346,0.827-0.564,1.365-0.564
			c0.519,0,0.994,0.223,1.347,0.564c0.346,0.327,0.565,0.813,0.565,1.345v0.837h2.324v-0.837c0-0.528,0.223-1.018,0.564-1.345
			c0.346-0.346,0.828-0.564,1.359-0.564c0.53,0,1.01,0.223,1.354,0.564c0.354,0.327,0.566,0.813,0.566,1.345v0.837h1.377v-6.324
			h-7.55v0.836c0,0.521-0.224,1.008-0.565,1.354c-0.354,0.345-0.828,0.57-1.347,0.57c-0.538,0-1.021-0.229-1.365-0.57
			c-0.341-0.346-0.561-0.831-0.561-1.354v-0.836h-2.341v0.836c0,0.521-0.219,1.008-0.563,1.354c-0.344,0.345-0.824,0.57-1.362,0.57
			c-0.521,0-1.009-0.229-1.354-0.57c-0.346-0.346-0.564-0.831-0.564-1.354v-0.836H370.643L370.643,245.098z M370.643,252.75
			L370.643,252.75v3.814h18.953v-3.814h-1.377v0.854c0,0.521-0.216,1.01-0.566,1.354c-0.345,0.344-0.82,0.559-1.354,0.559
			c-0.531,0-1.018-0.215-1.358-0.559c-0.347-0.344-0.565-0.83-0.565-1.354v-0.854h-2.324v0.854c0,0.521-0.224,1.01-0.564,1.354
			c-0.354,0.344-0.829,0.559-1.348,0.559c-0.538,0-1.021-0.215-1.364-0.559c-0.342-0.344-0.56-0.83-0.56-1.354v-0.854H370.643
			L370.643,252.75z M374.365,234.846L374.365,234.846c-0.103-0.11-0.239-0.183-0.422-0.183c-0.157,0-0.312,0.068-0.413,0.183
			c-0.119,0.104-0.175,0.25-0.175,0.426v1.474v0.021v0.021v1.479c0,0.166,0.056,0.313,0.175,0.418
			c0.104,0.123,0.256,0.187,0.413,0.187c0.185,0,0.319-0.063,0.422-0.187c0.117-0.104,0.188-0.252,0.188-0.418v-1.479v-0.021v-0.021
			v-1.474C374.555,235.096,374.483,234.953,374.365,234.846L374.365,234.846z M380.547,234.846L380.547,234.846
			c-0.104-0.11-0.262-0.183-0.413-0.183c-0.183,0-0.326,0.068-0.438,0.183c-0.108,0.104-0.181,0.25-0.181,0.426v1.474v0.021v0.021
			v1.479c0,0.166,0.068,0.313,0.181,0.418c0.108,0.123,0.256,0.187,0.438,0.187c0.151,0,0.312-0.063,0.413-0.187
			c0.104-0.104,0.175-0.252,0.175-0.418v-1.479v-0.021v-0.021v-1.474C380.722,235.096,380.651,234.953,380.547,234.846
			L380.547,234.846z M374.365,242.496L374.365,242.496c-0.103-0.1-0.239-0.17-0.422-0.17c-0.157,0-0.312,0.07-0.413,0.17
			c-0.119,0.111-0.175,0.271-0.175,0.436v1.479v0.024v0.016v1.486c0,0.151,0.056,0.316,0.175,0.413
			c0.104,0.114,0.256,0.182,0.413,0.182c0.185,0,0.319-0.063,0.422-0.182c0.117-0.097,0.188-0.262,0.188-0.413v-1.486v-0.016v-0.024
			v-1.479C374.555,242.764,374.483,242.607,374.365,242.496L374.365,242.496z M380.547,250.166L380.547,250.166
			c-0.104-0.105-0.262-0.17-0.413-0.17c-0.183,0-0.326,0.063-0.438,0.17c-0.108,0.117-0.181,0.258-0.181,0.423v1.487v0.016v0.024
			v1.485c0,0.162,0.068,0.306,0.181,0.422c0.108,0.116,0.256,0.162,0.438,0.162c0.151,0,0.312-0.046,0.413-0.162
			c0.104-0.116,0.175-0.26,0.175-0.422v-1.485v-0.024v-0.016v-1.487C380.722,250.424,380.651,250.283,380.547,250.166
			L380.547,250.166z M386.714,234.846L386.714,234.846c-0.106-0.11-0.259-0.183-0.416-0.183c-0.17,0-0.316,0.068-0.42,0.183
			c-0.111,0.104-0.176,0.25-0.176,0.426v1.474v0.021v0.021v1.479c0,0.166,0.063,0.313,0.176,0.418
			c0.104,0.123,0.25,0.187,0.42,0.187c0.157,0,0.31-0.063,0.416-0.187c0.114-0.104,0.181-0.252,0.181-0.418v-1.479v-0.021v-0.021
			v-1.474C386.895,235.096,386.828,234.953,386.714,234.846L386.714,234.846z M380.547,242.496L380.547,242.496
			c-0.104-0.1-0.262-0.17-0.413-0.17c-0.183,0-0.326,0.07-0.438,0.17c-0.108,0.111-0.181,0.271-0.181,0.436v1.479v0.024v0.016v1.486
			c0,0.151,0.068,0.316,0.181,0.413c0.108,0.114,0.256,0.182,0.438,0.182c0.151,0,0.312-0.063,0.413-0.182
			c0.104-0.097,0.175-0.262,0.175-0.413v-1.486v-0.016v-0.024v-1.479C380.722,242.764,380.651,242.607,380.547,242.496
			L380.547,242.496z M386.714,250.166L386.714,250.166c-0.106-0.105-0.259-0.17-0.416-0.17c-0.17,0-0.316,0.063-0.42,0.17
			c-0.111,0.117-0.176,0.258-0.176,0.423v1.487v0.016v0.024v1.485c0,0.162,0.063,0.306,0.176,0.422
			c0.104,0.116,0.25,0.162,0.42,0.162c0.157,0,0.31-0.046,0.416-0.162c0.114-0.116,0.181-0.26,0.181-0.422v-1.485v-0.024v-0.016
			v-1.487C386.895,250.424,386.828,250.283,386.714,250.166L386.714,250.166z"/>
	</g>
</g>
<line fill="none" stroke="#231815" stroke-width="1.0914" stroke-miterlimit="10" x1="36.47" y1="184.325" x2="202.78" y2="184.325"/>
<line fill="none" stroke="#231815" stroke-width="1.0914" stroke-miterlimit="10" x1="466.837" y1="184.325" x2="628.34" y2="184.325"/>
<g>
	<path d="M75.812,147.133"/>
	<path d="M144.858,146.883"/>
	<path d="M202.78,146.883"/>
</g>
<g>
	<path d="M217.332,168.065c0.456,0,1-0.148,1.63-0.45c0.627-0.299,1.373-0.721,2.229-1.262c0.858-0.54,1.399-0.87,1.63-0.991
		c0.571-0.36,1.345-0.721,2.316-1.081c0.97-0.36,1.63-0.6,1.973-0.721c0.229-0.239,0.742-0.541,1.544-0.901
		c0.801-0.36,1.373-0.659,1.718-0.901c0.343-0.236,0.828-0.419,1.458-0.538c0.627-0.117,1.228-0.238,1.802-0.359
		c1.716-0.239,3.314,0.422,4.804,1.979c0.571,0.604,0.857,1.202,0.857,1.805s-0.458,0.898-1.373,0.898
		c0,1.323-0.061,4.086-0.171,8.29c-0.115,4.207-0.115,7.451,0,9.731c0,0.479,0.228,2.014,0.687,4.596
		c0.456,2.586,0.517,4.596,0.171,6.038c-1.027,0.118-2.26-0.662-3.688-2.343c-1.434-1.685-2.26-3.123-2.488-4.325
		c0.688,0.36,1.544,1.053,2.574,2.072c1.029,1.021,1.601,1.649,1.716,1.893c0-1.561-0.115-3.754-0.343-6.578
		c-0.23-2.819-0.343-4.956-0.343-6.396c0-0.839,0.086-2.492,0.257-4.956c0.172-2.461,0.197-4.533,0.086-6.218
		c-0.115-1.684-0.458-3.244-1.029-4.688c-0.229,0-0.601,0-1.115,0c-0.514,0-0.831,0-0.942,0c-3.433,0.842-6.809,2.343-10.123,4.506
		c-0.23,0.121-0.603,0.301-1.115,0.54c-0.515,0.242-1.002,0.451-1.458,0.631c-0.458,0.184-0.745,0.451-0.858,0.813
		c-0.113,0.242-0.059,0.721,0.173,1.438c0.229,0.724,0.344,1.202,0.344,1.442c-0.23,1.081-0.431,2.225-0.602,3.424
		c-0.172,1.202-0.4,2.464-0.687,3.784c-0.287,1.324-0.544,2.405-0.772,3.244c0,0.121-0.027,0.451-0.086,0.991
		c-0.059,0.541-0.114,0.988-0.171,1.352c-0.059,0.36-0.201,0.722-0.429,1.082c-0.23,0.36-0.458,0.54-0.688,0.54
		c-0.458,0-0.771-0.149-0.942-0.45c-0.171-0.299-0.257-0.749-0.257-1.352c-0.115-0.724-0.029-1.712,0.257-2.977
		c0.284-1.262,0.429-2.132,0.429-2.61c0.456,0.239,0.627,0.659,0.515,1.262h0.172c0.112-0.603,0.344-1.532,0.688-2.794
		c0.344-1.262,0.627-2.461,0.858-3.604c0.228-1.141,0.282-2.132,0.171-2.974c0-0.36-0.23-0.839-0.688-1.441
		C217.56,168.908,217.332,168.426,217.332,168.065z M216.818,180.861v0.721V180.861z M229.171,166.263
		c0.456-0.842,0.944-1.199,1.458-1.081c0.515,0.119,0.97,0.422,1.373,0.897c0.397,0.482,0.657,1.022,0.771,1.622
		c0.456,1.563,0.399,3.546-0.171,5.947c-0.115,0.121-0.257,0.423-0.429,0.899c-0.171,0.48-0.316,0.872-0.429,1.174
		c-0.115,0.301-0.174,0.568-0.174,0.811c0.113,0.481,0.345,0.991,0.688,1.532c0.343,0.54,0.713,0.963,1.115,1.262
		c0.397,0.301,0.686,0.661,0.856,1.081c0.171,0.422,0.085,0.991-0.257,1.712c-0.574-0.118-1.229-0.688-1.973-1.712
		c-0.745-1.02-1.23-1.65-1.458-1.893c-0.343,1.081-1.146,2.19-2.402,3.334c-1.26,1.144-2.346,1.352-3.26,0.631
		c-0.23-0.36-0.402-0.991-0.515-1.896c-0.116-0.897-0.174-1.409-0.174-1.528h-0.171c-0.229,0.603-0.572,1.23-1.027,1.893
		c-0.458,0.661-0.975,1.233-1.544,1.712c-0.23,0.242-0.603,0.332-1.115,0.271c-0.517-0.063-0.772-0.392-0.772-0.991
		c0.688,0.121,1.458-0.33,2.316-1.354c0.855-1.019,1.171-1.892,0.941-2.609c-0.229-0.961-1.088-1.982-2.572-3.064
		c0.343-1.199,1.373-0.897,3.088,0.901l0.343,0.357c0.229-0.96,0.429-1.771,0.601-2.433c0.173-0.659,0.198-1.442,0.088-2.343
		c-0.116-0.901-0.345-1.592-0.688-2.073v-0.36c0.799-0.236,1.373-0.146,1.716,0.271c0.343,0.423,0.517,1.021,0.517,1.803
		s-0.061,1.531-0.173,2.252c-0.114,0.725-0.229,1.383-0.343,1.982c-0.343,0.722-0.515,1.322-0.515,1.803
		c0,0.121,0.142,0.392,0.429,0.812c0.284,0.425,0.485,0.754,0.603,0.99v2.344h-1.029c0.571,0.48,1.085,0.604,1.544,0.359
		c0.456-0.239,0.914-0.658,1.373-1.261c0.456-0.603,0.829-1.143,1.115-1.622c0.284-0.479,0.542-0.961,0.771-1.442l-3.431-2.343
		l-0.343-0.54c0.799-0.359,1.569-0.42,2.314-0.181c0.742,0.242,1.343,0.721,1.801,1.438c0.688-0.6,1.144-1.62,1.373-3.063
		c0.229-1.441,0.172-2.793-0.171-4.057C230.886,167.255,230.2,166.506,229.171,166.263z"/>
	<path d="M264.171,162.299c0.915-0.236,1.571-0.115,1.973,0.36c0.399,0.481,0.485,1.146,0.257,1.982
		c-0.686,2.645-1.831,5.105-3.431,7.39c0.571,0,0.97,0.211,1.201,0.63c0.228,0.423,0.258,0.991,0.086,1.713
		c-0.171,0.724-0.373,1.382-0.603,1.982c-0.229,0.603-0.515,1.23-0.856,1.892c-0.343,0.662-0.517,1.054-0.517,1.172
		c0.345,0.121,0.657,0.271,0.944,0.45c0.284,0.181,0.456,0.423,0.516,0.721c0.057,0.305,0.112,0.572,0.172,0.813
		c0.057,0.242,0.057,0.571,0,0.991c-0.061,0.422-0.115,0.752-0.172,0.988c-0.06,0.242-0.146,0.571-0.258,0.991
		c-0.113,0.422-0.229,0.752-0.343,0.991c0.688-0.6,1.399-1.803,2.146-3.604c0.741-1.803,1.458-3.003,2.145-3.604
		c0,1.441-0.287,2.884-0.857,4.325c-0.573,1.439-1.347,3.036-2.315,4.773c-0.973,1.743-1.689,2.977-2.146,3.694
		c-1.26,3.002-2.29,3.965-3.088,2.884c0-0.121-0.027-0.302-0.086-0.541c-0.059-0.241-0.059-0.513,0-0.811
		c0.059-0.302,0.172-0.572,0.343-0.813c0.174-0.24,0.284-0.51,0.345-0.811c0.056-0.299,0.142-0.51,0.257-0.631
		c0-0.118,0.198-0.631,0.601-1.532c0.399-0.901,0.657-1.532,0.772-1.895c0.112-0.358,0.284-0.898,0.515-1.62
		c0.229-0.724,0.37-1.382,0.43-1.982c0.057-0.6,0.026-1.199-0.087-1.802c-0.113,0.242-0.4,0.603-0.856,1.081
		c-0.458,0.479-0.888,0.933-1.287,1.352c-0.402,0.423-0.772,0.631-1.115,0.631c-0.802,0-0.746-0.777,0.171-2.343
		c0.914-1.44,1.431-2.281,1.544-2.521c0.112-0.239,0.37-0.658,0.772-1.264c0.398-0.601,0.627-1.141,0.686-1.622
		c0.059-0.479,0.144-0.93,0.258-1.352c0.112-0.42,0.173-0.93,0.173-1.532c-0.574,0.242-1.434,0.662-2.574,1.262
		c-1.716,1.081-2.86,1.386-3.433,0.901c-0.114-0.119-0.114-0.42,0-0.901c0.229-0.236,0.57-0.541,1.029-0.898
		c0.456-0.36,1.029-0.749,1.716-1.171c0.688-0.42,1.085-0.631,1.201-0.631c1.257-0.843,2.43-2.465,3.519-4.866
		C265,165.123,265.086,163.38,264.171,162.299z M277.554,195.639c0.571,0.115,1.171,0,1.801-0.36c0.627-0.36,1.257-0.963,1.89-1.802
		c0.627-0.846,1.142-1.563,1.543-2.163c0.397-0.603,0.714-1.199,0.943-1.802c0.913-1.563,1.085-2.645,0.515-3.244
		c-0.343-0.36-0.688-0.541-1.028-0.541s-0.688,0.121-1.028,0.357c-0.344,0.242-0.66,0.481-0.941,0.724
		c-0.287,0.239-0.631,0.541-1.03,0.898c-0.402,0.36-0.659,0.541-0.772,0.541c-0.113,0.121-0.257,0.211-0.429,0.271
		c-0.172,0.062-0.343,0.148-0.515,0.27s-0.316,0.121-0.431,0c-0.113-0.118-0.229-0.298-0.343-0.54c0-0.118,0.086-0.33,0.257-0.631
		c0.173-0.299,0.399-0.659,0.688-1.081c0.284-0.42,0.429-0.688,0.429-0.812c0.915-2.042,1.772-4.267,2.574-6.668
		c0.343-1.563,0.229-2.645-0.343-3.244c-0.345-0.479-0.917-0.45-1.716,0.09c-0.803,0.541-1.373,1.112-1.717,1.712
		c-0.572,1.203-1.174,2.884-1.802,5.047c-0.63,2.162-1.174,3.784-1.63,4.866c-0.23,0.603-0.373,0.991-0.429,1.171
		c-0.061,0.181-0.172,0.36-0.345,0.541c-0.171,0.18-0.285,0.332-0.343,0.45c-0.059,0.121-0.201,0.242-0.429,0.358
		c-0.23,0.12-0.402,0.12-0.515,0c-0.458-0.116-1.03-0.42-1.718-0.899c-0.458-0.36-0.831-0.689-1.113-0.991
		c-0.287-0.298-0.431-0.63-0.431-0.991c0-0.357-0.027-0.688-0.085-0.989c-0.059-0.3,0.058-0.657,0.345-1.08
		c0.282-0.422,0.455-0.749,0.515-0.991c0.056-0.239,0.257-0.631,0.6-1.171c0.345-0.541,0.627-0.87,0.858-0.991
		c0.571-0.961,1.485-2.073,2.745-3.335c1.257-1.261,2.115-2.19,2.574-2.793c0.111-0.239,0.282-0.568,0.515-0.991
		c0.228-0.42,0.37-0.721,0.429-0.901c0.058-0.18,0.171-0.539,0.343-1.079c0.174-0.541,0.259-0.869,0.259-0.99
		c0.687-1.805,0.971-2.942,0.856-3.424c0-0.479-0.145-0.749-0.429-0.813c-0.287-0.059-0.574-0.028-0.858,0.09
		c-0.287,0.121-0.572,0.302-0.856,0.541c-0.287,0.242-0.544,0.423-0.772,0.541c-0.343,0.604-0.771,1.202-1.287,1.802
		c-0.515,0.604-1.059,1.414-1.63,2.437c-0.573,1.021-1.027,1.651-1.373,1.892c-0.801,1.324-1.431,1.563-1.887,0.724
		c-0.115-0.36,0-0.87,0.343-1.531c0.343-0.659,0.799-1.411,1.373-2.253c0.571-0.839,0.914-1.32,1.029-1.441
		c1.601-3.002,2.458-5.407,2.574-7.209c0-0.238-0.201-0.659-0.603-1.262c-0.4-0.602-0.544-1.081-0.429-1.441
		c0.456-0.479,0.97-0.479,1.544,0c0.571,0.481,0.914,0.963,1.029,1.441c0.111,0.721,0.142,1.262,0.086,1.622
		c-0.061,0.357-0.201,0.873-0.431,1.531c-0.229,0.659-0.343,1.172-0.343,1.529c0.456-0.357,1.058-0.6,1.801-0.721
		c0.743-0.118,1.399-0.028,1.975,0.271c0.57,0.302,0.856,0.871,0.856,1.713s-0.257,2.069-0.771,3.691
		c-0.517,1.622-0.772,2.613-0.772,2.977c0.456-0.36,1-0.568,1.63-0.632c0.628-0.061,1.229,0.092,1.802,0.449
		c0.57,0.36,0.856,0.9,0.856,1.622c0.113,0.842,0.057,1.712-0.171,2.612c-0.229,0.9-0.573,2.045-1.029,3.425
		c-0.458,1.383-0.687,2.193-0.687,2.435c0.57-0.359,1.201-0.512,1.887-0.449c0.688,0.062,1.344,0.357,1.974,0.898
		c0.627,0.54,0.887,1.171,0.771,1.895c-0.229,2.645-1.887,5.522-4.976,8.648c-0.574,0.724-1.348,1.173-2.316,1.354
		C278.039,196.991,277.554,196.599,277.554,195.639z M275.838,179.42c-0.917,0.36-1.887,1.202-2.917,2.523
		c-1.03,1.323-1.716,2.464-2.061,3.424c-0.229,0.604-0.257,1.233-0.085,1.893c0.173,0.661,0.657,0.991,1.458,0.991
		c0.113,0,0.229-0.025,0.345-0.091c0.111-0.059,0.228-0.18,0.343-0.36c0.112-0.18,0.198-0.326,0.257-0.447
		c0.056-0.118,0.142-0.42,0.257-0.901C274.122,184.646,274.921,182.302,275.838,179.42z"/>
	<path d="M307.922,166.083c0.11,0,0.397,0.063,0.855,0.184c0.456,0.119,0.799,0.181,1.028,0.181c0.571-0.24,1.144-0.451,1.717-0.631
		c0.57-0.184,1.229-0.479,1.973-0.901c0.743-0.42,1.229-0.688,1.459-0.812c1.144-0.603,1.771-0.54,1.889,0.181
		c0.345,0.481,0.058,1.262-0.856,2.343c-1.373,1.924-2.118,3.365-2.229,4.325c0.688-0.239,1.143-0.118,1.372,0.36
		s0.111,1.021-0.345,1.622c-0.343,0.479-0.974,1.352-1.887,2.61c-0.917,1.265-1.604,2.253-2.061,2.977
		c0.456-0.118,0.942-0.298,1.459-0.54c0.516-0.24,1.056-0.42,1.63-0.541c0.568-0.118,1.057-0.09,1.458,0.09
		c0.397,0.181,0.713,0.693,0.941,1.532c0,0.357-0.146,0.963-0.429,1.802c-0.287,0.842-0.43,1.324-0.43,1.442
		c0,0.239-0.114,0.871-0.344,1.892s-0.372,1.685-0.431,1.982c-0.06,0.302-0.229,0.898-0.516,1.803
		c-0.287,0.898-0.544,1.532-0.771,1.893c-0.229,0.36-0.572,0.813-1.028,1.354c-0.458,0.54-0.975,0.988-1.544,1.352h-0.171
		c-0.46-0.357-1.287-1.054-2.488-2.072c-1.201-1.02-2.146-1.949-2.831-2.794c-0.688-0.839-1.2-1.858-1.544-3.063
		c0.688,0.242,1.373,0.752,2.06,1.531c0.688,0.78,1.344,1.529,1.976,2.253c0.627,0.721,1.343,1.262,2.146,1.622
		c0.455,0,0.827-0.118,1.114-0.36c0.284-0.239,0.516-0.479,0.688-0.721c0.171-0.239,0.369-0.659,0.602-1.265
		c0.569-1.317,1-2.729,1.287-4.232c0.282-1.501,0.313-2.854,0.086-4.058c-0.345,0.121-0.718,0.304-1.115,0.541
		c-0.401,0.242-0.744,0.45-1.028,0.631c-0.287,0.183-0.63,0.425-1.027,0.724c-0.402,0.301-0.745,0.54-1.029,0.721
		c-0.286,0.18-0.545,0.45-0.771,0.813c-0.688,0.721-1.199,1.021-1.544,0.898c-0.688-0.479-0.688-1.262,0-2.343
		c2.061-3.123,3.262-5.046,3.604-5.768c-0.114,0.118-0.372,0.333-0.771,0.631c-0.4,0.302-0.716,0.479-0.942,0.541
		c-0.229,0.062-0.486,0.211-0.771,0.447c-0.287,0.242-0.602,0.451-0.943,0.634c-0.344,0.181-0.687,0.333-1.028,0.448
		c-0.458,0-0.888-0.091-1.285-0.271c-0.402-0.181-0.488-0.569-0.259-1.172c0-0.118,0.11-0.208,0.345-0.271
		c0.228-0.059,0.627-0.09,1.199-0.09c0.57-0.357,1.373-0.96,2.4-1.802c1.144-0.961,2.146-2.103,3.004-3.425
		c0.856-1.32,1.398-2.765,1.631-4.325c-0.114,0-0.346,0.09-0.688,0.271c-0.344,0.184-0.659,0.305-0.942,0.36
		c-0.286,0.063-0.659,0.121-1.114,0.181c-0.459,0.063-0.771,0.063-0.943,0c-0.171-0.06-0.4-0.115-0.687-0.181
		c-0.287-0.059-0.546-0.239-0.771-0.541C308.032,166.776,307.922,166.444,307.922,166.083z M322.331,161.217
		c1.145-0.6,2.146-0.479,3.005,0.36c0.855,0.842,1.285,1.982,1.285,3.424c0,1.202-0.086,2.977-0.258,5.316s-0.314,4.117-0.43,5.313
		c0,0.604,0.026,2.679,0.086,6.221c0.057,3.546,0.026,5.615-0.086,6.218c0,0.242,0.026,0.603,0.086,1.081
		c0.057,0.479,0.026,0.843-0.086,1.082c0,0.479-0.114,1.171-0.344,2.07c-0.229,0.9-0.345,1.41-0.345,1.531
		c0,0.118-0.027,0.329-0.086,0.631c-0.06,0.301-0.086,0.54-0.086,0.724c0,0.18-0.085,0.389-0.257,0.631
		c-0.172,0.239-0.314,0.358-0.43,0.358c-0.459,0.117-0.716,0-0.771-0.358c-0.06-0.36-0.086-0.722-0.086-1.082
		c0.456-2.283,0.688-4.623,0.688-7.028c0-0.357,0.024-2.312,0.086-5.854c0.057-3.542,0.086-6.276,0.086-8.2
		c0-0.479,0.026-1.261,0.086-2.343c0.057-1.081,0.143-1.951,0.258-2.613c0.111-0.658,0.172-1.441,0.172-2.343
		c0-0.9-0.113-1.712-0.345-2.436c-0.114-0.479-0.486-0.989-1.114-1.529C322.819,161.848,322.447,161.46,322.331,161.217z"/>
	<path d="M350.986,164.281c0.111,0,0.343-0.028,0.688-0.09c0.343-0.063,0.627-0.091,0.855-0.091s0.484,0,0.771,0
		c0.284,0,0.541,0.028,0.771,0.091c0.229,0.062,0.398,0.211,0.517,0.45c0.11,0.239,0.11,0.66,0,1.262
		c-0.115,0.603-0.373,1.323-0.771,2.162c-0.402,0.843-0.659,1.262-0.771,1.262c2.061-1.081,3.944-1.622,5.66-1.622
		c0.571,0,1.029,0.152,1.373,0.451c0.345,0.301,0.229,0.752-0.344,1.352c-0.115,0.36-0.401,0.541-0.855,0.541
		c-0.459,0-0.976-0.06-1.544-0.181c-0.574-0.118-0.976-0.181-1.201-0.181c-1.146,0.242-2.089,0.69-2.831,1.353
		c-0.745,0.661-1.458,1.652-2.146,2.977c0.57,0.119,1.171,0.447,1.804,0.988c0.627,0.54,0.999,1.056,1.113,1.531
		c0.229,0.481,0.257,0.901,0.085,1.262c-0.171,0.36-0.485,0.481-0.941,0.36c-0.229-0.239-0.63-0.78-1.201-1.622
		c-0.458-0.479-0.802-0.96-1.028-1.438c-0.343,0.357-0.63,0.689-0.855,0.988c-0.229,0.304-0.432,0.724-0.603,1.265
		c-0.172,0.54-0.373,0.873-0.602,0.988c-1.487,2.646-2.917,4.688-4.289,6.127c-0.917,0.966-1.745,1.354-2.487,1.175
		c-0.745-0.184-0.771-1.054-0.086-2.613h0.344v1.438c0.345-0.357,0.714-0.688,1.115-0.988c0.398-0.301,0.771-0.659,1.114-1.081
		c0.344-0.42,0.656-0.78,0.941-1.081c0.284-0.299,0.603-0.813,0.943-1.532c0.344-0.721,0.602-1.172,0.771-1.352
		c0.171-0.184,0.429-0.659,0.771-1.441c0.344-0.78,0.542-1.2,0.603-1.262c0.057-0.063,0.172-0.209,0.344-0.451
		c0.171-0.239,0.284-0.419,0.343-0.54c0.058-0.118,0.144-0.33,0.259-0.631c0.111-0.299,0.171-0.51,0.171-0.631
		c0-0.118,0.059-0.329,0.172-0.634c0.112-0.299,0.174-0.51,0.174-0.631c0-0.115,0-0.357,0-0.721c1.143-0.839,2-2.763,2.571-5.768
		c-0.458,0-0.831-0.093-1.113-0.271C351.299,165.272,351.098,164.883,350.986,164.281z M354.76,180.861l-3.26,1.979
		c-0.115,0.121-0.372,0.333-0.771,0.634c-0.401,0.302-0.716,0.448-0.943,0.448c-0.113,0-0.286,0.121-0.516,0.36
		c-0.229,0.242-0.401,0.391-0.515,0.45c-0.115,0.062-0.287,0.121-0.517,0.181c-0.229,0.063-0.4,0.09-0.516,0.09
		c-0.343,0-0.603-0.09-0.771-0.271c-0.171-0.181-0.146-0.51,0.086-0.991c0.113-0.118,0.456-0.329,1.029-0.631
		c0.57-0.299,0.971-0.45,1.2-0.45c0.229-0.359,0.914-0.898,2.06-1.622c1.145-0.721,2.062-1.32,2.746-1.803
		c0.455-0.118,0.713-0.239,0.771-0.36c0.058-0.117,0.172-0.208,0.343-0.271c0.172-0.062,0.313-0.09,0.431-0.09
		c0.111,0,0.257,0.028,0.431,0.09c0.172,0.063,0.313,0.091,0.429,0.091c0.571,0.48,0.516,1.563-0.172,3.244
		c-0.115,0.121-0.286,0.45-0.517,0.991c-0.229,0.54-0.43,0.963-0.602,1.261c-0.171,0.302-0.4,0.631-0.688,0.991
		c-0.286,0.358-0.516,0.631-0.688,0.812s-0.487,0.332-0.942,0.45c-0.459,0.121-0.917,0.121-1.373,0l1.373,2.521
		c0.688,1.44,0.972,2.463,0.856,3.063c0,0.36-0.114,0.631-0.343,0.813c-0.229,0.181-0.459,0.207-0.688,0.091
		c-0.458-0.242-0.855-0.963-1.201-2.163c-0.343-1.199-0.63-1.982-0.855-2.344c0-0.117-0.146-0.328-0.431-0.633
		c-0.285-0.298-0.516-0.565-0.688-0.811c-0.172-0.239-0.2-0.479-0.086-0.721c0.112-0.36,0.284-0.513,0.516-0.451
		c0.229,0.063,0.541,0.149,0.942,0.271c0.397,0.121,0.713,0.184,0.944,0.184c0.686-0.479,1.343-1.265,1.973-2.346
		S354.76,181.824,354.76,180.861z M361.621,162.479c1.144,0.479,2.173,0.422,3.09-0.184c0.111,0,0.282-0.115,0.515-0.357
		c0.229-0.239,0.399-0.392,0.516-0.45c0.113-0.062,0.313-0.119,0.603-0.181c0.284-0.063,0.483-0.028,0.602,0.09
		c0.229,0,0.344,0.091,0.344,0.271c0,0.184,0,0.332,0,0.45c0,0.121-0.06,0.271-0.172,0.451c-0.113,0.18-0.199,0.332-0.258,0.45
		c-0.06,0.121-0.115,0.271-0.171,0.449c-0.061,0.182-0.146,0.393-0.259,0.632c-1.716,2.884-2.744,5.945-3.088,9.188
		c0.455-0.238,1.085-0.897,1.888-1.979c0.799-1.081,1.484-1.83,2.06-2.253c0.57-0.421,1.173-0.749,1.803-0.991
		c0.628-0.239,1.258-0.271,1.889-0.09c0.627,0.181,1.114,0.631,1.458,1.352c0.112,0.242,0.172,0.572,0.172,0.991
		c0,0.423-0.029,0.843-0.086,1.262c-0.06,0.423-0.086,0.813-0.086,1.172c0,0.724-0.06,1.531-0.172,2.436
		c-0.115,0.898-0.315,1.954-0.603,3.151c-0.285,1.202-0.601,2.228-0.942,3.063c-0.343,0.842-0.856,1.473-1.544,1.893
		c-0.688,0.422-1.544,0.515-2.572,0.271l-1.544,3.063c0.454,0,0.884,0.093,1.285,0.271c0.397,0.18,0.886,0.358,1.459,0.54
		c0.569,0.181,1.028,0.392,1.372,0.631c0.229,0,0.771,0.152,1.631,0.451c0.855,0.301,1.57,0.54,2.145,0.721
		c0.571,0.18,1.145,0.45,1.718,0.813c1.144,0.721,1.888,1.439,2.229,2.16c0.229,0.603-0.06,1.081-0.856,1.441
		c-0.114,0-0.372-0.121-0.771-0.36c-0.402-0.239-0.803-0.568-1.201-0.988c-0.401-0.426-0.659-0.634-0.771-0.634
		c-1.028-0.839-2.29-1.591-3.774-2.253c-1.487-0.655-2.916-1.05-4.289-1.171c-0.229,0-0.458,0.03-0.687,0.09
		c-0.23,0.063-0.401,0.184-0.518,0.36c-0.113,0.181-0.286,0.45-0.515,0.813c-0.23,0.357-0.401,0.538-0.516,0.538
		c-1.146,1.441-2.289,2.345-3.433,2.702c-0.803,0.239-1.4,0.184-1.803-0.18c-0.401-0.36-0.544-0.963-0.429-1.803
		c0.11,0.121,0.313,0.333,0.601,0.631c0.283,0.299,0.603,0.451,0.943,0.451c0.455-0.121,1.257-0.78,2.399-1.982
		c0.915-1.082,1.771-2.371,2.574-3.875c0.799-1.501,1.2-2.912,1.2-4.232c0-0.36-0.114-0.96-0.344-1.805
		c-0.229-0.84-0.401-1.471-0.517-1.893c-0.113-0.42-0.06-0.93,0.172-1.532c0.456-0.6,0.973-0.839,1.545-0.721
		c0.57,0.121,1.028,0.479,1.372,1.081c0.229,0.357,0.198,1.144-0.086,2.343c-0.286,1.203-0.373,1.924-0.258,2.163
		c0,0.479,0.145,0.752,0.429,0.811c0.284,0.063,0.603,0.031,0.944-0.09c0.455-0.239,0.771-0.6,0.942-1.081
		c0.172-0.479,0.313-0.898,0.43-1.262c0.111-0.36,0.172-0.839,0.172-1.441c0.111-0.357,0.283-1.197,0.517-2.521
		c0.229-1.32,0.397-2.281,0.515-2.884c0-0.479,0-1.053,0-1.712s-0.172-1.174-0.515-1.532c-0.917-0.36-2.229,0.479-3.946,2.521
		c-3.773,4.688-5.662,8.831-5.662,12.438c-0.114,0-0.285,0.062-0.515,0.18c-0.229,0.121-0.401,0.181-0.517,0.181
		c-0.344,0.242-0.573,0.214-0.688-0.09c-0.115-0.299-0.171-0.658-0.171-1.082c0-0.419,0.024-0.811,0.086-1.171
		c0.057-0.357,0.085-0.659,0.085-0.898c1.258-3.604,2.172-6.55,2.745-8.831c0.229-0.724,0.483-1.65,0.771-2.793
		c0.283-1.144,0.515-2.191,0.688-3.154c0.172-0.96,0.429-1.861,0.771-2.703c-0.916-0.118-1.432-0.181-1.545-0.181
		c-0.114,0-0.285-0.062-0.515-0.183c-0.229-0.115-0.372-0.299-0.431-0.541C361.479,163.14,361.508,162.84,361.621,162.479z
		 M365.226,177.617l0.345,1.442h0.171L365.226,177.617z"/>
	<path d="M396.11,169.147c0.456,0.242,0.942,0.357,1.458,0.357c0.515,0,0.914-0.06,1.2-0.181c0.284-0.118,0.743-0.329,1.373-0.631
		c0.627-0.298,1-0.51,1.115-0.631c0.11,0,0.313-0.062,0.602-0.183c0.282-0.115,0.515-0.236,0.688-0.357
		c0.172-0.118,0.368-0.271,0.601-0.451c0.229-0.18,0.345-0.329,0.345-0.45c0.343-0.721,0.455-2.461,0.343-5.227
		c0-0.36-0.113-0.749-0.343-1.171c-0.229-0.421-0.517-0.78-0.856-1.082c-0.345-0.3-0.573-0.512-0.688-0.632
		c-0.115-0.117-0.171-0.3-0.171-0.539s0.111-0.422,0.343-0.541c0.344,0,0.856,0.119,1.544,0.357
		c0.801,0.481,1.313,1.055,1.544,1.713c0.229,0.661,0.284,1.354,0.173,2.072c-0.114,0.721-0.229,1.473-0.344,2.253
		c-0.113,0.782,0,1.474,0.344,2.072c0.111,0.358,0.543,0.422,1.286,0.18c0.742-0.239,1.229-0.118,1.458,0.361
		c0.112,0.242,0.112,0.569,0,0.991c-0.113,0.422-0.4,0.689-0.855,0.811l3.432,3.063l1.545,1.62c-0.459,0.48-0.745,0.782-0.856,0.9
		c-0.458,0.121-1.175,0.182-2.146,0.182c-0.973,0-1.858,0.092-2.659,0.271c-0.802,0.181-1.372,0.572-1.716,1.172
		c-0.343,0.721-0.515,1.982-0.515,3.784c0,1.563-0.287,4.808-0.857,9.73c0,0.241,0,0.661,0,1.264s-0.061,1.171-0.172,1.712
		c-0.115,0.541-0.229,0.991-0.344,1.352c-0.458,0.724-1.114,0.689-1.974-0.09c-0.856-0.783-1.573-1.594-2.146-2.434
		c-0.115-0.36-0.344-1.021-0.688-1.982c-0.345-0.96-0.688-1.681-1.028-2.162c-0.344,0.963-0.772,1.743-1.287,2.344
		c-0.516,0.604-1.115,0.965-1.802,1.08c-0.229-0.479-0.373-1.02-0.432-1.621c-0.059-0.601-0.059-1.051,0-1.353
		c0.059-0.298,0.146-0.78,0.26-1.44c0.11-0.657,0.172-1.107,0.172-1.353c0-0.239,0-0.42,0-0.541c0-0.118,0-0.208,0-0.271
		c0-0.06,0.024-0.181,0.086-0.358c0.057-0.18,0.086-0.299,0.086-0.36c0-0.06,0.026-0.181,0.086-0.357
		c0.057-0.184,0.111-0.302,0.172-0.36c0.058-0.06,0.143-0.118,0.257-0.181c0.113-0.062,0.199-0.118,0.258-0.183
		c0.059-0.06,0.145-0.091,0.259-0.091c0,0.121,0.144,0.513,0.431,1.172c0.283,0.662,0.569,1.172,0.855,1.532
		c0.283,0.36,0.603,0.661,0.942,0.9c0.112,0,0.313-0.062,0.603-0.183c0.282-0.117,0.483-0.181,0.602-0.181
		c-0.115,0-0.258,0.212-0.43,0.631c-0.172,0.423-0.258,0.693-0.258,0.813c0,0.842,0.398,1.832,1.199,2.974
		c0.801,1.143,1.657,1.954,2.574,2.433l1.028-15.499l-1.028,0.184c-0.229,0.121-0.488,0.27-0.771,0.448
		c-0.287,0.183-0.603,0.359-0.942,0.541c-0.345,0.182-0.574,0.271-0.688,0.271c-0.343,0.242-0.94,0.662-1.802,1.262
		c-0.855,0.604-1.485,0.991-1.887,1.172c-0.402,0.183-0.975,0.425-1.717,0.724c-0.744,0.302-1.459,0.449-2.146,0.449
		c-1.146,0-1.433-0.479-0.856-1.44c0.456-0.839,0.972-1.38,1.544-1.622c-0.458,1.202-0.061,1.504,1.201,0.901
		c0.229,0,0.628-0.184,1.199-0.541c0.571-0.239,1.431-0.749,2.573-1.531c1.145-0.78,2-1.29,2.574-1.532
		c0.228,0,0.569-0.09,1.028-0.271c0.456-0.183,0.826-0.329,1.113-0.45c0.284-0.118,0.541-0.239,0.771-0.36
		c0.345-0.357,0.456-1.2,0.345-2.521c-0.115-1.32-0.345-1.982-0.688-1.982c-0.573,0.121-1.287,0.481-2.146,1.081
		c-0.855,0.604-1.573,0.963-2.146,1.082l1.027-1.082c-0.113,0-0.373,0-0.771,0c-0.4,0-0.658,0-0.771,0
		c-0.113,0-0.314-0.028-0.602-0.09c-0.286-0.063-0.459-0.149-0.516-0.271c-0.061-0.115-0.173-0.271-0.345-0.447
		C396.196,169.958,396.11,169.629,396.11,169.147z M395.423,183.745c-0.345,1.687-0.401,3.063-0.172,4.146
		c0.454-0.479,0.827-0.961,1.113-1.442c0.284-0.479,0.398-0.96,0.346-1.441C396.651,184.528,396.222,184.105,395.423,183.745z
		 M404.86,173.472l4.289-1.265c0-0.118-0.172-0.51-0.516-1.171c-0.345-0.659-0.688-1.229-1.028-1.713
		c-0.344-0.479-0.688-0.779-1.029-0.9c-0.343-0.116-0.659-0.025-0.941,0.271c-0.287,0.302-0.488,0.783-0.603,1.442
		c-0.115,0.658-0.201,1.292-0.258,1.893C404.715,172.633,404.742,173.112,404.86,173.472z M405.372,181.221
		c0.688-0.962,1.603-1.41,2.745-1.354c1.145,0.063,2.315,0.423,3.52,1.082c1.201,0.661,2.085,1.353,2.659,2.072
		c0.343,0.357,0.627,0.721,0.855,1.081c0.229,0.357,0.37,0.812,0.43,1.352c0.058,0.541-0.199,0.873-0.771,0.991
		c-0.343,0.121-0.658,0.031-0.942-0.271c-0.287-0.298-0.572-0.748-0.856-1.352c-0.286-0.6-0.486-0.9-0.603-0.9
		c-0.114,0-0.399-0.209-0.855-0.631c-0.459-0.42-0.771-0.722-0.942-0.898c-0.172-0.184-0.459-0.42-0.857-0.724
		c-0.401-0.299-0.771-0.449-1.114-0.449c-0.343-0.117-0.917-0.092-1.716,0.092C406.115,181.492,405.602,181.464,405.372,181.221z"/>
	<path d="M437.801,169.868c0.229,0.121,0.483,0.181,0.771,0.181c0.284,0,0.569,0,0.856,0c0.284,0,0.602-0.025,0.941-0.091
		c0.346-0.059,0.603-0.118,0.771-0.18c0.173-0.063,0.456-0.209,0.856-0.451c0.398-0.239,0.688-0.389,0.857-0.45
		c0.171-0.06,0.429-0.208,0.771-0.449c0.344-0.238,0.601-0.39,0.771-0.449c0.173-0.062,0.43-0.183,0.772-0.36
		c0.343-0.18,0.627-0.329,0.855-0.45c0.229-0.118,0.398-0.357,0.516-0.721c0.229-0.479,0.344-1.321,0.344-2.523
		c-0.115-0.236-0.229-0.6-0.344-1.081c-0.114-0.479-0.286-0.777-0.516-0.898c-0.229-0.118-0.487-0.36-0.771-0.721
		c-0.286-0.36-0.487-0.659-0.602-0.901c-0.459-0.36-0.459-0.721,0-1.081c0.229-0.239,0.517-0.33,0.856-0.271
		c0.343,0.063,0.688,0.213,1.028,0.449c0.456,0.36,0.856,1.022,1.2,1.982c0.344,0.963,0.742,1.622,1.201,1.979
		c0.569,0.36,1.429,0.634,2.572,0.813s2,0.392,2.573,0.631l-0.857,1.622l-4.633,1.081c-0.114,0.963-0.229,2.374-0.343,4.235
		c-0.115,1.861-0.23,3.271-0.344,4.232c-0.114,0.963-0.2,2.343-0.259,4.146c-0.06,1.803-0.028,3.244,0.086,4.322
		c0.914-0.479,1.803-0.811,2.658-0.988c0.858-0.183,1.828-0.36,2.917-0.54c1.086-0.184,1.975-0.091,2.659,0.27
		c0.799,0.242,1.458,0.783,1.974,1.622c0.517,0.843,0.542,1.688,0.086,2.523c-0.114,0.239-0.229,0.392-0.344,0.447
		c-0.114,0.063-0.459,0.215-1.027,0.451c-0.918,0.481-1.487,0.813-1.717,0.991c-0.229,0.18-0.545,0.332-0.942,0.45
		c-0.401,0.121-0.771,0.211-1.114,0.271c-0.345,0.063-0.66,0.152-0.943,0.271c-0.286,0.121-0.572,0.121-0.855,0
		c-0.287-0.118-0.545-0.299-0.772-0.541c0.345-0.118,0.914-0.329,1.717-0.631c0.8-0.298,1.373-0.603,1.717-0.901
		c0.344-0.298,0.771-0.658,1.286-1.081c0.517-0.419,0.887-0.929,1.115-1.531c-0.46-0.237-0.771-0.389-0.943-0.448
		c-0.172-0.062-0.516-0.183-1.028-0.36c-0.517-0.18-1.002-0.208-1.458-0.09c-0.115,0.242-0.488,0.392-1.115,0.45
		c-0.63,0.063-1.145,0.121-1.544,0.181c-0.401,0.062-0.831,0.242-1.286,0.54c-0.459,0.302-0.803,0.631-1.029,0.991
		c-0.113,0.121-0.172,0.333-0.172,0.631c0,0.302,0,0.662,0,1.082c0,0.422,0,0.751,0,0.991c0,0.603-0.113,1.438-0.344,2.521
		c-0.229,1.081-0.344,1.803-0.344,2.163c-0.229,1.802-0.688,2.821-1.372,3.063c0,0.236-0.114,0.271-0.343,0.09
		c-0.229-0.183-0.373-0.304-0.432-0.36c-0.06-0.062-0.171-0.211-0.344-0.45c-0.172-0.242-0.258-0.423-0.258-0.541
		c-0.458-0.479-1.002-1.32-1.63-2.521c-0.63-1.203-1.061-2.104-1.286-2.704c-0.344-0.479-0.771-0.603-1.287-0.36
		c-0.515,0.242-0.973,0.541-1.372,0.901c-0.4,0.357-0.83,0.357-1.286,0c-0.459-0.36-0.573-0.813-0.344-1.354s0.516-1.02,0.857-1.438
		s0.713-0.901,1.113-1.442c0.398-0.54,0.656-0.929,0.771-1.171c0.112-0.239,0.112-0.84,0-1.803c-0.115-0.96-0.172-1.563-0.172-1.802
		l0.855,2.7h0.172c0.111-0.479,0.398-1.051,0.856-1.712c0.456-0.656,0.771-1.352,0.944-2.07c0.171-0.724,0.257-1.383,0.257-1.982
		c-0.573,0.36-1.347,0.873-2.315,1.532c-0.974,0.662-1.631,1.053-1.974,1.172c-0.802,0.603-1.433,0.842-1.889,0.721
		c-0.458-0.118-0.716-0.42-0.771-0.898c-0.06-0.479,0.086-0.842,0.43-1.081c0.229-0.36,0.714-0.78,1.458-1.265
		c0.742-0.479,1.229-0.898,1.459-1.262c0.455-0.479,0.942-1.02,1.458-1.622c0.517-0.6,0.914-1.106,1.2-1.531
		c0.284-0.42,0.657-1.02,1.115-1.803c0.456-0.78,0.856-1.352,1.201-1.712l-1.544,0.541l1.027-1.442
		c-0.345,0-0.803,0.093-1.373,0.271c-0.571,0.181-1.113,0.36-1.63,0.541c-0.516,0.18-1.004,0.27-1.458,0.27
		c-0.573,0-1.004-0.18-1.287-0.54C437.428,170.769,437.456,170.349,437.801,169.868z M445.007,169.687l1.027,0.358l-4.633,7.933
		c0.112-0.119,0.283-0.24,0.518-0.361c0.229-0.118,0.453-0.18,0.687-0.18c0.229,0,0.398,0,0.515,0c0.571,0,0.914,0.271,1.029,0.811
		c0.112,0.541,0.112,1.056,0,1.532c-0.115,1.323-0.974,3.244-2.573,5.768c-0.229,0.604-0.4,1.021-0.516,1.264
		c-0.114,0.239-0.059,0.662,0.173,1.262c0.688-0.118,1.569-0.479,2.658-1.081c1.086-0.6,1.742-1.2,1.974-1.803
		c0.112-0.36,0.229-0.839,0.345-1.441c0.111-0.6,0.111-1.29,0-2.072c-0.114-0.777-0.173-1.289-0.173-1.529
		c0-0.839,0.112-2.104,0.345-3.784c0.229-1.684,0.368-3.002,0.43-3.965c0.057-0.961-0.029-2.163-0.258-3.604L445.007,169.687z
		 M441.745,189.692c0.455,0.842,0.973,1.803,1.546,2.884c0.569,1.081,1.142,1.861,1.716,2.343l0.855-7.209L441.745,189.692z
		 M448.61,164.822v0.9l1.2-0.36L448.61,164.822z"/>
</g>
<g>
	<g>
		<line fill="none" x1="92.146" y1="33.89" x2="288.171" y2="33.89"/>
	</g>
</g>
<g>
</g>
<g>
</g>
<g>
</g>
<g>
	<path d="M149.814,101.748v-5.156c1.249-2.187,2.109-4.922,2.578-8.203h7.5c-0.938,3.281-1.956,6.017-3.047,8.203h9.375
		c0.312-1.249,0.703-3.201,1.172-5.859c0.312-1.56,0.546-2.732,0.703-3.516h7.734c-0.157,0.938-0.392,2.344-0.703,4.219
		c-0.469,2.344-0.86,4.065-1.172,5.156h13.594v-7.969h6.797v7.969h7.969v5.156h-29.766c-0.626,2.344-1.329,4.534-2.109,6.563h26.719
		v4.922c-2.97,7.346-6.877,12.971-11.719,16.875c3.593,2.659,8.906,4.768,15.938,6.328v4.453
		c-8.595-1.875-15.549-4.219-20.859-7.031c-5.471,2.655-12.502,4.999-21.094,7.031v-4.453c7.185-1.718,12.576-3.827,16.172-6.328
		c-3.596-3.281-6.797-7.577-9.609-12.891c-3.75,6.72-9.69,13.282-17.813,19.688v-5.391c8.591-9.218,14.216-19.138,16.875-29.766
		H149.814z M168.33,113.232l-1.406,2.813h6.563c1.875,4.065,4.219,7.5,7.031,10.313c3.281-2.813,6.248-7.185,8.906-13.125H168.33z"
		/>
	<path d="M208.773,127.529v-4.453h53.906v4.453h-22.266v5.859c0.154,4.999-2.501,7.42-7.969,7.266h-5.859v-4.453h2.578
		c2.498,0.154,3.669-0.86,3.516-3.047v-5.625H208.773z M209.477,93.779v-4.453h52.969v4.453h-16.406v3.75h13.594v7.266
		c0.154,4.688-2.109,6.954-6.797,6.797H211.82V97.529h13.594v-3.75H209.477z M209.477,140.42v-3.984
		c4.841-0.938,8.123-3.281,9.844-7.031h7.5C224.319,135.809,218.537,139.482,209.477,140.42z M213.461,119.326v-4.453h44.531v4.453
		H213.461z M218.617,107.373h6.797v-5.391h-6.797V107.373z M232.211,93.779v3.75h7.031v-3.75H232.211z M232.211,101.982v5.391h7.031
		v-5.391H232.211z M262.211,140.42c-9.064-0.938-14.846-4.61-17.344-11.016h7.266c2.029,3.75,5.391,6.094,10.078,7.031V140.42z
		 M252.836,101.982h-6.797v5.391h4.219c1.875,0,2.732-0.857,2.578-2.578V101.982z"/>
	<path d="M284.608,99.638c-0.157-1.875-0.626-3.669-1.406-5.391h-2.813c-2.19,2.97-5.706,5.002-10.547,6.094v-3.75
		c3.904-1.875,6.248-4.999,7.031-9.375h6.563c-0.157,1.095-0.392,2.032-0.703,2.813h13.828v4.219h-7.5
		c0.78,2.032,1.249,3.831,1.406,5.391H284.608z M310.389,99.404c-0.157-2.029-0.549-3.75-1.172-5.156h-3.281
		c-0.938,1.721-2.813,3.281-5.625,4.688v3.047h21.796v8.438h-6.328v5.625c0.154,4.688-1.956,6.954-6.328,6.797H283.67v3.75h33.984
		v6.328c0.154,4.842-2.189,7.186-7.031,7.031H276.17V110.42h-5.391v-8.438h21.328v-3.047h3.75v-2.344
		c3.593-1.875,5.702-4.999,6.328-9.375h6.563l-0.703,2.813h15.234v4.219h-8.203c0.469,1.563,0.938,3.281,1.406,5.156H310.389z
		 M278.045,106.435v3.75h36.563v-3.75H278.045z M283.67,114.17v4.688h22.734c1.718,0.157,2.498-0.703,2.344-2.578v-2.109H283.67z
		 M310.389,130.81H283.67v4.688h24.141c1.875,0.154,2.732-0.623,2.578-2.344V130.81z"/>
	<path d="M330.207,94.951v-4.688h17.578v4.688h-5.156v13.359h4.688v4.922h-4.688v15.469c1.561-0.312,3.359-0.78,5.391-1.406v4.688
		c-4.533,2.189-10.627,3.75-18.281,4.688v-5.625l5.859-0.938v-16.875h-5.156v-4.922h5.156V94.951H330.207z M349.895,117.217V89.326
		h31.875v20.391c0.154,5.002-2.344,7.5-7.5,7.5h-4.922v5.625h12.891v4.922h-12.891v6.797h15.234v4.453h-37.969v-4.453h15.703v-6.797
		h-12.891v-4.922h12.891v-5.625H349.895z M356.223,94.248v6.328h6.094v-6.328H356.223z M356.223,112.295h6.094v-6.797h-6.094
		V112.295z M375.441,94.248h-6.094v6.328h6.094V94.248z M372.16,112.295c2.344,0,3.436-1.091,3.281-3.281v-3.516h-6.094v6.797
		H372.16z"/>
	<path d="M390.809,138.545v-3.75c5.467-2.187,9.059-5.779,10.781-10.781h7.5C406.898,131.828,400.805,136.67,390.809,138.545z
		 M393.855,121.67v-5.156c6.563-2.344,13.277-5.156,20.156-8.438c-0.158,0-0.469,0-0.938,0c-6.879,0.315-12.656,0.469-17.344,0.469
		v-4.922c5.777-2.187,11.016-4.841,15.703-7.969h-18.281v-5.391h31.172c6.404,0,12.498-0.623,18.281-1.875v5.391
		c-5.783,1.406-11.332,2.032-16.641,1.875h-3.75c-5.004,3.596-9.926,6.251-14.766,7.969c6.246,0,11.402-0.154,15.469-0.469
		c0.311-0.154,0.855-0.469,1.641-0.938c0.938-0.469,2.344-1.406,4.219-2.813h11.25c-10.313,7.5-21.176,13.206-32.578,17.109
		c9.375,0,17.889-0.234,25.547-0.703c-0.316-0.78-0.861-2.029-1.641-3.75c-0.627-1.249-1.096-2.187-1.406-2.813h6.328
		c2.965,5.002,4.922,9.767,5.859,14.297h-6.797c-0.158-0.938-0.393-1.875-0.703-2.813c-4.377,0.157-8.672,0.392-12.891,0.703v12.188
		c0,4.53-2.502,6.797-7.5,6.797h-5.625v-4.688h2.344c2.186,0.154,3.199-0.78,3.047-2.813v-11.25
		C408.387,121.67,401.666,121.67,393.855,121.67z M444.012,138.545c-9.844-1.875-15.861-6.716-18.047-14.531h7.5
		c1.559,4.845,5.074,8.438,10.547,10.781V138.545z"/>
	<path d="M450.939,109.482v-4.922c3.75-5.31,6.248-11.093,7.5-17.344h6.797c-1.875,6.72-4.768,12.502-8.672,17.344
		c2.654,0,4.607-0.077,5.859-0.234c0.779-1.875,1.482-3.827,2.109-5.859h6.328c-2.658,8.284-6.797,15.315-12.422,21.094
		c3.904,0,7.5-0.388,10.781-1.172v4.922c-4.219,0.938-9.924,1.406-17.109,1.406v-5.156c3.281-3.435,5.859-6.874,7.734-10.313
		C456.564,109.563,453.594,109.639,450.939,109.482z M450.939,135.263v-4.922c6.873,0.157,13.201-0.469,18.984-1.875v4.688
		C464.922,134.718,458.594,135.418,450.939,135.263z M469.455,96.826v-4.922h13.828v-4.688h7.734v4.688h13.594v4.922h-16.641
		c-2.813,5.002-6.174,9.141-10.078,12.422c5.156,0,8.748-0.077,10.781-0.234c2.498,0,4.998-0.154,7.5-0.469
		c-0.314-0.623-0.703-1.56-1.172-2.813c-0.783-1.875-1.406-3.281-1.875-4.219h5.859c2.186,4.065,4.139,8.987,5.859,14.766h-6.328
		l-0.938-3.047c-0.314,0.157-0.861,0.234-1.641,0.234c-0.783,0.157-1.33,0.234-1.641,0.234v18.281c0,2.189,1.092,3.281,3.281,3.281
		c2.029,0,3.047-1.092,3.047-3.281v-2.344h4.688v3.75c0.154,4.219-2.033,6.248-6.563,6.094h-3.75
		c-5.002,0.154-7.424-2.032-7.266-6.563v-18.75c-1.406,0.157-2.893,0.234-4.453,0.234v4.922c0.623,10.47-4.611,17.732-15.703,21.797
		v-4.922c6.563-3.593,9.609-9.294,9.141-17.109v-4.453h-1.172h-4.922v-5.391c4.219-4.219,7.266-8.357,9.141-12.422H469.455z"/>
</g>
<g>
</g>
<g>
	<path fill-rule="evenodd" clip-rule="evenodd" fill="#FEFEFE" d="M14.17,41.317c4.684-0.094,4.247,0.445,4.274-4.043
		c0.019-2.937-0.041-5.875,0.025-8.813c0.044-1.973,0.48-2.388,2.6-2.409c4.662-0.045,9.324-0.05,13.984,0.002
		c2.209,0.025,2.666,0.457,2.704,2.514c0.066,3.502,0,7.005,0.03,10.509c0.017,2.031,0.203,2.186,2.413,2.218
		c1.089,0.015,2.179,0.009,3.269,0.001c2.498-0.018,2.576-0.085,2.596-2.347c0.012-1.414,0.002-2.826,0.002-4.238
		c0-8.703,0.002-17.402,0-26.104c-0.001-2.854-0.006-2.854-3.143-2.858c-0.968-0.001-1.937-0.016-2.906,0.006
		c-1.991,0.044-2.205,0.216-2.226,2.044c-0.038,3.107,0.003,6.215-0.017,9.322c-0.019,2.891-0.345,3.199-3.447,3.209
		c-4.358,0.013-8.717,0.03-13.075-0.01c-2.339-0.02-2.757-0.409-2.792-2.582c-0.051-3.275,0.007-6.554-0.024-9.83
		c-0.018-1.982-0.183-2.123-2.271-2.154c-1.453-0.022-2.906,0.008-4.359-0.013C11.022,5.731,12.632,41.347,14.17,41.317z"/>
	<path fill-rule="evenodd" clip-rule="evenodd" fill="#004276" d="M9.579,5.207c2.725,0,5.452,0.042,8.175-0.022
		c1.038-0.023,1.337,0.278,1.326,1.239c-0.052,4.013,0.022,8.027-0.05,12.039c-0.02,1.127,0.341,1.411,1.523,1.396
		c5.086-0.061,10.175-0.061,15.261-0.005c1.107,0.012,1.435-0.236,1.416-1.3c-0.072-4.012,0.008-8.026-0.055-12.039
		c-0.017-1.041,0.283-1.374,1.417-1.333c2.237,0.082,4.482,0.065,6.721,0.007c0.989-0.026,1.363,0.197,1.359,1.204
		c-0.036,11.475-0.031,22.949-0.005,34.422c0.002,0.855-0.204,1.197-1.193,1.167c-2.299-0.064-4.604-0.082-6.902,0
		c-1.147,0.041-1.411-0.318-1.396-1.341c0.061-4.181-0.013-8.366,0.051-12.546c0.017-1.1-0.155-1.573-1.526-1.55
		c-4.584,0.074-8.313,0.084-15.261,0.006c-1.137-0.013-1.423,0.302-1.407,1.336c0.061,4.182-0.041,8.367,0.063,12.547
		c0.033,1.321-0.402,1.619-1.724,1.554c-2.593-0.13-5.194-0.108-7.792-0.148C9.579,29.63,9.579,17.42,9.579,5.207z"/>
	<path fill-rule="evenodd" clip-rule="evenodd" fill="#004276" d="M82.267,28.875c-0.001,3.896-0.042,7.792,0.027,11.686
		c0.02,1.043-0.268,1.375-1.4,1.313c-1.688-0.094-3.388-0.069-5.079-0.007c-0.913,0.033-1.333-0.163-1.232-1.1
		c0.114-1.053-0.278-1.451-1.286-0.638c-4.171,3.359-8.744,2.845-13.227,0.889c-4.947-2.159-7.999-5.892-8.308-11.063
		c-0.518-8.62,6.874-15.199,16.124-14.57c1.985,0.136,3.707,0.925,5.219,2.125c0.352,0.278,0.658,0.76,1.224,0.503
		c0.488-0.221,0.292-0.711,0.255-1.059c-0.102-0.927,0.333-1.156,1.253-1.125c1.691,0.058,3.391,0.09,5.079-0.007
		c1.187-0.066,1.391,0.375,1.375,1.365C82.235,21.084,82.267,24.979,82.267,28.875z"/>
	<path fill-rule="evenodd" clip-rule="evenodd" fill="#004276" d="M120.356,30.487c-3.453,0-6.905,0.027-10.356-0.016
		c-1.052-0.014-1.199,0.232-0.856,1.156c2.053,5.521,10.062,7.082,14.375,2.677c1.029-1.052,1.814-1.341,3.125-0.654
		c0.671,0.352,1.474,0.484,2.218,0.72c2.091,0.663,2.091,0.664,0.697,2.371c-4.045,4.954-11.563,7.016-17.931,4.918
		c-6.109-2.013-10.198-7.337-10.101-13.147c0.129-7.557,7.201-13.591,15.787-13.468c8.233,0.116,14.899,6.323,14.847,13.757
		c-0.007,1.251-0.322,1.779-1.813,1.73c-3.328-0.109-6.661-0.034-9.991-0.034C120.356,30.495,120.356,30.491,120.356,30.487z"/>
	<path fill-rule="evenodd" clip-rule="evenodd" fill="#004276" d="M137.029,33.558c0-1.919,0.057-3.84-0.01-5.759
		c-0.143-4.069,1.658-7.323,4.769-10.015c2.266-1.961,4.831-3.557,7.426-5.118c1.001-0.601,1.398-0.379,1.89,0.495
		c0.757,1.344,1.593,2.654,2.489,3.921c0.504,0.714,0.47,1.073-0.361,1.535c-1.553,0.866-3.035,1.844-4.519,2.813
		c-2.413,1.574-3.516,3.746-3.478,6.503c0.055,4.236-0.017,8.472,0.04,12.708c0.014,1.005-0.227,1.408-1.395,1.351
		c-1.869-0.093-3.751-0.068-5.624-0.011c-0.938,0.029-1.268-0.232-1.245-1.137C137.069,38.416,137.031,35.987,137.029,33.558z"/>
	<path fill-rule="evenodd" clip-rule="evenodd" fill="#014276" d="M96.397,28.949c0,3.896-0.036,7.795,0.024,11.691
		c0.016,1.027-0.287,1.386-1.417,1.34c-1.932-0.08-3.873-0.047-5.809-0.006c-0.864,0.018-1.335-0.131-1.331-1.09
		c0.029-7.963,0.021-15.929,0.008-23.894c-0.002-0.721,0.262-0.99,1.054-0.975c2.057,0.039,4.117,0.063,6.173-0.01
		c1.051-0.036,1.331,0.303,1.319,1.25C96.369,21.153,96.397,25.051,96.397,28.949z"/>
	<path fill-rule="evenodd" clip-rule="evenodd" fill="#024276" d="M92.305,4.535c4.094,0,4.094,0,4.094,3.833
		c0,3.728,0,3.728-4.044,3.729C87.876,12.1,87.876,12.1,87.875,7.9c0-3.364,0-3.364,3.526-3.365
		C91.702,4.535,92.004,4.535,92.305,4.535z"/>
	<path fill-rule="evenodd" clip-rule="evenodd" fill="#FFFFFF" d="M74.762,28.888c-0.004,4.173-3.472,7.483-7.869,7.512
		c-4.499,0.027-8.055-3.291-8.052-7.515c0.003-4.244,3.543-7.541,8.057-7.503C71.329,21.418,74.767,24.7,74.762,28.888z"/>
	<path fill-rule="evenodd" clip-rule="evenodd" fill="#FCFDFD" d="M116.995,26.119c-2.239,0-4.478-0.028-6.716,0.014
		c-1.045,0.019-1.281-0.225-0.82-1.162c1.276-2.595,4.535-4.551,7.787-4.413c3.372,0.143,6.032,1.487,7.635,4.384
		c0.473,0.856,0.294,1.213-0.807,1.192C121.715,26.088,119.354,26.119,116.995,26.119z"/>
	<g>
	</g>
</g>
</svg>
