<?xml version="1.0" encoding="utf-8"?>
<!-- Generator: Adobe Illustrator 16.0.0, SVG Export Plug-In . SVG Version: 6.00 Build 0)  -->
<!DOCTYPE svg PUBLIC "-//W3C//DTD SVG 1.1//EN" "http://www.w3.org/Graphics/SVG/1.1/DTD/svg11.dtd">
<svg version="1.1" id="图层_1" xmlns="http://www.w3.org/2000/svg" xmlns:xlink="http://www.w3.org/1999/xlink" x="0px" y="0px"
	 width="631.34px" height="266.527px" viewBox="0 0 631.34 266.527" enable-background="new 0 0 631.34 266.527"
	 xml:space="preserve">
<g>
	<g>
		<path fill="#C7BF93" d="M243.497,221.154h-21.473c-0.671,0-1.213,0.541-1.213,1.209v21.478c0,12.528,10.156,22.688,22.686,22.688
			c12.53,0,22.688-10.156,22.688-22.688C266.186,231.309,256.029,221.154,243.497,221.154z"/>
		<path fill="#FFFFFF" d="M243.502,227.582c-3.655,0-6.771,2.688-7.336,6.271c-0.535-0.17-1.138-0.254-1.739-0.254
			c-1.617,0-3.099,0.637-4.167,1.711c-1.059,1.063-1.725,2.556-1.725,4.182c0,1.543,0.604,2.961,1.59,4.003l-1.406,1.419
			c-0.604,0.607-1.092,1.313-1.407,2.064l0,0c-0.322,0.778-0.473,1.605-0.473,2.48v1.75c0,0.459,0.139,0.938,0.407,1.317
			c0.301,0.415,0.712,0.698,1.263,0.782c0.041,0,0.092,0,0.124,0h1.351v0.469c0,0.604,0.493,1.088,1.09,1.088h0.025h24.796h0.032
			c0.589,0,1.074-0.484,1.074-1.088v-0.469h1.352c0.037,0,0.087,0,0.135,0c0.54-0.084,0.973-0.367,1.264-0.782
			c0.26-0.384,0.411-0.858,0.411-1.317v-1.75c0-0.875-0.167-1.702-0.481-2.48c-0.312-0.752-0.794-1.457-1.405-2.064l-1.412-1.419
			c0.98-1.042,1.602-2.46,1.602-4.003c0-1.626-0.668-3.115-1.735-4.182c-1.061-1.074-2.55-1.711-4.157-1.711
			c-0.614,0-1.194,0.084-1.757,0.254C250.261,230.267,247.139,227.582,243.502,227.582L243.502,227.582z M240.163,252.697
			L240.163,252.697v-0.943v-0.016l-0.019-0.104v-3.834c0-0.359-0.284-0.652-0.632-0.652c-0.354,0-0.655,0.293-0.655,0.652v2.849
			h-2.793c-0.038-0.063-0.05-0.163-0.05-0.247v-2.313c0-0.816,0.136-1.575,0.428-2.273v-0.008c0.181-0.416,0.408-0.813,0.69-1.217
			l0,0l0.012-0.016l0.019-0.006l0.008-0.017l0.008-0.02c0.176-0.229,0.369-0.438,0.575-0.65l2.328-2.321
			c2.129,1.104,4.707,1.104,6.818,0l2.333,2.321c0.203,0.216,0.4,0.423,0.566,0.65l0.019,0.02v0.017l0.016,0.006l0.015,0.016l0,0
			c0.293,0.399,0.521,0.801,0.691,1.217v0.008c0.286,0.698,0.427,1.457,0.427,2.273v2.313c0,0.084-0.013,0.184-0.044,0.247h-2.792
			v-2.849c0-0.359-0.297-0.652-0.652-0.652c-0.352,0-0.636,0.293-0.636,0.652v3.834l-0.014,0.104v0.016v0.943H240.163
			L240.163,252.697z M238.255,234.993L238.255,234.993c0-2.884,2.345-5.245,5.247-5.245c2.884,0,5.249,2.361,5.249,5.245
			C248.751,241.835,238.255,241.835,238.255,234.993L238.255,234.993z M254.819,252.697L254.819,252.697h-3.14
			c0.408-0.139,0.734-0.408,0.981-0.76c0.317-0.438,0.491-0.997,0.491-1.535v-2.313c0-0.947-0.165-1.86-0.468-2.714
			c0.871-0.017,1.69-0.229,2.434-0.565l1.618,1.607c0.434,0.431,0.742,0.896,0.957,1.391c0.198,0.516,0.294,1.063,0.294,1.646v1.685
			h-1.878v-1.911c0-0.354-0.271-0.652-0.642-0.652c-0.352,0-0.649,0.3-0.649,0.652L254.819,252.697L254.819,252.697z
			 M250.805,236.174L250.805,236.174c0.202-0.104,0.411-0.184,0.63-0.253c0.351-0.112,0.734-0.177,1.132-0.177
			c1.021,0,1.958,0.43,2.629,1.097c0.674,0.681,1.102,1.604,1.102,2.647c0,1.02-0.427,1.955-1.102,2.638v-0.007
			c-0.671,0.68-1.606,1.088-2.629,1.088c-0.281,0-0.521-0.006-0.753-0.054c-0.149-0.046-0.306-0.085-0.458-0.138
			c-0.191-0.221-0.387-0.445-0.597-0.651l0,0l-2.073-2.085l0.043-0.039l0,0l0,0c0.972-0.984,1.644-2.195,1.966-3.516l0.016-0.043
			v-0.025v-0.008l0.019-0.031l0.06-0.306v-0.019v-0.021l0.009-0.029L250.805,236.174L250.805,236.174z M232.18,252.697
			L232.18,252.697v-3.469c0-0.354-0.301-0.652-0.658-0.652c-0.354,0-0.646,0.3-0.646,0.652v1.911h-1.869v-1.685
			c0-0.583,0.092-1.135,0.298-1.646l0,0l0,0c0.21-0.49,0.522-0.96,0.959-1.391l1.618-1.607c0.738,0.336,1.558,0.553,2.431,0.565
			c-0.308,0.854-0.458,1.767-0.458,2.715v2.312c0,0.538,0.167,1.098,0.477,1.535c0.244,0.352,0.585,0.621,0.979,0.76H232.18
			L232.18,252.697z M236.186,236.174L236.186,236.174l0.012,0.07v0.029l0.02,0.021v0.019l0.053,0.306l0.01,0.031v0.008l0.009,0.025
			l0.005,0.043c0.333,1.316,0.996,2.527,1.966,3.516l0,0l0.052,0.039l-2.079,2.085c-0.211,0.206-0.414,0.435-0.597,0.651
			c-0.137,0.053-0.306,0.092-0.459,0.138c-0.221,0.048-0.462,0.054-0.745,0.054c-1.02,0-1.956-0.408-2.631-1.088v0.007
			c-0.673-0.683-1.092-1.618-1.092-2.638c0-1.043,0.418-1.971,1.092-2.647c0.675-0.667,1.611-1.097,2.631-1.097
			c0.406,0,0.789,0.063,1.127,0.177C235.783,235.99,235.985,236.068,236.186,236.174L236.186,236.174z"/>
	</g>
	<g>
		<path fill="#A0A1A1" d="M448.438,221.154h-21.477c-0.673,0-1.211,0.541-1.211,1.209v21.478c0,12.528,10.155,22.688,22.688,22.688
			c12.528,0,22.685-10.156,22.685-22.688C471.119,231.309,460.967,221.154,448.438,221.154z"/>
		<path fill="#FFFFFF" d="M436.966,251.418c-0.364,0-0.662-0.305-0.662-0.674c0-0.371,0.298-0.662,0.662-0.662h1.164v-12.037h-2.328
			c-0.614,0-1.104-0.496-1.104-1.107c0-0.465,0.283-0.877,0.699-1.033l12.535-6.277c0.328-0.141,0.695-0.141,0.987,0h0.02
			l12.624,6.326c0.55,0.275,0.771,0.945,0.483,1.48c-0.188,0.391-0.58,0.604-0.982,0.604v0.01h-2.332v12.037h1.177
			c0.367,0,0.659,0.291,0.659,0.662c0,0.369-0.292,0.674-0.659,0.674L436.966,251.418L436.966,251.418z M440.349,238.045
			L440.349,238.045v12.037h3.903v-12.037H440.349L440.349,238.045z M446.488,238.045L446.488,238.045v12.037h3.9v-12.037H446.488
			L446.488,238.045z M452.6,238.045L452.6,238.045v12.037h3.914v-12.037H452.6L452.6,238.045z M456.379,235.822L456.379,235.822
			l-7.946-3.975l-7.948,3.975H456.379L456.379,235.822z M435.802,254.277L435.802,254.277c-0.614,0-1.104-0.498-1.104-1.117
			c0-0.605,0.485-1.104,1.104-1.104h25.266c0.611,0,1.11,0.491,1.11,1.104c0,0.619-0.499,1.117-1.11,1.117H435.802L435.802,254.277z
			"/>
	</g>
	<g>
		<path fill="#B2DBC7" d="M311.811,221.154h-21.478c-0.664,0-1.207,0.541-1.207,1.209v21.478c0,12.528,10.151,22.688,22.685,22.688
			c12.534,0,22.688-10.156,22.688-22.688C334.496,231.309,324.342,221.154,311.811,221.154z"/>
		<path fill="#FFFFFF" d="M298.882,248.195h0.012h5.363c0.329,0,0.58,0.252,0.58,0.57v0.016v4.93c0,0.297-0.25,0.563-0.58,0.563
			h-0.013h-5.362c-0.313,0-0.58-0.27-0.58-0.563v-0.025v-4.916C298.302,248.447,298.571,248.195,298.882,248.195L298.882,248.195z
			 M313.061,234.982L313.061,234.982c-1.357,1.438-2.914,2.701-4.632,3.746c-2.393,1.455-5.128,2.473-8.065,2.92
			c-0.532,0.066-1.006-0.285-1.096-0.799c-0.073-0.545,0.285-1.021,0.801-1.104c2.697-0.409,5.187-1.331,7.375-2.665
			c1.718-1.025,3.25-2.314,4.563-3.787h-4.015c-0.529,0-0.946-0.421-0.946-0.949c0-0.521,0.417-0.948,0.946-0.948h6.02
			c0.525,0,0.962,0.429,0.962,0.948v0.025v5.987c0,0.532-0.438,0.961-0.962,0.961c-0.533,0-0.951-0.429-0.951-0.961V234.982
			L313.061,234.982z M317.731,235.191L317.731,235.191h0.026h5.354c0.322,0,0.572,0.264,0.572,0.563v0.027v17.928
			c0,0.297-0.25,0.563-0.572,0.563h-0.018h-5.364c-0.312,0-0.576-0.27-0.576-0.563v-0.025v-17.93
			C317.155,235.455,317.421,235.191,317.731,235.191L317.731,235.191z M322.537,236.34L322.537,236.34h-4.229v16.787h4.229V236.34
			L322.537,236.34z M308.307,241.691L308.307,241.691c-0.313,0-0.575,0.256-0.575,0.568c0,3.813,0,7.615,0,11.422
			c0,0.015,0,0.015,0,0.025c0,0.297,0.264,0.563,0.575,0.563c1.792,0,3.586,0,5.376,0c0,0,0,0,0.017,0
			c0.313,0,0.565-0.27,0.565-0.563c0-3.814,0-7.62,0-11.436v-0.018c0-0.313-0.253-0.566-0.565-0.566c-1.793,0-3.586,0-5.379,0
			C308.319,241.691,308.319,241.691,308.307,241.691L308.307,241.691z M313.106,242.836L313.106,242.836c0,3.434,0,6.859,0,10.291
			c-1.403,0-2.815,0-4.227,0c0-3.432,0-6.857,0-10.291C310.288,242.836,311.7,242.836,313.106,242.836L313.106,242.836z
			 M303.681,249.35L303.681,249.35h-4.229v3.773h4.229V249.35L303.681,249.35z"/>
	</g>
	<g>
		<path fill="#A1D9F6" d="M380.119,221.154H358.64c-0.665,0-1.205,0.541-1.205,1.209v21.478c0,12.528,10.158,22.688,22.685,22.688
			c12.533,0,22.687-10.156,22.687-22.688C402.806,231.309,392.655,221.154,380.119,221.154z"/>
		<path fill="#FFFFFF" d="M369.535,230.103h0.032h21.138c0.603,0,1.093,0.484,1.093,1.109v0.02v26.413
			c0,0.626-0.49,1.108-1.093,1.108h-0.03h-21.14c-0.602,0-1.094-0.482-1.094-1.108v-0.018v-26.415
			C368.444,230.592,368.938,230.103,369.535,230.103L369.535,230.103z M373.944,233.344L373.944,233.344
			c0.539,0,1.021,0.221,1.362,0.563c0.346,0.345,0.563,0.828,0.563,1.364v0.841h2.343v-0.841c0-0.536,0.218-1.021,0.559-1.364
			c0.349-0.345,0.827-0.563,1.365-0.563c0.519,0,0.994,0.221,1.348,0.563c0.345,0.345,0.564,0.828,0.564,1.364v0.841h2.324v-0.841
			c0-0.536,0.223-1.021,0.564-1.364c0.346-0.345,0.828-0.563,1.359-0.563c0.53,0,1.01,0.221,1.354,0.563
			c0.354,0.345,0.566,0.828,0.566,1.364v0.841h1.377v-3.802h-18.953v3.802h1.385v-0.841c0-0.536,0.222-1.021,0.563-1.364
			C372.938,233.562,373.421,233.344,373.944,233.344L373.944,233.344z M389.596,237.429L389.596,237.429h-1.377v0.835
			c0,0.529-0.216,1.01-0.566,1.354c-0.345,0.354-0.82,0.566-1.354,0.566c-0.531,0-1.018-0.212-1.358-0.566
			c-0.347-0.344-0.565-0.82-0.565-1.354v-0.835h-2.324v0.835c0,0.529-0.224,1.01-0.564,1.354c-0.354,0.354-0.829,0.566-1.348,0.566
			c-0.538,0-1.021-0.212-1.364-0.566c-0.342-0.344-0.56-0.82-0.56-1.354v-0.835h-2.343v0.835c0,0.529-0.218,1.01-0.563,1.354
			c-0.344,0.354-0.823,0.566-1.362,0.566c-0.521,0-1.008-0.212-1.354-0.566c-0.344-0.344-0.563-0.82-0.563-1.354v-0.835h-1.385
			v6.335h1.385v-0.838c0-0.521,0.222-1.014,0.563-1.354c0.347-0.342,0.83-0.563,1.354-0.563c0.539,0,1.021,0.223,1.362,0.563
			c0.346,0.342,0.563,0.831,0.563,1.354v0.838h2.343v-0.838c0-0.521,0.218-1.014,0.56-1.354c0.348-0.342,0.826-0.563,1.364-0.563
			c0.519,0,0.994,0.223,1.348,0.563c0.345,0.342,0.564,0.831,0.564,1.354v0.838h7.55L389.596,237.429L389.596,237.429z
			 M370.643,245.098L370.643,245.098v6.324h7.567v-0.837c0-0.528,0.218-1.018,0.559-1.345c0.349-0.346,0.827-0.564,1.365-0.564
			c0.519,0,0.994,0.223,1.347,0.564c0.346,0.327,0.565,0.813,0.565,1.345v0.837h2.324v-0.837c0-0.528,0.223-1.018,0.564-1.345
			c0.346-0.346,0.828-0.564,1.359-0.564c0.53,0,1.01,0.223,1.354,0.564c0.354,0.327,0.566,0.813,0.566,1.345v0.837h1.377v-6.324
			h-7.55v0.836c0,0.521-0.224,1.008-0.565,1.354c-0.354,0.345-0.828,0.57-1.347,0.57c-0.538,0-1.021-0.229-1.365-0.57
			c-0.341-0.346-0.561-0.831-0.561-1.354v-0.836h-2.341v0.836c0,0.521-0.219,1.008-0.563,1.354c-0.344,0.345-0.824,0.57-1.362,0.57
			c-0.521,0-1.009-0.229-1.354-0.57c-0.346-0.346-0.564-0.831-0.564-1.354v-0.836H370.643L370.643,245.098z M370.643,252.75
			L370.643,252.75v3.814h18.953v-3.814h-1.377v0.854c0,0.521-0.216,1.01-0.566,1.354c-0.345,0.344-0.82,0.559-1.354,0.559
			c-0.531,0-1.018-0.215-1.358-0.559c-0.347-0.344-0.565-0.83-0.565-1.354v-0.854h-2.324v0.854c0,0.521-0.224,1.01-0.564,1.354
			c-0.354,0.344-0.829,0.559-1.348,0.559c-0.538,0-1.021-0.215-1.364-0.559c-0.342-0.344-0.56-0.83-0.56-1.354v-0.854H370.643
			L370.643,252.75z M374.365,234.846L374.365,234.846c-0.103-0.11-0.239-0.183-0.422-0.183c-0.157,0-0.312,0.068-0.413,0.183
			c-0.119,0.104-0.175,0.25-0.175,0.426v1.474v0.021v0.021v1.479c0,0.166,0.056,0.313,0.175,0.418
			c0.104,0.123,0.256,0.187,0.413,0.187c0.185,0,0.319-0.063,0.422-0.187c0.117-0.104,0.188-0.252,0.188-0.418v-1.479v-0.021v-0.021
			v-1.474C374.555,235.096,374.483,234.953,374.365,234.846L374.365,234.846z M380.547,234.846L380.547,234.846
			c-0.104-0.11-0.262-0.183-0.413-0.183c-0.183,0-0.326,0.068-0.438,0.183c-0.108,0.104-0.181,0.25-0.181,0.426v1.474v0.021v0.021
			v1.479c0,0.166,0.068,0.313,0.181,0.418c0.108,0.123,0.256,0.187,0.438,0.187c0.151,0,0.312-0.063,0.413-0.187
			c0.104-0.104,0.175-0.252,0.175-0.418v-1.479v-0.021v-0.021v-1.474C380.722,235.096,380.651,234.953,380.547,234.846
			L380.547,234.846z M374.365,242.496L374.365,242.496c-0.103-0.1-0.239-0.17-0.422-0.17c-0.157,0-0.312,0.07-0.413,0.17
			c-0.119,0.111-0.175,0.271-0.175,0.436v1.479v0.024v0.016v1.486c0,0.151,0.056,0.316,0.175,0.413
			c0.104,0.114,0.256,0.182,0.413,0.182c0.185,0,0.319-0.063,0.422-0.182c0.117-0.097,0.188-0.262,0.188-0.413v-1.486v-0.016v-0.024
			v-1.479C374.555,242.764,374.483,242.607,374.365,242.496L374.365,242.496z M380.547,250.166L380.547,250.166
			c-0.104-0.105-0.262-0.17-0.413-0.17c-0.183,0-0.326,0.063-0.438,0.17c-0.108,0.117-0.181,0.258-0.181,0.423v1.487v0.016v0.024
			v1.485c0,0.162,0.068,0.306,0.181,0.422c0.108,0.116,0.256,0.162,0.438,0.162c0.151,0,0.312-0.046,0.413-0.162
			c0.104-0.116,0.175-0.26,0.175-0.422v-1.485v-0.024v-0.016v-1.487C380.722,250.424,380.651,250.283,380.547,250.166
			L380.547,250.166z M386.714,234.846L386.714,234.846c-0.106-0.11-0.259-0.183-0.416-0.183c-0.17,0-0.316,0.068-0.42,0.183
			c-0.111,0.104-0.176,0.25-0.176,0.426v1.474v0.021v0.021v1.479c0,0.166,0.063,0.313,0.176,0.418
			c0.104,0.123,0.25,0.187,0.42,0.187c0.157,0,0.31-0.063,0.416-0.187c0.114-0.104,0.181-0.252,0.181-0.418v-1.479v-0.021v-0.021
			v-1.474C386.895,235.096,386.828,234.953,386.714,234.846L386.714,234.846z M380.547,242.496L380.547,242.496
			c-0.104-0.1-0.262-0.17-0.413-0.17c-0.183,0-0.326,0.07-0.438,0.17c-0.108,0.111-0.181,0.271-0.181,0.436v1.479v0.024v0.016v1.486
			c0,0.151,0.068,0.316,0.181,0.413c0.108,0.114,0.256,0.182,0.438,0.182c0.151,0,0.312-0.063,0.413-0.182
			c0.104-0.097,0.175-0.262,0.175-0.413v-1.486v-0.016v-0.024v-1.479C380.722,242.764,380.651,242.607,380.547,242.496
			L380.547,242.496z M386.714,250.166L386.714,250.166c-0.106-0.105-0.259-0.17-0.416-0.17c-0.17,0-0.316,0.063-0.42,0.17
			c-0.111,0.117-0.176,0.258-0.176,0.423v1.487v0.016v0.024v1.485c0,0.162,0.063,0.306,0.176,0.422
			c0.104,0.116,0.25,0.162,0.42,0.162c0.157,0,0.31-0.046,0.416-0.162c0.114-0.116,0.181-0.26,0.181-0.422v-1.485v-0.024v-0.016
			v-1.487C386.895,250.424,386.828,250.283,386.714,250.166L386.714,250.166z"/>
	</g>
</g>
<line fill="none" stroke="#231815" stroke-width="1.0914" stroke-miterlimit="10" x1="36.47" y1="184.325" x2="202.78" y2="184.325"/>
<line fill="none" stroke="#231815" stroke-width="1.0914" stroke-miterlimit="10" x1="466.837" y1="184.325" x2="628.34" y2="184.325"/>
<g>
	<path stroke="#231815" stroke-width="0.25" stroke-miterlimit="10" d="M63.19,147.383"/>
	<path stroke="#231815" stroke-width="0.25" stroke-miterlimit="10" d="M132.236,147.133"/>
	<path stroke="#231815" stroke-width="0.25" stroke-miterlimit="10" d="M190.158,147.133"/>
</g>
<g>
	<path d="M217.332,168.065c0.456,0,1-0.148,1.63-0.45c0.627-0.299,1.373-0.721,2.229-1.262c0.858-0.54,1.399-0.87,1.63-0.991
		c0.571-0.36,1.345-0.721,2.316-1.081c0.97-0.36,1.63-0.6,1.973-0.721c0.229-0.239,0.742-0.541,1.544-0.901
		c0.801-0.36,1.373-0.659,1.718-0.901c0.343-0.236,0.828-0.419,1.458-0.538c0.627-0.117,1.228-0.238,1.802-0.359
		c1.716-0.239,3.314,0.422,4.804,1.979c0.571,0.604,0.857,1.202,0.857,1.805s-0.458,0.898-1.373,0.898
		c0,1.323-0.061,4.086-0.171,8.29c-0.115,4.207-0.115,7.451,0,9.731c0,0.479,0.228,2.014,0.687,4.596
		c0.456,2.586,0.517,4.596,0.171,6.038c-1.027,0.118-2.26-0.662-3.688-2.343c-1.434-1.685-2.26-3.123-2.488-4.325
		c0.688,0.36,1.544,1.053,2.574,2.072c1.029,1.021,1.601,1.649,1.716,1.893c0-1.561-0.115-3.754-0.343-6.578
		c-0.23-2.819-0.343-4.956-0.343-6.396c0-0.839,0.086-2.492,0.257-4.956c0.172-2.461,0.197-4.533,0.086-6.218
		c-0.115-1.684-0.458-3.244-1.029-4.688c-0.229,0-0.601,0-1.115,0c-0.514,0-0.831,0-0.942,0c-3.433,0.842-6.809,2.343-10.123,4.506
		c-0.23,0.121-0.603,0.301-1.115,0.54c-0.515,0.242-1.002,0.451-1.458,0.631c-0.458,0.184-0.745,0.451-0.858,0.813
		c-0.113,0.242-0.059,0.721,0.173,1.438c0.229,0.724,0.344,1.202,0.344,1.442c-0.23,1.081-0.431,2.225-0.602,3.424
		c-0.172,1.202-0.4,2.464-0.687,3.784c-0.287,1.324-0.544,2.405-0.772,3.244c0,0.121-0.027,0.451-0.086,0.991
		c-0.059,0.541-0.114,0.988-0.171,1.352c-0.059,0.36-0.201,0.722-0.429,1.082c-0.23,0.36-0.458,0.54-0.688,0.54
		c-0.458,0-0.771-0.149-0.942-0.45c-0.171-0.299-0.257-0.749-0.257-1.352c-0.115-0.724-0.029-1.712,0.257-2.977
		c0.284-1.262,0.429-2.132,0.429-2.61c0.456,0.239,0.627,0.659,0.515,1.262h0.172c0.112-0.603,0.344-1.532,0.688-2.794
		c0.344-1.262,0.627-2.461,0.858-3.604c0.228-1.141,0.282-2.132,0.171-2.974c0-0.36-0.23-0.839-0.688-1.441
		C217.56,168.908,217.332,168.426,217.332,168.065z M216.818,180.861v0.721V180.861z M229.171,166.263
		c0.456-0.842,0.944-1.199,1.458-1.081c0.515,0.119,0.97,0.422,1.373,0.897c0.397,0.482,0.657,1.022,0.771,1.622
		c0.456,1.563,0.399,3.546-0.171,5.947c-0.115,0.121-0.257,0.423-0.429,0.899c-0.171,0.48-0.316,0.872-0.429,1.174
		c-0.115,0.301-0.174,0.568-0.174,0.811c0.113,0.481,0.345,0.991,0.688,1.532c0.343,0.54,0.713,0.963,1.115,1.262
		c0.397,0.301,0.686,0.661,0.856,1.081c0.171,0.422,0.085,0.991-0.257,1.712c-0.574-0.118-1.229-0.688-1.973-1.712
		c-0.745-1.02-1.23-1.65-1.458-1.893c-0.343,1.081-1.146,2.19-2.402,3.334c-1.26,1.144-2.346,1.352-3.26,0.631
		c-0.23-0.36-0.402-0.991-0.515-1.896c-0.116-0.897-0.174-1.409-0.174-1.528h-0.171c-0.229,0.603-0.572,1.23-1.027,1.893
		c-0.458,0.661-0.975,1.233-1.544,1.712c-0.23,0.242-0.603,0.332-1.115,0.271c-0.517-0.063-0.772-0.392-0.772-0.991
		c0.688,0.121,1.458-0.33,2.316-1.354c0.855-1.019,1.171-1.892,0.941-2.609c-0.229-0.961-1.088-1.982-2.572-3.064
		c0.343-1.199,1.373-0.897,3.088,0.901l0.343,0.357c0.229-0.96,0.429-1.771,0.601-2.433c0.173-0.659,0.198-1.442,0.088-2.343
		c-0.116-0.901-0.345-1.592-0.688-2.073v-0.36c0.799-0.236,1.373-0.146,1.716,0.271c0.343,0.423,0.517,1.021,0.517,1.803
		s-0.061,1.531-0.173,2.252c-0.114,0.725-0.229,1.383-0.343,1.982c-0.343,0.722-0.515,1.322-0.515,1.803
		c0,0.121,0.142,0.392,0.429,0.812c0.284,0.425,0.485,0.754,0.603,0.99v2.344h-1.029c0.571,0.48,1.085,0.604,1.544,0.359
		c0.456-0.239,0.914-0.658,1.373-1.261c0.456-0.603,0.829-1.143,1.115-1.622c0.284-0.479,0.542-0.961,0.771-1.442l-3.431-2.343
		l-0.343-0.54c0.799-0.359,1.569-0.42,2.314-0.181c0.742,0.242,1.343,0.721,1.801,1.438c0.688-0.6,1.144-1.62,1.373-3.063
		c0.229-1.441,0.172-2.793-0.171-4.057C230.886,167.255,230.2,166.506,229.171,166.263z"/>
	<path d="M264.171,162.299c0.915-0.236,1.571-0.115,1.973,0.36c0.399,0.481,0.485,1.146,0.257,1.982
		c-0.686,2.645-1.831,5.105-3.431,7.39c0.571,0,0.97,0.211,1.201,0.63c0.228,0.423,0.258,0.991,0.086,1.713
		c-0.171,0.724-0.373,1.382-0.603,1.982c-0.229,0.603-0.515,1.23-0.856,1.892c-0.343,0.662-0.517,1.054-0.517,1.172
		c0.345,0.121,0.657,0.271,0.944,0.45c0.284,0.181,0.456,0.423,0.516,0.721c0.057,0.305,0.112,0.572,0.172,0.813
		c0.057,0.242,0.057,0.571,0,0.991c-0.061,0.422-0.115,0.752-0.172,0.988c-0.06,0.242-0.146,0.571-0.258,0.991
		c-0.113,0.422-0.229,0.752-0.343,0.991c0.688-0.6,1.399-1.803,2.146-3.604c0.741-1.803,1.458-3.003,2.145-3.604
		c0,1.441-0.287,2.884-0.857,4.325c-0.573,1.439-1.347,3.036-2.315,4.773c-0.973,1.743-1.689,2.977-2.146,3.694
		c-1.26,3.002-2.29,3.965-3.088,2.884c0-0.121-0.027-0.302-0.086-0.541c-0.059-0.241-0.059-0.513,0-0.811
		c0.059-0.302,0.172-0.572,0.343-0.813c0.174-0.24,0.284-0.51,0.345-0.811c0.056-0.299,0.142-0.51,0.257-0.631
		c0-0.118,0.198-0.631,0.601-1.532c0.399-0.901,0.657-1.532,0.772-1.895c0.112-0.358,0.284-0.898,0.515-1.62
		c0.229-0.724,0.37-1.382,0.43-1.982c0.057-0.6,0.026-1.199-0.087-1.802c-0.113,0.242-0.4,0.603-0.856,1.081
		c-0.458,0.479-0.888,0.933-1.287,1.352c-0.402,0.423-0.772,0.631-1.115,0.631c-0.802,0-0.746-0.777,0.171-2.343
		c0.914-1.44,1.431-2.281,1.544-2.521c0.112-0.239,0.37-0.658,0.772-1.264c0.398-0.601,0.627-1.141,0.686-1.622
		c0.059-0.479,0.144-0.93,0.258-1.352c0.112-0.42,0.173-0.93,0.173-1.532c-0.574,0.242-1.434,0.662-2.574,1.262
		c-1.716,1.081-2.86,1.386-3.433,0.901c-0.114-0.119-0.114-0.42,0-0.901c0.229-0.236,0.57-0.541,1.029-0.898
		c0.456-0.36,1.029-0.749,1.716-1.171c0.688-0.42,1.085-0.631,1.201-0.631c1.257-0.843,2.43-2.465,3.519-4.866
		C265,165.123,265.086,163.38,264.171,162.299z M277.554,195.639c0.571,0.115,1.171,0,1.801-0.36c0.627-0.36,1.257-0.963,1.89-1.802
		c0.627-0.846,1.142-1.563,1.543-2.163c0.397-0.603,0.714-1.199,0.943-1.802c0.913-1.563,1.085-2.645,0.515-3.244
		c-0.343-0.36-0.688-0.541-1.028-0.541s-0.688,0.121-1.028,0.357c-0.344,0.242-0.66,0.481-0.941,0.724
		c-0.287,0.239-0.631,0.541-1.03,0.898c-0.402,0.36-0.659,0.541-0.772,0.541c-0.113,0.121-0.257,0.211-0.429,0.271
		c-0.172,0.062-0.343,0.148-0.515,0.27s-0.316,0.121-0.431,0c-0.113-0.118-0.229-0.298-0.343-0.54c0-0.118,0.086-0.33,0.257-0.631
		c0.173-0.299,0.399-0.659,0.688-1.081c0.284-0.42,0.429-0.688,0.429-0.812c0.915-2.042,1.772-4.267,2.574-6.668
		c0.343-1.563,0.229-2.645-0.343-3.244c-0.345-0.479-0.917-0.45-1.716,0.09c-0.803,0.541-1.373,1.112-1.717,1.712
		c-0.572,1.203-1.174,2.884-1.802,5.047c-0.63,2.162-1.174,3.784-1.63,4.866c-0.23,0.603-0.373,0.991-0.429,1.171
		c-0.061,0.181-0.172,0.36-0.345,0.541c-0.171,0.18-0.285,0.332-0.343,0.45c-0.059,0.121-0.201,0.242-0.429,0.358
		c-0.23,0.12-0.402,0.12-0.515,0c-0.458-0.116-1.03-0.42-1.718-0.899c-0.458-0.36-0.831-0.689-1.113-0.991
		c-0.287-0.298-0.431-0.63-0.431-0.991c0-0.357-0.027-0.688-0.085-0.989c-0.059-0.3,0.058-0.657,0.345-1.08
		c0.282-0.422,0.455-0.749,0.515-0.991c0.056-0.239,0.257-0.631,0.6-1.171c0.345-0.541,0.627-0.87,0.858-0.991
		c0.571-0.961,1.485-2.073,2.745-3.335c1.257-1.261,2.115-2.19,2.574-2.793c0.111-0.239,0.282-0.568,0.515-0.991
		c0.228-0.42,0.37-0.721,0.429-0.901c0.058-0.18,0.171-0.539,0.343-1.079c0.174-0.541,0.259-0.869,0.259-0.99
		c0.687-1.805,0.971-2.942,0.856-3.424c0-0.479-0.145-0.749-0.429-0.813c-0.287-0.059-0.574-0.028-0.858,0.09
		c-0.287,0.121-0.572,0.302-0.856,0.541c-0.287,0.242-0.544,0.423-0.772,0.541c-0.343,0.604-0.771,1.202-1.287,1.802
		c-0.515,0.604-1.059,1.414-1.63,2.437c-0.573,1.021-1.027,1.651-1.373,1.892c-0.801,1.324-1.431,1.563-1.887,0.724
		c-0.115-0.36,0-0.87,0.343-1.531c0.343-0.659,0.799-1.411,1.373-2.253c0.571-0.839,0.914-1.32,1.029-1.441
		c1.601-3.002,2.458-5.407,2.574-7.209c0-0.238-0.201-0.659-0.603-1.262c-0.4-0.602-0.544-1.081-0.429-1.441
		c0.456-0.479,0.97-0.479,1.544,0c0.571,0.481,0.914,0.963,1.029,1.441c0.111,0.721,0.142,1.262,0.086,1.622
		c-0.061,0.357-0.201,0.873-0.431,1.531c-0.229,0.659-0.343,1.172-0.343,1.529c0.456-0.357,1.058-0.6,1.801-0.721
		c0.743-0.118,1.399-0.028,1.975,0.271c0.57,0.302,0.856,0.871,0.856,1.713s-0.257,2.069-0.771,3.691
		c-0.517,1.622-0.772,2.613-0.772,2.977c0.456-0.36,1-0.568,1.63-0.632c0.628-0.061,1.229,0.092,1.802,0.449
		c0.57,0.36,0.856,0.9,0.856,1.622c0.113,0.842,0.057,1.712-0.171,2.612c-0.229,0.9-0.573,2.045-1.029,3.425
		c-0.458,1.383-0.687,2.193-0.687,2.435c0.57-0.359,1.201-0.512,1.887-0.449c0.688,0.062,1.344,0.357,1.974,0.898
		c0.627,0.54,0.887,1.171,0.771,1.895c-0.229,2.645-1.887,5.522-4.976,8.648c-0.574,0.724-1.348,1.173-2.316,1.354
		C278.039,196.991,277.554,196.599,277.554,195.639z M275.838,179.42c-0.917,0.36-1.887,1.202-2.917,2.523
		c-1.03,1.323-1.716,2.464-2.061,3.424c-0.229,0.604-0.257,1.233-0.085,1.893c0.173,0.661,0.657,0.991,1.458,0.991
		c0.113,0,0.229-0.025,0.345-0.091c0.111-0.059,0.228-0.18,0.343-0.36c0.112-0.18,0.198-0.326,0.257-0.447
		c0.056-0.118,0.142-0.42,0.257-0.901C274.122,184.646,274.921,182.302,275.838,179.42z"/>
	<path d="M307.922,166.083c0.11,0,0.397,0.063,0.855,0.184c0.456,0.119,0.799,0.181,1.028,0.181c0.571-0.24,1.144-0.451,1.717-0.631
		c0.57-0.184,1.229-0.479,1.973-0.901c0.743-0.42,1.229-0.688,1.459-0.812c1.144-0.603,1.771-0.54,1.889,0.181
		c0.345,0.481,0.058,1.262-0.856,2.343c-1.373,1.924-2.118,3.365-2.229,4.325c0.688-0.239,1.143-0.118,1.372,0.36
		s0.111,1.021-0.345,1.622c-0.343,0.479-0.974,1.352-1.887,2.61c-0.917,1.265-1.604,2.253-2.061,2.977
		c0.456-0.118,0.942-0.298,1.459-0.54c0.516-0.24,1.056-0.42,1.63-0.541c0.568-0.118,1.057-0.09,1.458,0.09
		c0.397,0.181,0.713,0.693,0.941,1.532c0,0.357-0.146,0.963-0.429,1.802c-0.287,0.842-0.43,1.324-0.43,1.442
		c0,0.239-0.114,0.871-0.344,1.892s-0.372,1.685-0.431,1.982c-0.06,0.302-0.229,0.898-0.516,1.803
		c-0.287,0.898-0.544,1.532-0.771,1.893c-0.229,0.36-0.572,0.813-1.028,1.354c-0.458,0.54-0.975,0.988-1.544,1.352h-0.171
		c-0.46-0.357-1.287-1.054-2.488-2.072c-1.201-1.02-2.146-1.949-2.831-2.794c-0.688-0.839-1.2-1.858-1.544-3.063
		c0.688,0.242,1.373,0.752,2.06,1.531c0.688,0.78,1.344,1.529,1.976,2.253c0.627,0.721,1.343,1.262,2.146,1.622
		c0.455,0,0.827-0.118,1.114-0.36c0.284-0.239,0.516-0.479,0.688-0.721c0.171-0.239,0.369-0.659,0.602-1.265
		c0.569-1.317,1-2.729,1.287-4.232c0.282-1.501,0.313-2.854,0.086-4.058c-0.345,0.121-0.718,0.304-1.115,0.541
		c-0.401,0.242-0.744,0.45-1.028,0.631c-0.287,0.183-0.63,0.425-1.027,0.724c-0.402,0.301-0.745,0.54-1.029,0.721
		c-0.286,0.18-0.545,0.45-0.771,0.813c-0.688,0.721-1.199,1.021-1.544,0.898c-0.688-0.479-0.688-1.262,0-2.343
		c2.061-3.123,3.262-5.046,3.604-5.768c-0.114,0.118-0.372,0.333-0.771,0.631c-0.4,0.302-0.716,0.479-0.942,0.541
		c-0.229,0.062-0.486,0.211-0.771,0.447c-0.287,0.242-0.602,0.451-0.943,0.634c-0.344,0.181-0.687,0.333-1.028,0.448
		c-0.458,0-0.888-0.091-1.285-0.271c-0.402-0.181-0.488-0.569-0.259-1.172c0-0.118,0.11-0.208,0.345-0.271
		c0.228-0.059,0.627-0.09,1.199-0.09c0.57-0.357,1.373-0.96,2.4-1.802c1.144-0.961,2.146-2.103,3.004-3.425
		c0.856-1.32,1.398-2.765,1.631-4.325c-0.114,0-0.346,0.09-0.688,0.271c-0.344,0.184-0.659,0.305-0.942,0.36
		c-0.286,0.063-0.659,0.121-1.114,0.181c-0.459,0.063-0.771,0.063-0.943,0c-0.171-0.06-0.4-0.115-0.687-0.181
		c-0.287-0.059-0.546-0.239-0.771-0.541C308.032,166.776,307.922,166.444,307.922,166.083z M322.331,161.217
		c1.145-0.6,2.146-0.479,3.005,0.36c0.855,0.842,1.285,1.982,1.285,3.424c0,1.202-0.086,2.977-0.258,5.316s-0.314,4.117-0.43,5.313
		c0,0.604,0.026,2.679,0.086,6.221c0.057,3.546,0.026,5.615-0.086,6.218c0,0.242,0.026,0.603,0.086,1.081
		c0.057,0.479,0.026,0.843-0.086,1.082c0,0.479-0.114,1.171-0.344,2.07c-0.229,0.9-0.345,1.41-0.345,1.531
		c0,0.118-0.027,0.329-0.086,0.631c-0.06,0.301-0.086,0.54-0.086,0.724c0,0.18-0.085,0.389-0.257,0.631
		c-0.172,0.239-0.314,0.358-0.43,0.358c-0.459,0.117-0.716,0-0.771-0.358c-0.06-0.36-0.086-0.722-0.086-1.082
		c0.456-2.283,0.688-4.623,0.688-7.028c0-0.357,0.024-2.312,0.086-5.854c0.057-3.542,0.086-6.276,0.086-8.2
		c0-0.479,0.026-1.261,0.086-2.343c0.057-1.081,0.143-1.951,0.258-2.613c0.111-0.658,0.172-1.441,0.172-2.343
		c0-0.9-0.113-1.712-0.345-2.436c-0.114-0.479-0.486-0.989-1.114-1.529C322.819,161.848,322.447,161.46,322.331,161.217z"/>
	<path d="M350.986,164.281c0.111,0,0.343-0.028,0.688-0.09c0.343-0.063,0.627-0.091,0.855-0.091s0.484,0,0.771,0
		c0.284,0,0.541,0.028,0.771,0.091c0.229,0.062,0.398,0.211,0.517,0.45c0.11,0.239,0.11,0.66,0,1.262
		c-0.115,0.603-0.373,1.323-0.771,2.162c-0.402,0.843-0.659,1.262-0.771,1.262c2.061-1.081,3.944-1.622,5.66-1.622
		c0.571,0,1.029,0.152,1.373,0.451c0.345,0.301,0.229,0.752-0.344,1.352c-0.115,0.36-0.401,0.541-0.855,0.541
		c-0.459,0-0.976-0.06-1.544-0.181c-0.574-0.118-0.976-0.181-1.201-0.181c-1.146,0.242-2.089,0.69-2.831,1.353
		c-0.745,0.661-1.458,1.652-2.146,2.977c0.57,0.119,1.171,0.447,1.804,0.988c0.627,0.54,0.999,1.056,1.113,1.531
		c0.229,0.481,0.257,0.901,0.085,1.262c-0.171,0.36-0.485,0.481-0.941,0.36c-0.229-0.239-0.63-0.78-1.201-1.622
		c-0.458-0.479-0.802-0.96-1.028-1.438c-0.343,0.357-0.63,0.689-0.855,0.988c-0.229,0.304-0.432,0.724-0.603,1.265
		c-0.172,0.54-0.373,0.873-0.602,0.988c-1.487,2.646-2.917,4.688-4.289,6.127c-0.917,0.966-1.745,1.354-2.487,1.175
		c-0.745-0.184-0.771-1.054-0.086-2.613h0.344v1.438c0.345-0.357,0.714-0.688,1.115-0.988c0.398-0.301,0.771-0.659,1.114-1.081
		c0.344-0.42,0.656-0.78,0.941-1.081c0.284-0.299,0.603-0.813,0.943-1.532c0.344-0.721,0.602-1.172,0.771-1.352
		c0.171-0.184,0.429-0.659,0.771-1.441c0.344-0.78,0.542-1.2,0.603-1.262c0.057-0.063,0.172-0.209,0.344-0.451
		c0.171-0.239,0.284-0.419,0.343-0.54c0.058-0.118,0.144-0.33,0.259-0.631c0.111-0.299,0.171-0.51,0.171-0.631
		c0-0.118,0.059-0.329,0.172-0.634c0.112-0.299,0.174-0.51,0.174-0.631c0-0.115,0-0.357,0-0.721c1.143-0.839,2-2.763,2.571-5.768
		c-0.458,0-0.831-0.093-1.113-0.271C351.299,165.272,351.098,164.883,350.986,164.281z M354.76,180.861l-3.26,1.979
		c-0.115,0.121-0.372,0.333-0.771,0.634c-0.401,0.302-0.716,0.448-0.943,0.448c-0.113,0-0.286,0.121-0.516,0.36
		c-0.229,0.242-0.401,0.391-0.515,0.45c-0.115,0.062-0.287,0.121-0.517,0.181c-0.229,0.063-0.4,0.09-0.516,0.09
		c-0.343,0-0.603-0.09-0.771-0.271c-0.171-0.181-0.146-0.51,0.086-0.991c0.113-0.118,0.456-0.329,1.029-0.631
		c0.57-0.299,0.971-0.45,1.2-0.45c0.229-0.359,0.914-0.898,2.06-1.622c1.145-0.721,2.062-1.32,2.746-1.803
		c0.455-0.118,0.713-0.239,0.771-0.36c0.058-0.117,0.172-0.208,0.343-0.271c0.172-0.062,0.313-0.09,0.431-0.09
		c0.111,0,0.257,0.028,0.431,0.09c0.172,0.063,0.313,0.091,0.429,0.091c0.571,0.48,0.516,1.563-0.172,3.244
		c-0.115,0.121-0.286,0.45-0.517,0.991c-0.229,0.54-0.43,0.963-0.602,1.261c-0.171,0.302-0.4,0.631-0.688,0.991
		c-0.286,0.358-0.516,0.631-0.688,0.812s-0.487,0.332-0.942,0.45c-0.459,0.121-0.917,0.121-1.373,0l1.373,2.521
		c0.688,1.44,0.972,2.463,0.856,3.063c0,0.36-0.114,0.631-0.343,0.813c-0.229,0.181-0.459,0.207-0.688,0.091
		c-0.458-0.242-0.855-0.963-1.201-2.163c-0.343-1.199-0.63-1.982-0.855-2.344c0-0.117-0.146-0.328-0.431-0.633
		c-0.285-0.298-0.516-0.565-0.688-0.811c-0.172-0.239-0.2-0.479-0.086-0.721c0.112-0.36,0.284-0.513,0.516-0.451
		c0.229,0.063,0.541,0.149,0.942,0.271c0.397,0.121,0.713,0.184,0.944,0.184c0.686-0.479,1.343-1.265,1.973-2.346
		S354.76,181.824,354.76,180.861z M361.621,162.479c1.144,0.479,2.173,0.422,3.09-0.184c0.111,0,0.282-0.115,0.515-0.357
		c0.229-0.239,0.399-0.392,0.516-0.45c0.113-0.062,0.313-0.119,0.603-0.181c0.284-0.063,0.483-0.028,0.602,0.09
		c0.229,0,0.344,0.091,0.344,0.271c0,0.184,0,0.332,0,0.45c0,0.121-0.06,0.271-0.172,0.451c-0.113,0.18-0.199,0.332-0.258,0.45
		c-0.06,0.121-0.115,0.271-0.171,0.449c-0.061,0.182-0.146,0.393-0.259,0.632c-1.716,2.884-2.744,5.945-3.088,9.188
		c0.455-0.238,1.085-0.897,1.888-1.979c0.799-1.081,1.484-1.83,2.06-2.253c0.57-0.421,1.173-0.749,1.803-0.991
		c0.628-0.239,1.258-0.271,1.889-0.09c0.627,0.181,1.114,0.631,1.458,1.352c0.112,0.242,0.172,0.572,0.172,0.991
		c0,0.423-0.029,0.843-0.086,1.262c-0.06,0.423-0.086,0.813-0.086,1.172c0,0.724-0.06,1.531-0.172,2.436
		c-0.115,0.898-0.315,1.954-0.603,3.151c-0.285,1.202-0.601,2.228-0.942,3.063c-0.343,0.842-0.856,1.473-1.544,1.893
		c-0.688,0.422-1.544,0.515-2.572,0.271l-1.544,3.063c0.454,0,0.884,0.093,1.285,0.271c0.397,0.18,0.886,0.358,1.459,0.54
		c0.569,0.181,1.028,0.392,1.372,0.631c0.229,0,0.771,0.152,1.631,0.451c0.855,0.301,1.57,0.54,2.145,0.721
		c0.571,0.18,1.145,0.45,1.718,0.813c1.144,0.721,1.888,1.439,2.229,2.16c0.229,0.603-0.06,1.081-0.856,1.441
		c-0.114,0-0.372-0.121-0.771-0.36c-0.402-0.239-0.803-0.568-1.201-0.988c-0.401-0.426-0.659-0.634-0.771-0.634
		c-1.028-0.839-2.29-1.591-3.774-2.253c-1.487-0.655-2.916-1.05-4.289-1.171c-0.229,0-0.458,0.03-0.687,0.09
		c-0.23,0.063-0.401,0.184-0.518,0.36c-0.113,0.181-0.286,0.45-0.515,0.813c-0.23,0.357-0.401,0.538-0.516,0.538
		c-1.146,1.441-2.289,2.345-3.433,2.702c-0.803,0.239-1.4,0.184-1.803-0.18c-0.401-0.36-0.544-0.963-0.429-1.803
		c0.11,0.121,0.313,0.333,0.601,0.631c0.283,0.299,0.603,0.451,0.943,0.451c0.455-0.121,1.257-0.78,2.399-1.982
		c0.915-1.082,1.771-2.371,2.574-3.875c0.799-1.501,1.2-2.912,1.2-4.232c0-0.36-0.114-0.96-0.344-1.805
		c-0.229-0.84-0.401-1.471-0.517-1.893c-0.113-0.42-0.06-0.93,0.172-1.532c0.456-0.6,0.973-0.839,1.545-0.721
		c0.57,0.121,1.028,0.479,1.372,1.081c0.229,0.357,0.198,1.144-0.086,2.343c-0.286,1.203-0.373,1.924-0.258,2.163
		c0,0.479,0.145,0.752,0.429,0.811c0.284,0.063,0.603,0.031,0.944-0.09c0.455-0.239,0.771-0.6,0.942-1.081
		c0.172-0.479,0.313-0.898,0.43-1.262c0.111-0.36,0.172-0.839,0.172-1.441c0.111-0.357,0.283-1.197,0.517-2.521
		c0.229-1.32,0.397-2.281,0.515-2.884c0-0.479,0-1.053,0-1.712s-0.172-1.174-0.515-1.532c-0.917-0.36-2.229,0.479-3.946,2.521
		c-3.773,4.688-5.662,8.831-5.662,12.438c-0.114,0-0.285,0.062-0.515,0.18c-0.229,0.121-0.401,0.181-0.517,0.181
		c-0.344,0.242-0.573,0.214-0.688-0.09c-0.115-0.299-0.171-0.658-0.171-1.082c0-0.419,0.024-0.811,0.086-1.171
		c0.057-0.357,0.085-0.659,0.085-0.898c1.258-3.604,2.172-6.55,2.745-8.831c0.229-0.724,0.483-1.65,0.771-2.793
		c0.283-1.144,0.515-2.191,0.688-3.154c0.172-0.96,0.429-1.861,0.771-2.703c-0.916-0.118-1.432-0.181-1.545-0.181
		c-0.114,0-0.285-0.062-0.515-0.183c-0.229-0.115-0.372-0.299-0.431-0.541C361.479,163.14,361.508,162.84,361.621,162.479z
		 M365.226,177.617l0.345,1.442h0.171L365.226,177.617z"/>
	<path d="M396.11,169.147c0.456,0.242,0.942,0.357,1.458,0.357c0.515,0,0.914-0.06,1.2-0.181c0.284-0.118,0.743-0.329,1.373-0.631
		c0.627-0.298,1-0.51,1.115-0.631c0.11,0,0.313-0.062,0.602-0.183c0.282-0.115,0.515-0.236,0.688-0.357
		c0.172-0.118,0.368-0.271,0.601-0.451c0.229-0.18,0.345-0.329,0.345-0.45c0.343-0.721,0.455-2.461,0.343-5.227
		c0-0.36-0.113-0.749-0.343-1.171c-0.229-0.421-0.517-0.78-0.856-1.082c-0.345-0.3-0.573-0.512-0.688-0.632
		c-0.115-0.117-0.171-0.3-0.171-0.539s0.111-0.422,0.343-0.541c0.344,0,0.856,0.119,1.544,0.357
		c0.801,0.481,1.313,1.055,1.544,1.713c0.229,0.661,0.284,1.354,0.173,2.072c-0.114,0.721-0.229,1.473-0.344,2.253
		c-0.113,0.782,0,1.474,0.344,2.072c0.111,0.358,0.543,0.422,1.286,0.18c0.742-0.239,1.229-0.118,1.458,0.361
		c0.112,0.242,0.112,0.569,0,0.991c-0.113,0.422-0.4,0.689-0.855,0.811l3.432,3.063l1.545,1.62c-0.459,0.48-0.745,0.782-0.856,0.9
		c-0.458,0.121-1.175,0.182-2.146,0.182c-0.973,0-1.858,0.092-2.659,0.271c-0.802,0.181-1.372,0.572-1.716,1.172
		c-0.343,0.721-0.515,1.982-0.515,3.784c0,1.563-0.287,4.808-0.857,9.73c0,0.241,0,0.661,0,1.264s-0.061,1.171-0.172,1.712
		c-0.115,0.541-0.229,0.991-0.344,1.352c-0.458,0.724-1.114,0.689-1.974-0.09c-0.856-0.783-1.573-1.594-2.146-2.434
		c-0.115-0.36-0.344-1.021-0.688-1.982c-0.345-0.96-0.688-1.681-1.028-2.162c-0.344,0.963-0.772,1.743-1.287,2.344
		c-0.516,0.604-1.115,0.965-1.802,1.08c-0.229-0.479-0.373-1.02-0.432-1.621c-0.059-0.601-0.059-1.051,0-1.353
		c0.059-0.298,0.146-0.78,0.26-1.44c0.11-0.657,0.172-1.107,0.172-1.353c0-0.239,0-0.42,0-0.541c0-0.118,0-0.208,0-0.271
		c0-0.06,0.024-0.181,0.086-0.358c0.057-0.18,0.086-0.299,0.086-0.36c0-0.06,0.026-0.181,0.086-0.357
		c0.057-0.184,0.111-0.302,0.172-0.36c0.058-0.06,0.143-0.118,0.257-0.181c0.113-0.062,0.199-0.118,0.258-0.183
		c0.059-0.06,0.145-0.091,0.259-0.091c0,0.121,0.144,0.513,0.431,1.172c0.283,0.662,0.569,1.172,0.855,1.532
		c0.283,0.36,0.603,0.661,0.942,0.9c0.112,0,0.313-0.062,0.603-0.183c0.282-0.117,0.483-0.181,0.602-0.181
		c-0.115,0-0.258,0.212-0.43,0.631c-0.172,0.423-0.258,0.693-0.258,0.813c0,0.842,0.398,1.832,1.199,2.974
		c0.801,1.143,1.657,1.954,2.574,2.433l1.028-15.499l-1.028,0.184c-0.229,0.121-0.488,0.27-0.771,0.448
		c-0.287,0.183-0.603,0.359-0.942,0.541c-0.345,0.182-0.574,0.271-0.688,0.271c-0.343,0.242-0.94,0.662-1.802,1.262
		c-0.855,0.604-1.485,0.991-1.887,1.172c-0.402,0.183-0.975,0.425-1.717,0.724c-0.744,0.302-1.459,0.449-2.146,0.449
		c-1.146,0-1.433-0.479-0.856-1.44c0.456-0.839,0.972-1.38,1.544-1.622c-0.458,1.202-0.061,1.504,1.201,0.901
		c0.229,0,0.628-0.184,1.199-0.541c0.571-0.239,1.431-0.749,2.573-1.531c1.145-0.78,2-1.29,2.574-1.532
		c0.228,0,0.569-0.09,1.028-0.271c0.456-0.183,0.826-0.329,1.113-0.45c0.284-0.118,0.541-0.239,0.771-0.36
		c0.345-0.357,0.456-1.2,0.345-2.521c-0.115-1.32-0.345-1.982-0.688-1.982c-0.573,0.121-1.287,0.481-2.146,1.081
		c-0.855,0.604-1.573,0.963-2.146,1.082l1.027-1.082c-0.113,0-0.373,0-0.771,0c-0.4,0-0.658,0-0.771,0
		c-0.113,0-0.314-0.028-0.602-0.09c-0.286-0.063-0.459-0.149-0.516-0.271c-0.061-0.115-0.173-0.271-0.345-0.447
		C396.196,169.958,396.11,169.629,396.11,169.147z M395.423,183.745c-0.345,1.687-0.401,3.063-0.172,4.146
		c0.454-0.479,0.827-0.961,1.113-1.442c0.284-0.479,0.398-0.96,0.346-1.441C396.651,184.528,396.222,184.105,395.423,183.745z
		 M404.86,173.472l4.289-1.265c0-0.118-0.172-0.51-0.516-1.171c-0.345-0.659-0.688-1.229-1.028-1.713
		c-0.344-0.479-0.688-0.779-1.029-0.9c-0.343-0.116-0.659-0.025-0.941,0.271c-0.287,0.302-0.488,0.783-0.603,1.442
		c-0.115,0.658-0.201,1.292-0.258,1.893C404.715,172.633,404.742,173.112,404.86,173.472z M405.372,181.221
		c0.688-0.962,1.603-1.41,2.745-1.354c1.145,0.063,2.315,0.423,3.52,1.082c1.201,0.661,2.085,1.353,2.659,2.072
		c0.343,0.357,0.627,0.721,0.855,1.081c0.229,0.357,0.37,0.812,0.43,1.352c0.058,0.541-0.199,0.873-0.771,0.991
		c-0.343,0.121-0.658,0.031-0.942-0.271c-0.287-0.298-0.572-0.748-0.856-1.352c-0.286-0.6-0.486-0.9-0.603-0.9
		c-0.114,0-0.399-0.209-0.855-0.631c-0.459-0.42-0.771-0.722-0.942-0.898c-0.172-0.184-0.459-0.42-0.857-0.724
		c-0.401-0.299-0.771-0.449-1.114-0.449c-0.343-0.117-0.917-0.092-1.716,0.092C406.115,181.492,405.602,181.464,405.372,181.221z"/>
	<path d="M437.801,169.868c0.229,0.121,0.483,0.181,0.771,0.181c0.284,0,0.569,0,0.856,0c0.284,0,0.602-0.025,0.941-0.091
		c0.346-0.059,0.603-0.118,0.771-0.18c0.173-0.063,0.456-0.209,0.856-0.451c0.398-0.239,0.688-0.389,0.857-0.45
		c0.171-0.06,0.429-0.208,0.771-0.449c0.344-0.238,0.601-0.39,0.771-0.449c0.173-0.062,0.43-0.183,0.772-0.36
		c0.343-0.18,0.627-0.329,0.855-0.45c0.229-0.118,0.398-0.357,0.516-0.721c0.229-0.479,0.344-1.321,0.344-2.523
		c-0.115-0.236-0.229-0.6-0.344-1.081c-0.114-0.479-0.286-0.777-0.516-0.898c-0.229-0.118-0.487-0.36-0.771-0.721
		c-0.286-0.36-0.487-0.659-0.602-0.901c-0.459-0.36-0.459-0.721,0-1.081c0.229-0.239,0.517-0.33,0.856-0.271
		c0.343,0.063,0.688,0.213,1.028,0.449c0.456,0.36,0.856,1.022,1.2,1.982c0.344,0.963,0.742,1.622,1.201,1.979
		c0.569,0.36,1.429,0.634,2.572,0.813s2,0.392,2.573,0.631l-0.857,1.622l-4.633,1.081c-0.114,0.963-0.229,2.374-0.343,4.235
		c-0.115,1.861-0.23,3.271-0.344,4.232c-0.114,0.963-0.2,2.343-0.259,4.146c-0.06,1.803-0.028,3.244,0.086,4.322
		c0.914-0.479,1.803-0.811,2.658-0.988c0.858-0.183,1.828-0.36,2.917-0.54c1.086-0.184,1.975-0.091,2.659,0.27
		c0.799,0.242,1.458,0.783,1.974,1.622c0.517,0.843,0.542,1.688,0.086,2.523c-0.114,0.239-0.229,0.392-0.344,0.447
		c-0.114,0.063-0.459,0.215-1.027,0.451c-0.918,0.481-1.487,0.813-1.717,0.991c-0.229,0.18-0.545,0.332-0.942,0.45
		c-0.401,0.121-0.771,0.211-1.114,0.271c-0.345,0.063-0.66,0.152-0.943,0.271c-0.286,0.121-0.572,0.121-0.855,0
		c-0.287-0.118-0.545-0.299-0.772-0.541c0.345-0.118,0.914-0.329,1.717-0.631c0.8-0.298,1.373-0.603,1.717-0.901
		c0.344-0.298,0.771-0.658,1.286-1.081c0.517-0.419,0.887-0.929,1.115-1.531c-0.46-0.237-0.771-0.389-0.943-0.448
		c-0.172-0.062-0.516-0.183-1.028-0.36c-0.517-0.18-1.002-0.208-1.458-0.09c-0.115,0.242-0.488,0.392-1.115,0.45
		c-0.63,0.063-1.145,0.121-1.544,0.181c-0.401,0.062-0.831,0.242-1.286,0.54c-0.459,0.302-0.803,0.631-1.029,0.991
		c-0.113,0.121-0.172,0.333-0.172,0.631c0,0.302,0,0.662,0,1.082c0,0.422,0,0.751,0,0.991c0,0.603-0.113,1.438-0.344,2.521
		c-0.229,1.081-0.344,1.803-0.344,2.163c-0.229,1.802-0.688,2.821-1.372,3.063c0,0.236-0.114,0.271-0.343,0.09
		c-0.229-0.183-0.373-0.304-0.432-0.36c-0.06-0.062-0.171-0.211-0.344-0.45c-0.172-0.242-0.258-0.423-0.258-0.541
		c-0.458-0.479-1.002-1.32-1.63-2.521c-0.63-1.203-1.061-2.104-1.286-2.704c-0.344-0.479-0.771-0.603-1.287-0.36
		c-0.515,0.242-0.973,0.541-1.372,0.901c-0.4,0.357-0.83,0.357-1.286,0c-0.459-0.36-0.573-0.813-0.344-1.354s0.516-1.02,0.857-1.438
		s0.713-0.901,1.113-1.442c0.398-0.54,0.656-0.929,0.771-1.171c0.112-0.239,0.112-0.84,0-1.803c-0.115-0.96-0.172-1.563-0.172-1.802
		l0.855,2.7h0.172c0.111-0.479,0.398-1.051,0.856-1.712c0.456-0.656,0.771-1.352,0.944-2.07c0.171-0.724,0.257-1.383,0.257-1.982
		c-0.573,0.36-1.347,0.873-2.315,1.532c-0.974,0.662-1.631,1.053-1.974,1.172c-0.802,0.603-1.433,0.842-1.889,0.721
		c-0.458-0.118-0.716-0.42-0.771-0.898c-0.06-0.479,0.086-0.842,0.43-1.081c0.229-0.36,0.714-0.78,1.458-1.265
		c0.742-0.479,1.229-0.898,1.459-1.262c0.455-0.479,0.942-1.02,1.458-1.622c0.517-0.6,0.914-1.106,1.2-1.531
		c0.284-0.42,0.657-1.02,1.115-1.803c0.456-0.78,0.856-1.352,1.201-1.712l-1.544,0.541l1.027-1.442
		c-0.345,0-0.803,0.093-1.373,0.271c-0.571,0.181-1.113,0.36-1.63,0.541c-0.516,0.18-1.004,0.27-1.458,0.27
		c-0.573,0-1.004-0.18-1.287-0.54C437.428,170.769,437.456,170.349,437.801,169.868z M445.007,169.687l1.027,0.358l-4.633,7.933
		c0.112-0.119,0.283-0.24,0.518-0.361c0.229-0.118,0.453-0.18,0.687-0.18c0.229,0,0.398,0,0.515,0c0.571,0,0.914,0.271,1.029,0.811
		c0.112,0.541,0.112,1.056,0,1.532c-0.115,1.323-0.974,3.244-2.573,5.768c-0.229,0.604-0.4,1.021-0.516,1.264
		c-0.114,0.239-0.059,0.662,0.173,1.262c0.688-0.118,1.569-0.479,2.658-1.081c1.086-0.6,1.742-1.2,1.974-1.803
		c0.112-0.36,0.229-0.839,0.345-1.441c0.111-0.6,0.111-1.29,0-2.072c-0.114-0.777-0.173-1.289-0.173-1.529
		c0-0.839,0.112-2.104,0.345-3.784c0.229-1.684,0.368-3.002,0.43-3.965c0.057-0.961-0.029-2.163-0.258-3.604L445.007,169.687z
		 M441.745,189.692c0.455,0.842,0.973,1.803,1.546,2.884c0.569,1.081,1.142,1.861,1.716,2.343l0.855-7.209L441.745,189.692z
		 M448.61,164.822v0.9l1.2-0.36L448.61,164.822z"/>
</g>
<g>
	<g>
		<line fill="none" x1="92.146" y1="33.89" x2="288.171" y2="33.89"/>
	</g>
</g>
<path fill="#221714" d="M83.437,45.926h6.721v1.678l-6.721-0.021V45.926z M79.706,42.188l-1.194-0.086l0.525,0.432l0.774-0.044
	h15.074c0.059,0,0.099-0.03,0.15-0.106c0.051-0.064-0.211-0.328-0.79-0.772l-0.562-0.429c-0.174-0.144-0.3-0.221-0.366-0.215
	c-0.071,0.016-0.145,0.063-0.222,0.146c-0.079,0.091-0.215,0.234-0.419,0.43c-0.199,0.203-0.413,0.42-0.614,0.647l-4.357-0.005
	L87.7,40.799h5.169c0.048,0,0.091-0.025,0.127-0.082c0.029-0.046-0.093-0.205-0.362-0.447c-0.273-0.259-0.584-0.498-0.919-0.721
	c-0.128-0.084-0.237-0.118-0.328-0.103c-0.082,0.014-0.459,0.359-1.122,1.042h-2.564v-1.376h6.278c0.063,0,0.098-0.02,0.139-0.073
	c0.037-0.058-0.11-0.23-0.432-0.521c-0.31-0.294-0.646-0.553-0.984-0.779c-0.141-0.071-0.265-0.113-0.363-0.103
	c-0.108,0.017-0.492,0.405-1.176,1.174h-3.462v-1.086c0.36-0.25,0.523-0.438,0.479-0.54c-0.029-0.051-0.141-0.102-0.342-0.155
	c-0.206-0.054-0.916-0.124-2.127-0.21c-0.104-0.021-0.165,0-0.184,0.017c-0.018,0.021-0.024,0.058-0.024,0.125l0.104,1.494v0.355
	h-5.235l-1.199-0.093l0.534,0.438l0.765-0.041h5.138v1.377h-4.008l-1.18-0.094l0.532,0.444l0.759-0.044h3.896v1.392H79.706
	L79.706,42.188z M90.158,49.343c0,0.206-0.045,0.361-0.156,0.469c-0.095,0.107-0.488,0.135-1.164,0.065l-0.51-0.032l-0.338-0.033
	c-0.12-0.005-0.171,0.02-0.171,0.084c0.003,0.062,0.041,0.106,0.119,0.129l0.419,0.142c0.645,0.226,0.98,0.489,1.017,0.823
	c0.032,0.335,0.063,0.523,0.106,0.564c0.035,0.048,0.106,0.072,0.231,0.072c0.005,0.014,0.176-0.005,0.485-0.041
	c0.328-0.037,0.681-0.104,1.08-0.197c0.389-0.096,0.639-0.247,0.728-0.456c0.087-0.216,0.144-0.422,0.144-0.649v-5.778
	c0.33-0.163,0.507-0.303,0.531-0.39c0.002-0.072-0.317-0.246-0.944-0.526c-0.64-0.275-1.032-0.41-1.175-0.395
	c-0.088,0.021-0.176,0.09-0.278,0.221c-0.103,0.134-0.209,0.274-0.335,0.413h-6.374l-2.022-0.676c-0.074-0.018-0.118,0-0.119,0.065
	l0.076,1.696v3.922l-0.11,2.216c0.021,0.091,0.06,0.169,0.11,0.243c0.066,0.073,0.256,0.096,0.569,0.08
	c0.328-0.024,0.612-0.063,0.865-0.128c0.256-0.067,0.406-0.123,0.449-0.174c0.049-0.043,0.091-0.102,0.124-0.174l-0.077-1.822v-1.18
	h6.72V49.343L90.158,49.343L90.158,49.343z M83.437,44.133l6.721-0.005v1.493h-6.721V44.133z"/>
<path fill="#221714" d="M98.817,48.97h2.877v-1.895l-0.037-1.333c0.059-0.034,0.176-0.045,0.336-0.021l0.591,0.034
	c0.56,0.063,0.912,0.122,1.066,0.174c0.141,0.045,0.216,0.119,0.25,0.18c0.031,0.146-0.1,0.293-0.409,0.46l-0.005,2.402h2.944v-1.64
	l-0.039-1.104c0.057-0.011,0.142-0.018,0.256-0.011c0.231,0.017,0.493,0.046,0.793,0.059c0.31,0.021,0.55,0.035,0.757,0.058
	c0.208,0.021,0.339,0.084,0.408,0.208c0.081,0.152-0.031,0.311-0.355,0.479v1.504l0.051,0.902c-0.133,0.206-0.321,0.322-0.585,0.346
	c-0.264,0.021-0.51,0.037-0.757,0.041c-0.366,0.013-0.542-0.075-0.528-0.271l0.012-0.252H98.9c-0.119,0.139-0.213,0.266-0.295,0.399
	c-0.08,0.135-0.179,0.226-0.267,0.27c-0.098,0.041-0.244,0.026-0.455-0.023c-0.088-0.021-0.311-0.123-0.675-0.303
	c-0.367-0.175-0.544-0.331-0.54-0.46c0-0.039,0.053-0.121,0.158-0.229l0.254-0.284v-1.479l-0.052-0.952
	c0.016-0.042,0.071-0.061,0.157-0.061c1.256,0.044,1.929,0.164,2.015,0.351c0.074,0.155-0.061,0.317-0.383,0.464V48.97L98.817,48.97
	z M98.866,40.326l-0.142-1.854c0.063-0.04,0.162-0.03,0.293,0.025l1.785,0.693h0.229c0.293-0.591,0.474-1.047,0.545-1.374
	l0.117-0.56l0.088-0.417c0,0,0.02,0,0.028-0.003c0.049-0.004,0.123,0.003,0.216,0.03c0.098,0.021,0.438,0.105,1.02,0.237
	c0.581,0.136,0.942,0.25,1.08,0.344c0.142,0.09,0.212,0.178,0.212,0.233c-0.017,0.16-0.25,0.276-0.711,0.346
	c-0.329,0.34-0.72,0.729-1.169,1.162h4.433c0.144-0.181,0.272-0.335,0.368-0.479c0.094-0.141,0.192-0.216,0.273-0.243
	c0.091-0.034,0.261,0.02,0.502,0.14c0.776,0.399,1.233,0.646,1.369,0.746c0.133,0.106,0.207,0.188,0.207,0.255
	c0,0.144-0.169,0.306-0.506,0.473c-0.012,0.391-0.028,0.813-0.047,1.283c-0.018,0.458-0.049,0.904-0.107,1.328
	c-0.06,0.425-0.191,0.837-0.396,1.243c-0.204,0.401-0.817,0.687-1.829,0.841c-0.235,0.042-0.402,0.05-0.494,0.012
	c-0.097-0.03-0.149-0.053-0.167-0.065c-0.02-0.021-0.045-0.108-0.084-0.26c-0.036-0.166-0.127-0.307-0.281-0.438
	c-0.159-0.127-0.392-0.245-0.713-0.335l-0.486-0.132c-0.106-0.034-0.152-0.082-0.155-0.17c-0.005-0.077,0.076-0.107,0.234-0.094
	l0.404,0.037c0.213,0.024,0.499,0.027,0.862,0.015c0.37-0.015,0.646-0.106,0.827-0.259c0.18-0.162,0.316-0.452,0.38-0.882
	c0.062-0.385,0.079-0.857,0.079-1.405v-1.303h-6.49l-0.007,5.613l9.078-0.021c0.122-0.158,0.224-0.302,0.292-0.41
	c0.081-0.119,0.152-0.184,0.222-0.216c0.075-0.04,0.22-0.011,0.447,0.074c1.12,0.427,1.688,0.75,1.74,0.941
	c0.035,0.188-0.132,0.359-0.511,0.528c-0.039,0.716-0.104,1.479-0.197,2.293c-0.099,0.824-0.356,1.506-0.751,2.06
	c-0.408,0.559-0.87,0.899-1.412,1.032c-0.53,0.131-0.965,0.221-1.33,0.258c-0.351,0.043-0.572,0.044-0.664,0.014
	c-0.078-0.029-0.12-0.063-0.147-0.096c-0.021-0.046-0.044-0.13-0.057-0.253c-0.022-0.128-0.081-0.259-0.15-0.394
	c-0.082-0.128-0.176-0.235-0.249-0.301c-0.092-0.063-0.287-0.18-0.58-0.315l-0.464-0.2c-0.102-0.052-0.136-0.104-0.102-0.17
	c0.029-0.063,0.141-0.076,0.31-0.054l0.487,0.093c0.982,0.192,1.695,0.148,2.117-0.116c0.428-0.271,0.721-0.594,0.878-0.979
	c0.156-0.385,0.246-0.959,0.274-1.724l0.062-1.771h-9.23c-0.122,0.181-0.242,0.333-0.333,0.469
	c-0.093,0.143-0.196,0.226-0.289,0.245c-0.089,0.021-0.223-0.01-0.386-0.074c-0.097-0.039-0.351-0.169-0.737-0.378
	c-0.401-0.215-0.591-0.388-0.577-0.521c0-0.026,0.065-0.108,0.211-0.253l0.281-0.274V40.326L98.866,40.326L98.866,40.326
	L98.866,40.326z M102.271,40.124c0.371,0.007,0.718,0.021,1.046,0.057c0.32,0.028,0.675,0.136,1.062,0.326
	c0.386,0.188,0.656,0.428,0.803,0.706c0.146,0.288,0.156,0.589,0.015,0.894c-0.134,0.301-0.39,0.521-0.776,0.648
	c-0.384,0.141-0.729,0.083-1.018-0.145c-0.102-0.075-0.182-0.188-0.257-0.326l-0.253-0.805c-0.079-0.207-0.191-0.394-0.354-0.553
	c-0.143-0.163-0.306-0.277-0.473-0.358c-0.163-0.081-0.293-0.163-0.372-0.25c-0.079-0.09-0.026-0.149,0.167-0.163L102.271,40.124z"
	/>
<path fill="#231815" d="M136.55,39.279l-1.603,0.877c-0.949,0.493-1.831,0.903-2.67,1.212l-0.655,0.226
	c-0.133,0.054-0.23,0.054-0.28,0c-0.061-0.051-0.014-0.137,0.12-0.258l0.413-0.33l0.631-0.503c0.377-0.329,0.833-0.742,1.351-1.271
	c0.512-0.518,0.976-1.045,1.368-1.583l0.336-0.451l0.194-0.313c0.034-0.019,0.102-0.019,0.167-0.019
	c0.083,0.01,0.22,0.091,0.409,0.24l0.83,0.512c0.106,0.076,0.315,0.229,0.622,0.449c0.313,0.229,0.457,0.396,0.453,0.49
	c-0.028,0.155-0.135,0.232-0.316,0.222l-0.466,0.016C137.047,39.011,136.748,39.174,136.55,39.279z M136.481,42.996
	c0.41,0.186,0.624,0.296,0.651,0.363c0.042,0.15-0.075,0.289-0.357,0.416v5.61l0.086,1.68c-0.042,0.104-0.098,0.197-0.173,0.271
	c-0.065,0.06-0.247,0.133-0.547,0.201c-0.295,0.063-0.616,0.099-0.938,0.099c-0.195,0.008-0.331-0.014-0.417-0.061
	c-0.078-0.049-0.134-0.119-0.194-0.229l0.096-1.837v-5.112c-1.104,0.707-1.962,1.232-2.571,1.568l-0.462,0.27
	c-0.143,0.072-0.226,0.072-0.246-0.017c-0.04-0.084-0.028-0.159,0.021-0.213l0.412-0.414c0.309-0.322,0.592-0.61,0.836-0.856
	c0.233-0.252,0.646-0.755,1.236-1.499c0.588-0.756,1.05-1.406,1.392-1.974l0.342-0.554c0.16-0.282,0.252-0.421,0.277-0.421
	c0.011-0.013,0.042-0.014,0.083-0.014c0.155,0.021,0.591,0.233,1.33,0.652c0.72,0.417,1.066,0.688,1.034,0.813
	c-0.048,0.141-0.281,0.219-0.706,0.237C137.32,42.278,136.928,42.611,136.481,42.996z M145.15,42.789
	c0.396-0.532,0.682-0.897,0.877-1.109c0.188-0.199,0.34-0.316,0.465-0.346c0.125-0.022,0.347,0.075,0.666,0.312
	c0.672,0.527,1.089,0.854,1.234,1.001c0.159,0.144,0.224,0.257,0.203,0.341c-0.011,0.079-0.086,0.119-0.222,0.119h-2.521
	c-0.087,0.147-0.19,0.263-0.315,0.357v6.633c0,0.354-0.047,0.611-0.137,0.761c-0.083,0.146-0.253,0.289-0.516,0.413
	c-0.258,0.125-0.615,0.231-1.052,0.308c-0.456,0.076-0.771,0.098-0.969,0.08c-0.183-0.014-0.275-0.044-0.317-0.098
	c-0.056-0.046-0.076-0.146-0.076-0.311c-0.002-0.169-0.027-0.313-0.076-0.417c-0.052-0.115-0.162-0.241-0.346-0.385
	c-0.187-0.136-0.426-0.264-0.709-0.354l-0.638-0.198c-0.182-0.048-0.245-0.101-0.198-0.18c0.05-0.078,0.146-0.113,0.281-0.094
	l0.466,0.046l1.217,0.075c0.214,0.009,0.39,0,0.519-0.043c0.122-0.032,0.202-0.104,0.246-0.193c0.062-0.103,0.081-0.271,0.081-0.532
	l-0.015-5.872h-4.104l-1.058,0.05l-0.497-0.462l1.286,0.097L145.15,42.789L145.15,42.789z M144.076,38.559
	c0.442-0.497,0.753-0.852,0.925-1.042c0.169-0.193,0.306-0.294,0.411-0.307c0.106-0.021,0.269,0.048,0.478,0.182
	c0.186,0.125,0.411,0.304,0.715,0.539c0.303,0.228,0.532,0.417,0.684,0.561c0.149,0.137,0.208,0.243,0.173,0.294
	c-0.042,0.06-0.134,0.073-0.301,0.073h-6.828l-1.054,0.051l-0.508-0.448l1.294,0.102h4.013L144.076,38.559L144.076,38.559z"/>
<path fill="#231815" d="M120.965,40.331c-0.928,0.869-1.76,1.596-2.508,2.169c-0.75,0.583-1.488,1.085-2.22,1.512
	c-0.739,0.42-1.258,0.703-1.554,0.832l-0.863,0.412c-0.127,0.063-0.221,0.063-0.258,0c-0.048-0.063-0.034-0.12,0.049-0.192
	l0.578-0.459c0.303-0.24,0.628-0.53,0.982-0.869c0.358-0.333,0.9-0.938,1.626-1.826c0.726-0.877,1.274-1.642,1.634-2.295
	l0.419-0.748l0.152-0.349c0,0,0.033,0,0.063,0c0.063,0,0.166,0.042,0.321,0.12l1.044,0.501c0.277,0.137,0.551,0.297,0.838,0.476
	c0.272,0.187,0.413,0.319,0.413,0.401c0,0.064-0.038,0.131-0.11,0.187C121.511,40.258,121.303,40.302,120.965,40.331z
	 M122.063,44.159l-0.323,0.259c-0.244,0.958-0.422,1.627-0.53,1.983c-0.103,0.363-0.281,0.757-0.506,1.194
	c-0.229,0.429-0.514,0.853-0.854,1.246c-0.342,0.396-0.863,0.791-1.542,1.191c-0.682,0.396-1.563,0.771-2.649,1.111l-1.033,0.321
	c-0.081,0.021-0.139,0.012-0.181-0.062c-0.038-0.065-0.011-0.125,0.092-0.173l0.489-0.211c0.146-0.066,0.419-0.222,0.782-0.468
	c0.367-0.243,0.854-0.596,1.443-1.067c0.589-0.471,1.025-1.095,1.304-1.855c0.279-0.768,0.455-1.307,0.526-1.614
	c0.076-0.314,0.149-0.784,0.221-1.417l0.042-0.432l-0.715-0.014l-1.276,0.051l-0.47-0.426l1.434,0.065h5.681
	c0.182-0.187,0.333-0.356,0.471-0.494c0.137-0.142,0.25-0.221,0.341-0.234c0.101-0.011,0.262,0.057,0.479,0.188l0.771,0.457
	c0.339,0.202,0.571,0.375,0.708,0.535c0.146,0.15,0.221,0.248,0.221,0.303c-0.002,0.136-0.164,0.25-0.47,0.369
	c-0.047,0.479-0.083,0.898-0.116,1.247c-0.028,0.34-0.069,0.758-0.122,1.271c-0.067,0.496-0.131,0.978-0.211,1.426
	c-0.083,0.447-0.263,0.856-0.544,1.222c-0.271,0.365-0.586,0.645-0.932,0.83c-0.369,0.201-0.735,0.315-1.105,0.385
	c-0.383,0.063-0.625,0.086-0.733,0.067c-0.1-0.024-0.172-0.053-0.201-0.103c-0.052-0.043-0.072-0.146-0.087-0.315
	c-0.017-0.181-0.13-0.396-0.319-0.646c-0.193-0.251-0.552-0.438-1.067-0.56l-0.411-0.104c-0.133-0.022-0.187-0.078-0.144-0.167
	c0.021-0.068,0.088-0.105,0.16-0.102l0.53,0.063c0.203,0.021,0.491,0.026,0.899,0.026c0.386,0,0.736-0.048,1.037-0.145
	c0.297-0.087,0.521-0.346,0.669-0.774c0.154-0.425,0.261-1.019,0.33-1.771c0.065-0.735,0.107-1.172,0.11-1.289l0.024-1.385
	L122.063,44.159z M123.979,37.868c0.065,0.313,0.119,0.552,0.188,0.75c0.072,0.199,0.313,0.663,0.729,1.391
	c0.433,0.724,1.208,1.386,2.344,1.996c1.139,0.6,2.062,0.942,2.777,1.038l0.75,0.112c0.351,0.048,0.399,0.138,0.173,0.262
	l-0.417,0.218c-0.197,0.102-0.384,0.252-0.563,0.433c-0.181,0.177-0.313,0.341-0.408,0.506c-0.093,0.149-0.167,0.311-0.223,0.445
	c-0.063,0.137-0.113,0.226-0.154,0.253c-0.042,0.028-0.143,0.005-0.299-0.076c-0.589-0.219-1.019-0.412-1.289-0.56
	c-0.28-0.146-0.726-0.448-1.345-0.914c-0.616-0.463-1.12-0.965-1.518-1.494c-0.396-0.537-0.717-1.034-0.978-1.504
	c-0.253-0.479-0.438-0.844-0.54-1.104c-0.1-0.264-0.225-0.577-0.357-0.972c-0.128-0.392-0.236-0.673-0.295-0.834
	c-0.063-0.161-0.137-0.289-0.218-0.39c-0.077-0.104-0.119-0.171-0.104-0.224c0.004-0.025,0.097-0.068,0.269-0.105
	c0.167-0.039,0.375-0.047,0.605-0.039c0.684,0.049,1.077,0.089,1.167,0.131c0.083,0.046,0.127,0.09,0.142,0.139
	C124.44,37.418,124.282,37.596,123.979,37.868z"/>
<g>
	<path fill-rule="evenodd" clip-rule="evenodd" fill="#0B9C57" d="M48.808,36.443c-3.644,1.866-7.425,3.512-11.018,5.41
		c-2.583,1.366-4.563,1.364-6.698,0.028c-2.585-1.619-5.421-2.735-8.084-4.185c-0.875-0.477-1.977-0.809-2.021-2.001
		c-0.046-1.243,1.227-1.166,1.958-1.624c0.56-0.35,1.123-0.693,1.686-1.038c0.596-0.171,1.568,0.193,1.449-0.968
		c-0.701-0.968-1.746-0.808-2.737-0.816c-1.494-0.013-2.997,0.029-4.381-0.666c-5.281-0.854-9.795-2.897-13.618-6.769
		c-4.633-4.692-2.951-10.16,0.414-13.725c3.313-3.511,7.535-5.359,12.119-6.581C29.323,0.456,40.882-0.003,52.316,3.2
		c6.112,1.712,12.297,3.776,16.159,9.357c0.327,0.754,1.01,1.281,1.275,2.104c0.782,2.432-0.022,3.549-2.657,3.627
		c-2.531,0.074-5.073-0.233-7.596,0.208c-0.522,0.091-0.988-0.157-1.355-0.536c-1.45-7.744-9.917-12.136-16.46-12.495
		c-6.547-0.359-13.02-0.282-19.157,2.398c-2.042,0.891-3.967,1.954-5.641,3.416c-3.612,3.155-3.375,8.929,0.415,11.979
		c3.075,2.474,6.688,3.925,10.527,4.176c4.791,0.315,9.257,1.159,13.348,3.688c1.058,0.653,2.366,0.925,3.56,1.372
		c1.382,0.521,2.896,0.763,4.04,1.788C49.435,34.993,49.227,35.717,48.808,36.443z"/>
	<path fill-rule="evenodd" clip-rule="evenodd" fill="#2284B9" d="M53.937,49.443c-3.429,0.613-6.682,2.065-10.248,2.027
		c-2.528-0.581-4.81,0.64-7.22,0.927c-9.204,0.408-18.019-1.067-26.282-5.151c-0.522-0.258-1.239,0.022-1.596-0.6
		c-0.549-0.265,1.186-1.032-0.325-1.202c-0.792-0.089-1.529-0.667-2.344-0.902c-0.128-0.001-0.254-0.015-0.379-0.043
		C4.71,44.02,4.02,43.401,3.53,42.582c-0.236-0.236-0.548-0.435-0.696-0.715c-3.04-5.764-2.665-6.375,3.906-6.43
		c0.171-0.001,0.342-0.003,0.513-0.005c5.088-0.044,5.051-0.028,7.107,4.457c1.008,2.202,2.903,3.693,5.042,4.727
		c9.456,4.569,19.157,4.74,29.001,1.249c1.199-0.425,2.375-0.909,3.561-1.366c3.001-1.501,4.91-3.595,4.895-7.148
		c-0.015-3.892-1.346-6.917-4.979-8.806l0.011,0.011c-0.984-1.701-2.921-2.038-4.517-2.396c-2.196-0.492-4.352-1.492-6.683-1.262
		c-3.774,0.372-7.069-1.149-10.452-2.352c-2.642-0.798-5.2-1.794-7.664-3.017c-0.866-0.713-2.59-0.938-1.629-2.691
		c4.428-2.152,8.878-4.267,13.271-6.486c1.098-0.555,2.036-0.704,3.134-0.148c4.171,2.111,8.356,4.198,12.534,6.294
		c1.51,0.758,1.13,1.439-0.113,2.038c-1.823,0.875-3.661,1.723-6.027,2.833c1.88,0.285,3.237,0.562,4.608,0.686
		c4.793,0.434,9.199,1.988,13.188,4.516c5.667,3.591,9.117,8.923,3.753,15.906c-1.259,1.65-2.496,3.325-4.666,3.971
		c-0.186,0.122-0.372,0.244-0.559,0.366C58.396,48.503,56.053,48.724,53.937,49.443z"/>
	<path fill-rule="evenodd" clip-rule="evenodd" fill="#3A84AD" d="M30.239,22.546c1.267-0.015,2.416-0.02,3.636,0.748
		c1.527,0.96,3.324,1.499,5.307,1.25c4.124-0.516,7.878,1.221,11.789,2.01c1.261,0.254,0.859,1.229,0.92,2.001
		c-5.026-2.381-10.334-3.406-15.928-3.538C33.892,24.969,32.015,23.674,30.239,22.546z"/>
	<path fill-rule="evenodd" clip-rule="evenodd" fill="#3A84AD" d="M51.88,28.545c2.377,0.186,5.08,3.153,5.174,5.766
		c0.061,1.657,0.035,3.317,0.01,4.977c-0.037,2.367-2.504,4.87-5.101,5.211c3.497-2.7,5.616-5.891,4.077-10.451
		C55.269,31.76,53.369,30.306,51.88,28.545z"/>
	<path fill-rule="evenodd" clip-rule="evenodd" fill="#3C87AE" d="M36.47,52.397c0.172-0.265,0.317-0.737,0.519-0.76
		c1.642-0.19,3.255-0.316,4.792-1.096c0.633-0.321,1.748-0.297,1.909,0.929C41.345,52.231,38.944,52.58,36.47,52.397z"/>
	<path fill-rule="evenodd" clip-rule="evenodd" fill="#4887A8" d="M5.922,44.542c0.762,0.026,1.598-0.131,2.269,0.121
		c0.976,0.367,1.339,1.118,0.4,1.983C7.463,46.23,6.615,45.479,5.922,44.542z"/>
	<path fill-rule="evenodd" clip-rule="evenodd" fill="#4F8DA8" d="M20.946,16.838c-0.231,1.338,1.139,1.764,1.629,2.691
		c-0.627-0.216-1.276-0.39-1.875-0.663c-0.507-0.231-1.22-0.425-1.122-1.139C19.673,17.036,20.389,16.997,20.946,16.838z"/>
	<path fill-rule="evenodd" clip-rule="evenodd" fill="#2C9466" d="M25.14,32.462c0.629,0.226,1.028-0.348,1.567-0.428
		c0.133,0.416,0.655,0.937,0.11,1.238c-0.697,0.386-1.534,0.484-2.186-0.239C24.801,32.843,24.971,32.652,25.14,32.462z"/>
	<path fill-rule="evenodd" clip-rule="evenodd" fill="#449B76" d="M48.783,34.565c0.19-0.026,0.379-0.052,0.569-0.079
		c1.447,1.078,1.262,1.729-0.544,1.957C48.336,35.823,48.812,35.191,48.783,34.565z"/>
	<path fill-rule="evenodd" clip-rule="evenodd" fill="#FFFFFF" d="M5.543,44.499c-1.489,0.168-2.212-0.42-2.013-1.917"/>
	<path fill-rule="evenodd" clip-rule="evenodd" fill="#FFFFFF" d="M41.084,36.191c-1.665,0.851-3,1.562-4.362,2.222
		c-1.112,0.539-5.599-0.981-6.096-2.055c-0.083-0.179-0.063-0.463,0.025-0.646c0.637-1.33,4.589-2.651,5.943-1.99
		c1.214,0.591,2.416,1.207,3.614,1.827C40.429,35.66,40.612,35.839,41.084,36.191z"/>
	<path fill-rule="evenodd" clip-rule="evenodd" fill="#FFFFFF" d="M35.53,20.133c-1.865-0.465-3.202-1.346-4.563-2.167
		c-0.271-0.164-0.576-0.536-0.187-0.796c1.452-0.974,2.898-2.346,4.633-2.341c1.643,0.006,2.989,1.395,4.335,2.378
		c0.335,0.245,0.137,0.64-0.175,0.808C38.181,18.769,36.768,19.488,35.53,20.133z"/>
</g>
<g>
</g>
<g>
</g>
<g>
	<path d="M91.083,3.495v2.906h8.344v9.656H95.49V15.12h-4.406v5.25h-4.031v-5.25H82.74v1.031h-4.031v-9.75h8.344V3.495H91.083z
		 M82.74,9.12v3.281h4.313V9.12H82.74z M95.49,9.12h-4.406v3.281h4.406V9.12z"/>
	<path d="M123.949,4.058v16.219h-3.938v-0.563h-13.406v0.656h-3.844V4.058H123.949z M106.605,6.495v10.781h13.406V6.495H106.605z
		 M119.449,14.277v2.344h-12.375v-2.344h4.125v-1.594h-3.563v-2.25h3.563V9.495h-3.938V7.152h12v2.344h-4.406v0.938h4.125v2.25
		h-1.219c0.375,0.25,0.781,0.563,1.219,0.938l-0.844,0.656H119.449z M116.449,14.277c-0.438-0.375-0.844-0.687-1.219-0.938
		l0.75-0.656h-1.125v1.594H116.449z"/>
	<path d="M148.845,12.027v2.531h-6.938c0.375,0.813,0.812,1.5,1.313,2.063c0.188,0.375,0.593,0.563,1.219,0.563
		c0.375,0,0.656-0.234,0.844-0.703s0.343-1.046,0.469-1.734c0.312,0.126,0.781,0.281,1.406,0.469c0.875,0.313,1.5,0.532,1.875,0.656
		c-0.126,0.563-0.375,1.345-0.75,2.344c-0.063,0.126-0.094,0.22-0.094,0.281c-0.501,1.251-1.657,1.843-3.469,1.781
		c-2.188,0.125-3.782-0.469-4.781-1.781c-0.938-0.938-1.626-2.25-2.063-3.938h-6v2.25c0.312-0.062,0.75-0.155,1.313-0.281
		c1.562-0.375,3-0.718,4.313-1.031c0,0.813,0.062,1.844,0.188,3.094c-1.188,0.188-2.688,0.469-4.5,0.844
		c-0.688,0.188-1.172,0.313-1.453,0.375c-0.281,0.063-0.642,0.157-1.078,0.281c-0.813,0.126-1.438,0.281-1.875,0.469l-1.781-2.531
		c0.624-0.437,0.938-1.125,0.938-2.063V4.152h19.688v6.469h-6.563c0,0.563,0.062,1.031,0.188,1.406H148.845z M131.876,6.683v1.406
		h11.906V6.683H131.876z M137.313,12.027c0-0.125-0.016-0.343-0.047-0.656c-0.032-0.312-0.047-0.563-0.047-0.75h-5.344v1.406
		H137.313z"/>
	<path d="M172.147,6.777v2.719h-7.406v2.438h6.469v2.719h-6.469v2.531h8.344v2.719h-21.75v-2.719h9.375v-2.531h-7.688v-2.719h1.313
		c-0.188-0.062-0.501-0.218-0.938-0.469c-1.063-0.563-1.844-0.968-2.344-1.219c1.562-1.749,2.719-3.781,3.469-6.094l3.844,0.656
		c-0.188,0.75-0.438,1.406-0.75,1.969h3.094V3.589h4.031v3.188H172.147z M156.21,9.495c-0.438,0.813-1,1.626-1.688,2.438h6.188
		V9.495H156.21z"/>
	<path d="M182.793,12.495v2.25h-2.344v2.063c0.624-0.312,1.313-0.593,2.063-0.844c0,0.938,0.031,1.813,0.094,2.625
		c-0.126,0.063-0.344,0.157-0.656,0.281c-0.75,0.25-1.626,0.595-2.625,1.031c-0.501,0.25-0.97,0.406-1.406,0.469l-1.5-2.25
		c0.437-0.375,0.656-0.905,0.656-1.594v-1.781h-2.25v-2.25h2.25v-1.406h-1.594V9.308l-0.938-1.313
		c0.999-1.374,1.875-2.906,2.625-4.594l3.375,0.375c-0.063,0.188-0.157,0.438-0.281,0.75c-0.25,0.375-0.407,0.688-0.469,0.938h3.188
		v2.25h-4.5c-0.188,0.375-0.438,0.75-0.75,1.125h4.688v2.25h-1.969v1.406H182.793z M196.2,4.152v9.375h-0.375l1.5,1.594
		c-0.938,0.501-1.938,0.938-3,1.313c0.5,0.25,1.374,0.563,2.625,0.938c0.188,0.063,0.343,0.126,0.469,0.188
		c-0.563,0.938-1.031,1.844-1.406,2.719c-2.376-0.75-4.219-1.718-5.531-2.906c0,0.625,0,1.219,0,1.781
		c-0.563,0.126-1.375,0.281-2.438,0.469c-0.563,0.126-1.017,0.22-1.359,0.281c-0.344,0.063-0.86,0.188-1.547,0.375
		c-0.375,0-0.656,0.031-0.844,0.094l-1.5-2.156c0.563-0.375,0.812-0.968,0.75-1.781V4.152H196.2z M187.012,6.683v1.031h5.813V6.683
		H187.012z M187.012,11.089h5.813v-1.031h-5.813V11.089z M189.731,16.62c-0.688-0.875-1.313-1.906-1.875-3.094h-0.844v3.656
		C187.762,16.995,188.667,16.808,189.731,16.62z M192.262,14.933c0.875-0.5,1.688-0.968,2.438-1.406h-3.375
		C191.574,14.089,191.887,14.558,192.262,14.933z"/>
	<path d="M205.065,8.183l2.531,1.969c-0.625,0.688-1.313,1.313-2.063,1.875v8.25h-3.656v-5.531
		c-0.625,0.438-1.282,0.844-1.969,1.219c-0.063-0.375-0.313-1.093-0.75-2.156c-0.126-0.437-0.22-0.75-0.281-0.938
		C201.064,11.621,203.127,10.058,205.065,8.183z M204.784,3.308l2.625,2.063c-2.5,1.938-4.813,3.501-6.938,4.688
		c-0.126-0.249-0.313-0.687-0.563-1.313c-0.375-0.812-0.625-1.343-0.75-1.594C200.971,6.214,202.846,4.934,204.784,3.308z
		 M221.565,9.589v2.719h-3v4.219c0.062,2.438-1.188,3.625-3.75,3.563c-0.313,0-1.031,0-2.156,0c-1.375,0.063-2.25,0.094-2.625,0.094
		c-0.063-0.375-0.188-0.938-0.375-1.688c-0.063-0.437-0.126-0.781-0.188-1.031c0.563,0.063,1.812,0.094,3.75,0.094
		c0.938,0.063,1.406-0.437,1.406-1.5v-3.75h-6.563V9.589H221.565z M220.815,4.433v2.719h-12V4.433H220.815z"/>
</g>
<g>
	<path fill="#231815" stroke="#231815" stroke-width="0.75" stroke-miterlimit="10" d="M85.187,30.312
		c-0.168,0.635-0.444,1.619-0.624,2.027c-0.384,0.06-1.511,0.335-2.411,0.335c-3.142,0-4.485-2.015-4.474-3.826
		c0-2.399,2.015-4.042,4.726-4.042c1.175,0,1.931,0.264,2.267,0.336c0.096,0.6,0.156,1.175,0.228,1.859l-0.204,0.036
		c-0.336-1.391-1.151-1.931-2.711-1.931c-2.375,0-3.442,1.571-3.442,3.442c0,2.327,1.391,3.838,3.514,3.838
		c1.667,0,2.351-0.899,2.926-2.135L85.187,30.312z"/>
	<path fill="#231815" stroke="#231815" stroke-width="0.75" stroke-miterlimit="10" d="M87.806,28.345h5.061v-1.991
		c0-0.936-0.096-1.115-1.127-1.199v-0.168h2.902v0.168c-1.055,0.084-1.151,0.264-1.151,1.199v4.773c0,0.947,0.096,1.127,1.116,1.199
		v0.168h-2.962v-0.168c1.127-0.072,1.223-0.252,1.223-1.199v-2.411h-5.061v2.411c0,0.947,0.108,1.127,1.163,1.199v0.168h-2.89
		v-0.168c1.007-0.072,1.103-0.252,1.103-1.199v-4.773c0-0.936-0.096-1.115-1.151-1.199v-0.168h2.878v0.168
		c-0.995,0.084-1.103,0.264-1.103,1.199V28.345z"/>
	<path fill="#231815" stroke="#231815" stroke-width="0.75" stroke-miterlimit="10" d="M95.667,32.327
		c1.043-0.048,1.14-0.252,1.14-1.199v-4.773c0-0.936-0.096-1.139-1.14-1.199v-0.168h2.902v0.168
		c-1.031,0.06-1.139,0.264-1.139,1.199v4.773c0,0.947,0.108,1.151,1.139,1.199v0.168h-2.902V32.327z"/>
	<path fill="#231815" stroke="#231815" stroke-width="0.75" stroke-miterlimit="10" d="M99.518,32.327
		c0.708-0.048,1.043-0.288,1.14-0.624c0.096-0.36,0.132-1.02,0.132-2.231V26.87c0-1.067-0.06-1.007-0.276-1.271
		c-0.204-0.24-0.456-0.372-1.091-0.444v-0.168h1.475l5.541,6.333h0.036v-3.418c0-2.339-0.012-2.651-1.416-2.747v-0.168h2.975v0.168
		c-0.696,0.06-0.996,0.288-1.104,0.636c-0.108,0.372-0.12,0.983-0.12,2.111v4.677h-0.132l-5.529-6.296h-0.024v3.19
		c0.012,1.211,0.024,1.871,0.108,2.207c0.108,0.372,0.468,0.587,1.271,0.647v0.168h-2.986V32.327z"/>
	<path fill="#231815" stroke="#231815" stroke-width="0.75" stroke-miterlimit="10" d="M113.639,32.327
		c0.684-0.096,0.936-0.168,0.936-0.456c0-0.312-0.359-1.248-0.803-2.351h-2.771c-0.12,0.228-0.72,1.847-0.72,2.219
		c0,0.408,0.324,0.479,0.996,0.587v0.168h-2.723v-0.168c0.839-0.168,0.996-0.276,1.439-1.355l2.603-6.105l0.144-0.06l0.804,2.219
		c0.552,1.499,1.091,2.998,1.547,4.149c0.359,0.888,0.456,1.02,1.295,1.151v0.168h-2.747V32.327z M112.476,25.923
		c-0.48,1.067-0.947,2.207-1.331,3.214h2.519l-1.164-3.214H112.476z"/>
	<path fill="#231815" stroke="#231815" stroke-width="0.75" stroke-miterlimit="10" d="M122.57,24.987h1.523l3.166,6.356
		l3.178-6.356h1.728v0.168c-1.116,0.108-1.224,0.228-1.176,1.427l0.084,4.257c0.036,1.235,0.084,1.392,1.211,1.487v0.168h-2.938
		v-0.168c1.056-0.084,1.091-0.24,1.08-1.487l-0.048-5.037h-0.048l-3.25,6.561h-0.108l-2.95-6.153h-0.024l-0.156,3.238
		c-0.036,0.564-0.048,0.972-0.048,1.295c0,1.151,0.12,1.475,1.235,1.583v0.168h-2.891v-0.168c0.744-0.06,0.996-0.264,1.091-0.744
		c0.084-0.36,0.18-1.079,0.264-2.314l0.168-2.195c0.012-0.324,0.024-0.588,0.024-0.804c0-0.852-0.204-1.007-1.115-1.115V24.987z"/>
	<path fill="#231815" stroke="#231815" stroke-width="0.75" stroke-miterlimit="10" d="M133.226,32.327
		c1.043-0.048,1.14-0.252,1.14-1.199v-4.773c0-0.936-0.096-1.139-1.14-1.199v-0.168h2.903v0.168c-1.032,0.06-1.14,0.264-1.14,1.199
		v4.773c0,0.947,0.108,1.151,1.14,1.199v0.168h-2.903V32.327z"/>
	<path fill="#231815" stroke="#231815" stroke-width="0.75" stroke-miterlimit="10" d="M137.078,32.327
		c0.708-0.048,1.043-0.288,1.14-0.624c0.096-0.36,0.132-1.02,0.132-2.231V26.87c0-1.067-0.06-1.007-0.276-1.271
		c-0.204-0.24-0.456-0.372-1.091-0.444v-0.168h1.475l5.541,6.333h0.036v-3.418c0-2.339-0.012-2.651-1.416-2.747v-0.168h2.975v0.168
		c-0.696,0.06-0.996,0.288-1.104,0.636c-0.108,0.372-0.12,0.983-0.12,2.111v4.677h-0.132l-5.529-6.296h-0.024v3.19
		c0.012,1.211,0.024,1.871,0.108,2.207c0.108,0.372,0.468,0.587,1.271,0.647v0.168h-2.986V32.327z"/>
	<path fill="#231815" stroke="#231815" stroke-width="0.75" stroke-miterlimit="10" d="M150.456,26.726
		c-0.204-0.695-0.492-1.643-1.655-1.643c-0.864,0-1.295,0.564-1.295,1.343c0,1.008,0.732,1.403,1.511,1.799
		c0.528,0.264,2.003,0.779,2.003,2.279c0,1.247-0.959,2.146-2.471,2.17c-0.492-0.024-0.912-0.096-1.211-0.192
		c-0.288-0.096-0.443-0.18-0.516-0.228c-0.096-0.312-0.216-1.175-0.288-1.895h0.192c0.192,0.647,0.708,2.003,2.111,2.003
		c0.923,0,1.487-0.504,1.487-1.559c0-1.211-0.983-1.619-1.619-1.979c-0.108-0.06-1.871-0.624-1.871-2.087
		c0-0.996,0.815-1.931,2.23-1.931c0.396,0,0.744,0.036,1.403,0.252c0.048,0.408,0.108,0.852,0.192,1.667H150.456z"/>
	<path fill="#231815" stroke="#231815" stroke-width="0.75" stroke-miterlimit="10" d="M153.853,28.345h5.061v-1.991
		c0-0.936-0.096-1.115-1.127-1.199v-0.168h2.902v0.168c-1.055,0.084-1.151,0.264-1.151,1.199v4.773c0,0.947,0.096,1.127,1.116,1.199
		v0.168h-2.962v-0.168c1.127-0.072,1.223-0.252,1.223-1.199v-2.411h-5.061v2.411c0,0.947,0.108,1.127,1.163,1.199v0.168h-2.89
		v-0.168c1.007-0.072,1.103-0.252,1.103-1.199v-4.773c0-0.936-0.096-1.115-1.151-1.199v-0.168h2.878v0.168
		c-0.995,0.084-1.103,0.264-1.103,1.199V28.345z"/>
	<path fill="#231815" stroke="#231815" stroke-width="0.75" stroke-miterlimit="10" d="M161.642,32.327
		c1.127-0.06,1.211-0.264,1.211-1.188v-4.701c0-1.031-0.096-1.235-1.091-1.283v-0.168h5.217c0,0.42,0.06,1.127,0.108,1.835
		l-0.204,0.036c-0.252-1.224-0.48-1.583-1.931-1.583h-1.127c-0.324,0-0.335,0.024-0.335,0.336v2.807h1.403
		c0.948,0,1.176-0.12,1.355-0.924h0.204v2.231h-0.204c-0.192-0.923-0.444-0.972-1.355-0.972h-1.403v2.339
		c0,1.127,0.492,1.127,1.487,1.127c0.732,0,1.451-0.012,1.835-0.456c0.192-0.228,0.492-0.648,0.672-1.188h0.204
		c-0.108,0.444-0.336,1.511-0.432,1.919h-5.613V32.327z"/>
	<path fill="#231815" stroke="#231815" stroke-width="0.75" stroke-miterlimit="10" d="M168.506,32.327
		c0.708-0.048,1.043-0.288,1.14-0.624c0.096-0.36,0.132-1.02,0.132-2.231V26.87c0-1.067-0.06-1.007-0.276-1.271
		c-0.204-0.24-0.456-0.372-1.091-0.444v-0.168h1.475l5.541,6.333h0.036v-3.418c0-2.339-0.012-2.651-1.416-2.747v-0.168h2.975v0.168
		c-0.696,0.06-0.996,0.288-1.104,0.636c-0.108,0.372-0.12,0.983-0.12,2.111v4.677h-0.132l-5.529-6.296h-0.024v3.19
		c0.012,1.211,0.024,1.871,0.108,2.207c0.108,0.372,0.468,0.587,1.271,0.647v0.168h-2.987V32.327z"/>
	<path fill="#231815" stroke="#231815" stroke-width="0.75" stroke-miterlimit="10" d="M185.782,29.293
		c-0.708,0.108-0.743,0.264-0.743,0.792v1.08c0,0.419,0.012,0.779,0.108,1.019c-0.78,0.192-1.799,0.492-2.783,0.492
		c-2.614,0-4.461-1.583-4.461-3.862c0-2.626,2.219-4.006,4.582-4.006c1.02,0,1.931,0.204,2.338,0.324
		c0.036,0.348,0.096,1.031,0.204,1.775l-0.192,0.024c-0.396-1.511-1.331-1.835-2.566-1.835c-2.303,0-3.514,1.331-3.514,3.55
		c0,1.679,0.959,3.73,3.61,3.73c0.636,0,1.175-0.072,1.535-0.192c0.36-0.12,0.504-0.288,0.504-0.815v-1.043
		c0-0.731-0.06-0.936-1.427-1.031v-0.168h2.806V29.293z"/>
	<path fill="#231815" stroke="#231815" stroke-width="0.75" stroke-miterlimit="10" d="M191.858,32.327
		c1.08-0.048,1.164-0.252,1.164-1.199v-4.773c-0.024-0.936-0.072-1.139-1.08-1.188v-0.18h2.902c1.667,0,2.315,0.612,2.315,1.655
		c0,1.043-1.007,1.535-1.547,1.667v0.024c1.056,0.156,2.075,0.779,2.075,1.931c0,0.828-0.42,1.416-1.151,1.811
		c-0.612,0.312-1.367,0.42-2.279,0.42h-2.399V32.327z M194.533,28.261c1.331,0,1.895-0.563,1.895-1.511
		c0-0.528-0.192-1.523-1.955-1.523c-0.384,0-0.576,0.012-0.66,0.024c-0.084,0.012-0.144,0.036-0.144,0.264v2.746H194.533z
		 M193.669,28.513v2.675c0,0.792,0.156,1.031,1.104,1.031c1.175,0,2.099-0.456,2.099-1.775s-0.959-1.931-2.351-1.931H193.669z"/>
	<path fill="#231815" stroke="#231815" stroke-width="0.75" stroke-miterlimit="10" d="M203.543,32.327
		c0.684-0.096,0.935-0.168,0.935-0.456c0-0.312-0.36-1.248-0.803-2.351h-2.771c-0.12,0.228-0.72,1.847-0.72,2.219
		c0,0.408,0.324,0.479,0.996,0.587v0.168h-2.723v-0.168c0.839-0.168,0.996-0.276,1.439-1.355l2.603-6.105l0.144-0.06l0.804,2.219
		c0.552,1.499,1.091,2.998,1.547,4.149c0.359,0.888,0.456,1.02,1.295,1.151v0.168h-2.746V32.327z M202.38,25.923
		c-0.48,1.067-0.948,2.207-1.332,3.214h2.519l-1.164-3.214H202.38z"/>
	<path fill="#231815" stroke="#231815" stroke-width="0.75" stroke-miterlimit="10" d="M206.965,32.327
		c0.708-0.048,1.043-0.288,1.14-0.624c0.096-0.36,0.132-1.02,0.132-2.231V26.87c0-1.067-0.06-1.007-0.276-1.271
		c-0.204-0.24-0.456-0.372-1.091-0.444v-0.168h1.475l5.541,6.333h0.036v-3.418c0-2.339-0.012-2.651-1.416-2.747v-0.168h2.975v0.168
		c-0.696,0.06-0.996,0.288-1.104,0.636c-0.108,0.372-0.12,0.983-0.12,2.111v4.677h-0.132l-5.529-6.296h-0.024v3.19
		c0.012,1.211,0.024,1.871,0.108,2.207c0.108,0.372,0.468,0.587,1.271,0.647v0.168h-2.986V32.327z"/>
	<path fill="#231815" stroke="#231815" stroke-width="0.75" stroke-miterlimit="10" d="M216.313,32.327
		c0.995-0.048,1.091-0.276,1.091-1.319v-4.545c0-1.02-0.096-1.247-1.175-1.307v-0.168h2.962v0.168
		c-1.043,0.06-1.14,0.288-1.14,1.307v2.075c0.24-0.048,0.528-0.18,0.815-0.396c0.9-0.731,2.411-2.363,2.411-2.675
		c0-0.168-0.192-0.204-0.816-0.312v-0.168h2.938v0.168c-0.839,0.12-1.271,0.36-1.871,0.887c-0.372,0.312-1.523,1.355-2.458,2.291
		c0.923,1.031,2.542,2.71,2.962,3.082c0.744,0.672,0.947,0.84,1.571,0.912v0.168h-1.487c-1.211-1.235-2.087-2.099-3.286-3.442
		c-0.204-0.204-0.372-0.312-0.588-0.312c-0.06,0-0.132,0.012-0.192,0.024v2.243c0.012,1.043,0.096,1.271,1.188,1.319v0.168h-2.926
		V32.327z"/>
</g>
<g>
</g>
<g>
	<path d="M155.995,139.123V87.092h46.172v10.313c0.154,5.313-2.578,7.969-8.203,7.969h-7.266c0.312,2.813,0.469,5.471,0.469,7.969
		h18.516v5.156H187.87c1.406,9.844,4.296,14.843,8.672,15c2.344,0,3.516-1.326,3.516-3.984h5.391c0,6.094-2.893,9.141-8.672,9.141
		c-8.438,0.154-13.828-6.405-16.172-19.688c0-0.312-0.081-0.469-0.234-0.469h-16.875v12.188c3.904-1.091,7.266-2.263,10.078-3.516
		v5.625C168.259,135.293,162.4,137.402,155.995,139.123z M163.495,92.013v8.438h28.125c2.187,0.157,3.201-0.938,3.047-3.281v-5.156
		H163.495z M179.667,113.342c-0.315-2.498-0.469-5.156-0.469-7.969h-15.703v7.969H179.667z"/>
	<path d="M212.142,111.232v-5.156h19.219V84.748h8.203v7.734h21.797v5.156h-21.797v8.438h26.953v5.156H212.142z M231.126,139.357
		v-26.25h8.203v26.25H231.126z M262.298,132.092c-6.877-4.53-13.828-7.888-20.859-10.078v-5.625
		c8.28,1.721,15.234,4.299,20.859,7.734V132.092z"/>
	<path d="M273.445,92.717v-4.922h10.547c3.593,0,6.874-0.388,9.844-1.172v5.156c-0.157,0-0.315,0.081-0.469,0.234
		c-1.875,0.315-3.984,0.549-6.328,0.703v7.266h6.797v4.922h-6.563c1.718,5.002,3.984,9.456,6.797,13.359v6.563
		c-3.127-3.435-5.471-6.482-7.031-9.141v23.438h-6.797v-20.625c-1.252,2.97-3.907,6.797-7.969,11.484v-7.031
		c3.435-5.779,6.013-11.796,7.734-18.047h-7.031v-4.922h7.266v-7.266H273.445z M291.96,139.123v-4.922
		c4.373-3.281,6.797-8.123,7.266-14.531h7.031C305.631,128.733,300.867,135.216,291.96,139.123z M296.414,116.154V88.498h27.657
		v19.219c0.311,5.94-2.344,8.752-7.969,8.438H296.414z M303.445,111.467h10.078c2.498,0.157,3.669-1.091,3.516-3.75V93.185h-13.594
		V111.467z M327.352,139.123c-8.753-4.219-13.44-10.701-14.063-19.453h6.797c0.779,6.409,3.2,11.173,7.266,14.297V139.123z"/>
	<path d="M362.873,137.482v-4.453h4.453c2.654,0.157,3.903-1.172,3.75-3.984v-16.641h-13.594
		c-0.469,13.282-7.815,22.186-22.031,26.719v-4.688c9.375-4.688,14.139-12.03,14.297-22.031h-7.969v-4.688
		c-1.253,0.784-3.281,1.798-6.094,3.047c-0.938,0.469-1.641,0.784-2.109,0.938v-4.922c8.438-4.373,13.67-11.25,15.703-20.625h7.734
		c-2.344,10.159-7.189,17.19-14.531,21.094h35.859c-7.347-3.904-12.188-10.935-14.531-21.094h7.969
		c1.875,9.221,7.107,16.095,15.703,20.625v4.922c-3.281-1.406-6.175-2.813-8.672-4.219v22.031c0.153,5.468-2.736,8.123-8.672,7.969
		H362.873z"/>
	<path d="M409.41,97.638c-0.158-1.875-0.627-3.669-1.406-5.391h-2.813c-2.189,2.97-5.705,5.002-10.547,6.094v-3.75
		c3.904-1.875,6.248-4.999,7.031-9.375h6.563c-0.158,1.095-0.393,2.032-0.703,2.813h13.828v4.219h-7.5
		c0.779,2.032,1.248,3.831,1.406,5.391H409.41z M435.191,97.404c-0.158-2.029-0.549-3.75-1.172-5.156h-3.281
		c-0.938,1.721-2.813,3.281-5.625,4.688v3.047h21.797v8.438h-6.328v5.625c0.154,4.688-1.955,6.954-6.328,6.797h-25.781v3.75h33.984
		v6.328c0.154,4.842-2.189,7.186-7.031,7.031h-34.453V108.42h-5.391v-8.438h21.328v-3.047h3.75v-2.344
		c3.592-1.875,5.701-4.999,6.328-9.375h6.563l-0.703,2.813h15.234v4.219h-8.203c0.469,1.563,0.938,3.281,1.406,5.156H435.191z
		 M402.848,104.435v3.75h36.563v-3.75H402.848z M408.473,112.17v4.688h22.734c1.717,0.157,2.498-0.703,2.344-2.578v-2.109H408.473z
		 M435.191,128.81h-26.719v4.688h24.141c1.875,0.154,2.732-0.623,2.578-2.344V128.81z"/>
	<path d="M455.01,92.951v-4.688h17.578v4.688h-5.156v13.359h4.688v4.922h-4.688v15.469c1.561-0.312,3.359-0.78,5.391-1.406v4.688
		c-4.533,2.19-10.627,3.75-18.281,4.688v-5.625l5.859-0.938v-16.875h-5.156v-4.922h5.156V92.951H455.01z M474.697,115.217V87.326
		h31.875v20.391c0.154,5.002-2.344,7.5-7.5,7.5h-4.922v5.625h12.891v4.922H494.15v6.797h15.234v4.453h-37.969v-4.453h15.703v-6.797
		h-12.891v-4.922h12.891v-5.625H474.697z M481.025,92.248v6.328h6.094v-6.328H481.025z M481.025,110.295h6.094v-6.797h-6.094
		V110.295z M500.244,92.248h-6.094v6.328h6.094V92.248z M496.963,110.295c2.344,0,3.436-1.091,3.281-3.281v-3.516h-6.094v6.797
		H496.963z"/>
	<path d="M517.953,92.717V87.56h48.984v5.156h-20.625v22.734h22.969v5.156h-22.969v18.516h-7.969v-18.516h-22.969v-5.156h22.969
		V92.717H517.953z M525.219,110.529c-2.344-4.373-3.906-8.749-4.688-13.125h7.734c0.623,4.376,1.875,8.752,3.75,13.125H525.219z
		 M552.641,110.529c2.029-4.373,3.281-8.749,3.75-13.125h7.5c-0.938,4.845-2.424,9.221-4.453,13.125H552.641z"/>
	<path d="M620.977,110.06c-0.316-1.249-0.703-2.498-1.172-3.75c-9.844,1.252-21.645,1.875-35.391,1.875h-5.391v-5.859
		c6.246-5.156,11.016-10.858,14.297-17.109h9.141c-3.908,7.031-9.064,12.737-15.469,17.109c12.34,0,22.652-0.312,30.938-0.938
		c-0.627-1.875-1.957-4.688-3.984-8.438h6.797c2.965,4.845,5.543,10.547,7.734,17.109H620.977z M581.602,137.248v-23.906h42.891
		v16.172c0.152,5.311-2.66,7.889-8.438,7.734H581.602z M589.102,132.795h24.141c2.496,0.157,3.668-1.172,3.516-3.984v-10.313
		h-27.656V132.795z"/>
</g>
<g>
</g>
<g>
</g>
<g>
	<path fill-rule="evenodd" clip-rule="evenodd" fill="#040000" stroke="#231815" stroke-width="0.25" stroke-miterlimit="10" d="
		M89.922,125.286c4.726-5.306,9.166-10.854,13.733-16.294c5.044-6.009,10.093-12.02,16.092-17.121
		c6.69-5.687,14.022-10.331,22.336-13.3c2.704-0.965,5.499-1.52,8.367-1.679c1.084-0.061,2.168-0.043,3.189,0.395
		c0.776,0.333,1.096,0.955,0.949,1.778c-0.14,0.788-0.649,1.2-1.444,1.25c-0.385,0.023-0.777,0.067-1.157,0.026
		c-5.244-0.562-10.107,0.82-14.777,3.001c-6.742,3.148-12.849,7.358-18.774,11.793c-1.836,1.375-3.102,3.517-4.614,5.32
		c-7.071,8.434-13.79,17.167-21.337,25.196c-3.522,3.745-7.173,7.35-11.529,10.167c-0.855,0.553-1.478,1.457-2.227,2.18
		c-0.443,0.428-0.918,0.826-1.393,1.22c-0.398,0.329-0.795,0.24-1.14-0.096c-0.41-0.401-0.203-0.757,0.107-1.102
		c0.643-0.72,1.509-1.188,2.105-1.974c2.258-2.978,3.826-6.327,5.255-9.742c3.461-8.273,6.214-16.824,9.781-25.057
		c0.021-0.215,0.132-0.51-0.292-0.326c-3.411,3.995-6.423,8.298-9.631,12.45c-5.18,6.704-10.598,13.198-16.929,18.867
		c-2.706,2.424-5.545,4.684-8.693,6.522c-0.364,0.213-0.76,0.37-1.142,0.552c-0.43,0.207-0.742-0.003-1.023-0.297
		c-0.319-0.333-0.26-0.711-0.077-1.072c0.083-0.166,0.232-0.305,0.372-0.438c6.712-6.343,11.213-14.181,15.123-22.411
		c2.188-4.605,4.066-9.325,4.962-14.379c0.47-2.65,0.54-5.294-0.111-7.931c-1.166-4.729-4.977-7.319-9.836-6.826
		c-4.176,0.423-7.819,2.08-11.039,4.647c-6.2,4.945-11.147,10.877-13.912,18.425c-1.085,2.966-1.542,6.043-1.42,9.207
		c0.236,6.128,4.918,9.61,10.875,8.071c3.64-0.941,6.416-3.227,9.123-5.693c5.076-4.626,7.539-10.41,7.916-17.174
		c0.036-0.653,0.017-1.318-0.065-1.966c-0.384-3.044-2.67-4.541-5.616-3.704c1.906,0.995,2.492,2.57,1.604,4.32
		c-0.896,1.768-3.223,2.572-4.963,1.716c-1.026-0.505-1.362-1.426-1.438-2.472c-0.207-2.826,2.282-5.618,5.318-5.988
		c4.167-0.507,7.208,2.205,7.42,6.622c0.17,3.524-0.759,6.807-2.283,9.931c-2.585,5.298-5.894,10.06-10.643,13.667
		c-3.26,2.476-6.943,3.707-11.061,3.13c-4.786-0.671-8.639-4.966-9.424-10.279c-0.813-5.486,0.641-10.493,3.27-15.212
		c3.292-5.91,12.697-14.554,18.825-17.426c3.909-1.833,8.035-2.788,12.258-1.661c6.071,1.62,9.302,6.066,10.616,11.968
		c1.108,4.98-0.077,9.723-1.974,14.33c-1.176,2.858-2.616,5.58-4.206,8.229c-0.181,0.302-0.49,0.573-0.454,1.355
		c1.115-1.338,2.039-2.441,2.957-3.549c5.912-7.142,11.387-14.629,17.226-21.828c2.361-2.91,4.822-5.742,7.623-8.251
		c0.514-0.461,1.08-0.875,1.662-1.246c0.508-0.325,1.106-0.485,1.573,0.052c0.435,0.501,0.178,1.002-0.163,1.469
		c-1.294,1.779-2.5,3.615-3.646,5.495c-1.124,1.844-1.541,3.939-2.2,5.942c-2.394,7.28-4.605,14.625-7.675,21.664
		c-0.783,1.796-1.686,3.54-2.533,5.308C89.698,125.211,89.756,125.296,89.922,125.286z"/>
	<path fill-rule="evenodd" clip-rule="evenodd" fill="#040000" stroke="#231815" stroke-width="0.25" stroke-miterlimit="10" d="
		M118.919,129.112c-1.64,1.66-3.111,3.188-4.824,4.444c-1.373,1.007-2.797,1.919-4.449,2.41c-5.037,1.5-9.524-2.121-9.181-7.38
		c0.225-3.463,1.896-6.142,4.461-8.324c3.481-2.961,7.358-5.209,11.866-6.194c2.54-0.555,4.61,0.292,5.377,2.059
		c0.752,1.733-0.038,3.97-2.021,5.444c-2.532,1.881-5.535,2.653-8.511,3.462c-1.189,0.323-2.387,0.642-3.602,0.83
		c-0.79,0.122-1.21,0.53-1.563,1.171c-0.708,1.288-1.373,2.582-1.575,4.068c-0.278,2.04,0.632,3.087,2.709,3.043
		c2.521-0.051,4.424-1.455,6.256-2.953c2.193-1.793,3.875-4.086,5.825-6.111c2.971-3.083,5.096-6.7,7.219-10.343
		c0.147-0.254,0.246-0.624,0.655-0.534c1.764,0.392,3.53,0.139,5.465-0.034c-1.571,2.762-3.073,5.4-4.571,8.041
		c-1.485,2.614-2.966,5.23-4.447,7.846c-0.476,0.842-0.898,1.713-1.099,2.661c-0.092,0.432-0.218,0.939,0.212,1.301
		c0.451,0.377,0.969,0.251,1.428,0.057c0.97-0.411,1.775-1.079,2.529-1.805c2.822-2.722,5.095-5.895,7.388-9.049
		c0.136-0.187,0.263-0.381,0.401-0.565c0.387-0.518,0.938-0.631,1.429-0.305c0.597,0.396,0.5,0.994,0.112,1.521
		c-1.326,1.803-2.626,3.628-4.006,5.389c-1.717,2.193-3.545,4.285-5.866,5.885c-1.87,1.289-3.823,1.748-5.809,0.371
		c-2.017-1.398-2.464-3.433-1.992-5.742C118.768,129.626,118.816,129.482,118.919,129.112z"/>
	<path fill-rule="evenodd" clip-rule="evenodd" fill="#040000" stroke="#231815" stroke-width="0.25" stroke-miterlimit="10" d="
		M131.847,112.129c-1.748-0.013-2.623-1.221-2.246-3.097c0.37-1.84,2.483-3.538,4.365-3.507c1.442,0.023,2.212,0.79,2.235,2.223
		C136.236,110.02,134.125,112.146,131.847,112.129z"/>
	<path fill-rule="evenodd" clip-rule="evenodd" fill="#E3E3E3" stroke="#231815" stroke-width="0.25" stroke-miterlimit="10" d="
		M93.153,100.923c0.115-0.285,0.259-0.542,0.632-0.653c0.104,0.417-0.116,0.699-0.34,0.979
		C93.348,101.139,93.251,101.031,93.153,100.923z"/>
	<path fill-rule="evenodd" clip-rule="evenodd" fill="#BBBBBB" stroke="#231815" stroke-width="0.25" stroke-miterlimit="10" d="
		M89.922,125.286c-0.084,0.257-0.289,0.621-0.493,0.447c-0.258-0.219,0.075-0.49,0.289-0.677
		C89.786,125.133,89.853,125.21,89.922,125.286z"/>
	<path fill-rule="evenodd" clip-rule="evenodd" fill="#FDFDFD" stroke="#231815" stroke-width="0.25" stroke-miterlimit="10" d="
		M108.221,123.688c2.605-2.649,5.08-5.448,8.4-7.269c0.629-0.345,1.529-0.887,2-0.292c0.56,0.706-0.153,1.524-0.684,2.114
		c-1.84,2.045-4.207,3.334-6.654,4.483C110.329,123.172,109.365,123.626,108.221,123.688z"/>
</g>
</svg>
