<?xml version="1.0" encoding="utf-8"?>
<!-- Generator: Adobe Illustrator 16.0.0, SVG Export Plug-In . SVG Version: 6.00 Build 0)  -->
<!DOCTYPE svg PUBLIC "-//W3C//DTD SVG 1.1//EN" "http://www.w3.org/Graphics/SVG/1.1/DTD/svg11.dtd">
<svg version="1.1" id="图层_1" xmlns="http://www.w3.org/2000/svg" xmlns:xlink="http://www.w3.org/1999/xlink" x="0px" y="0px"
	 width="730px" height="93.55px" viewBox="-5 0 730 93.55" enable-background="new -5 0 730 93.55" xml:space="preserve">
<g>
	<g>
	</g>
	<g>
	</g>
	<g>
		<path stroke="#000000" stroke-width="2" stroke-miterlimit="10" d="M226.558,33.309l13.861-16.777v63.941h-4.032V26.54l-6.3,7.705
			L226.558,33.309z M254.405,41.229v22.898c0,8.424-3.528,13.681-9.451,16.489l-2.52-1.729c4.915-2.448,7.938-7.129,7.938-14.761
			V41.229H254.405z M244.325,35.757l6.678-14.545c2.016-3.96,3.906-3.744,8.19-3.744h10.081c4.032,0,5.922-0.216,8.19,3.744
			l6.678,14.545l-3.78,0.504l-6.678-14.545v0.072c-1.386-2.16-2.268-2.016-4.41-2.016h-10.081c-2.268,0-3.276-0.144-4.41,2.016
			v-0.072l-6.678,14.545L244.325,35.757z M277.591,41.445v39.243h-4.032V41.445H277.591z"/>
		<path stroke="#000000" stroke-width="2" stroke-miterlimit="10" d="M289.054,80.041c1.89-8.209,3.024-22.106,3.024-38.092v-4.464
			h4.032v4.464c0,16.13-1.134,30.171-3.024,38.38L289.054,80.041z M300.269,80.833V32.084h-10.585V29.78h10.585v-9.289l-9.577,0.72
			l-0.504-2.304l23.185-1.8l0.378,2.304l-9.45,0.72v9.649h10.207v2.304h-10.207v48.749H300.269z M309.467,80.041V37.485h4.032
			v42.556H309.467z M343.867,14.803l-3.024,10.081c3.402,0.36,6.048,1.872,6.048,5.977v16.202c0,4.609-3.402,5.904-7.435,5.904
			h-0.126v22.826c0,2.232,1.638,2.665,3.528,2.665h4.914v2.304h-4.914c-4.032,0-7.561-0.864-7.561-4.969V52.966h-6.678v6.409
			c-0.126,8.784-2.142,14.546-9.577,21.17l-3.402-1.225c6.931-6.12,8.821-11.593,8.947-19.945v-6.409
			c-3.78-0.144-6.679-1.584-6.679-5.904V30.86c0-4.176,2.646-5.688,6.174-5.977l-3.15-10.081l4.032-0.432l3.15,10.441h8.569
			l3.15-10.441L343.867,14.803z M339.457,50.662c1.89,0,3.402-0.72,3.402-3.6V30.86c0-2.952-1.512-3.744-3.402-3.744h-14.113
			c-2.016,0-3.402,0.792-3.402,3.744v16.202c0,2.88,1.386,3.6,3.402,3.6H339.457z"/>
		<path stroke="#000000" stroke-width="2" stroke-miterlimit="10" d="M370.828,14.731c-3.023,11.953-7.308,20.018-14.994,27.506
			l-3.528-1.224c7.435-7.201,11.467-15.049,14.491-26.714L370.828,14.731z M392.124,77.305h6.679c2.142,0,3.906-0.721,3.906-3.601
			V48.502c0-2.88-1.765-3.6-3.906-3.6h-25.202c-1.89,13.537-8.063,26.93-16.002,34.563l-3.528-1.225
			c7.686-7.345,13.609-20.233,15.499-33.338h-9.828v-2.304h39.063c4.284,0,7.938,1.296,7.938,5.904v25.202
			c0,4.608-3.654,5.904-7.938,5.904h-6.679V77.305z M395.652,14.155l14.869,27.146l-3.78,0.648l-14.869-27.074L395.652,14.155z"/>
		<path stroke="#000000" stroke-width="2" stroke-miterlimit="10" d="M415.81,19.556h26.587v-6.193h4.032v6.193h26.462v2.304H415.81
			V19.556z M468.48,26.54v15.553c0,4.033-3.15,4.537-6.805,4.537h-18.901l-2.142,6.625h22.051c4.284,0,7.938,1.295,7.938,5.904
			v15.625c0,4.608-3.654,5.904-7.938,5.904h-4.284v-2.304h4.284c2.143,0,3.906-0.721,3.906-3.601V59.159
			c0-2.809-1.764-3.601-3.906-3.601h-22.807l-5.167,15.554h16.634c1.638,0,2.771-0.289,2.771-2.232v-6.697h4.032v6.697
			c0,3.96-3.024,4.536-6.804,4.536h-21.548l5.923-17.857h-9.577c-2.142,0-3.906,0.792-3.906,3.601v21.529h-4.032V59.159
			c0-4.609,3.402-5.904,7.938-5.904h10.333l2.142-6.625H427.15c-3.654,0-6.805-0.504-6.805-4.537V26.54h4.032v15.553
			c0,2.016,1.26,2.232,2.772,2.232h34.525c1.512,0,2.772-0.216,2.772-2.232V26.54H468.48z M431.057,25.82l14.616,5.833
			c4.41-1.8,8.694-3.816,12.601-6.048l2.898,1.656c-3.78,2.088-7.813,4.032-11.971,5.76l12.979,5.185l-2.394,1.872l-14.113-5.616
			c-5.166,2.016-10.585,3.744-16.381,5.256l-1.764-2.016c5.166-1.368,9.954-2.88,14.616-4.608l-13.482-5.4L431.057,25.82z"/>
		<path stroke="#000000" stroke-width="2" stroke-miterlimit="10" d="M487.252,15.667l-2.772,5.257h21.295v2.304h-13.23v8.497
			h-4.032v-8.497h-9.576l4.536-8.281L487.252,15.667z M508.673,28.196v6.409h18.397c3.654,0,6.804,0.576,6.804,4.68v5.833h-4.032
			v-5.833c0-2.016-1.26-2.376-2.771-2.376h-40.7c-1.639,0-2.772,0.36-2.772,2.376v5.833h-4.032v-5.833c0-4.104,3.15-4.68,6.805-4.68
			h18.271v-6.409H508.673z M488.008,58.007v6.912h37.172c3.15,0,5.545,1.152,5.545,4.177v5.545c0,3.096-2.395,4.32-5.545,4.32
			H490.78c-3.654,0-6.805-0.576-6.805-4.537V48.431c0-4.033,3.15-4.537,6.805-4.537h33.644c3.276,0,5.67,0.864,5.67,3.961v6.12
			c0,3.097-2.394,4.032-5.67,4.032H488.008z M488.008,55.702h36.416c0.882,0,1.638-0.359,1.638-1.728v-6.12
			c0-1.369-0.756-1.657-1.638-1.657H490.78c-1.513,0-2.772,0.216-2.772,2.233V55.702z M488.008,67.224v7.2
			c0,1.944,1.26,2.232,2.772,2.232h34.399c0.882,0,1.513-0.576,1.513-2.016v-5.545c0-1.368-0.631-1.872-1.513-1.872H488.008z
			 M518.628,15.667l-2.646,5.257h19.783v2.304H523.29v8.497h-4.032v-8.497h-8.82l4.41-8.281L518.628,15.667z"/>
		<path stroke="#000000" stroke-width="2" stroke-miterlimit="10" d="M542.565,19.051h17.641v2.304h-6.804v23.69h6.426v2.305h-6.426
			v23.545l7.056-2.016l1.639,2.016l-19.657,5.545l-1.639-2.017l8.569-2.376V47.351h-6.427v-2.305h6.427v-23.69h-6.805V19.051z
			 M563.986,60.526h15.247V49.222h-7.561c-4.284,0-7.938-1.224-7.938-5.832V20.996c0-4.537,3.654-5.833,7.938-5.833h18.901
			c4.284,0,7.938,1.296,7.938,5.833V43.39c0,4.608-3.654,5.832-7.938,5.832h-7.435v11.305h15.121v2.305H583.14v14.689h16.759v2.304
			h-37.424v-2.304h16.759V62.831h-15.247V60.526z M567.767,31.292h11.467V17.467h-7.561c-2.142,0-3.906,0.72-3.906,3.528V31.292z
			 M571.673,46.918h7.561V33.597h-11.467v9.793C567.767,46.198,569.531,46.918,571.673,46.918z M583.14,17.467v13.825h11.341V20.996
			c0-2.808-1.765-3.528-3.906-3.528H583.14z M594.48,43.39v-9.793H583.14v13.321h7.435C592.716,46.918,594.48,46.198,594.48,43.39z"
			/>
		<path stroke="#000000" stroke-width="2" stroke-miterlimit="10" d="M606.825,15.811h53.049v2.304h-24.445v35.931h26.588v2.305
			h-26.588v24.41h-4.032v-24.41H604.81v-2.305h26.587V18.115h-24.571V15.811z M614.008,23.804l7.309,22.97l-4.032,0.432
			l-7.309-23.042L614.008,23.804z M656.725,24.092c-1.765,8.641-4.158,15.985-7.435,23.187l-3.78-0.577
			c3.024-6.769,5.418-13.969,7.183-22.826L656.725,24.092z"/>
		<path stroke="#000000" stroke-width="2" stroke-miterlimit="10" d="M670.581,54.118c0-4.607,3.654-5.904,7.938-5.904h35.66
			c4.536,0,7.938,1.297,7.938,5.904v19.154c0,4.608-3.402,5.904-7.938,5.904h-35.66c-4.284,0-7.938-1.296-7.938-5.904V54.118z
			 M721.11,23.012v11.593c0,4.608-3.654,5.833-7.938,5.833h-41.708l7.56-26.57l4.033,0.432l-6.931,23.834h37.046
			c2.143,0,3.906-0.72,3.906-3.528V23.012H721.11z M674.613,73.272c0,2.88,1.765,3.6,3.906,3.6h35.66c2.143,0,3.906-0.72,3.906-3.6
			V54.118c0-2.809-1.764-3.6-3.906-3.6h-35.66c-2.142,0-3.906,0.791-3.906,3.6V73.272z"/>
	</g>
</g>
<g>
	<path stroke="#231815" stroke-width="0.25" stroke-miterlimit="10" d="M112.581,86.078"/>
	<path stroke="#231815" stroke-width="0.25" stroke-miterlimit="10" d="M181.626,85.828"/>
</g>
<g>
</g>
<g id="图层_2">
</g>
<g>
</g>
<g>
</g>
<g>
	<path fill="#004276" d="M107.3,77.962H95.8v-5.522c-3.249,4.505-7.971,6.757-14.166,6.757c-6.758,0-12.237-2.403-16.439-7.212
		c-4.158-4.678-6.238-10.505-6.238-17.479c0-6.93,2.105-12.778,6.314-17.544c4.209-4.765,9.632-7.147,16.273-7.147
		c6.117,0,10.828,2.144,14.125,6.433v-5.068h11.63V77.962z M95.994,54.766c0-3.899-1.257-7.268-3.769-10.105
		c-2.512-2.836-5.675-4.255-9.486-4.255c-3.769,0-6.865,1.451-9.291,4.353c-2.34,2.728-3.508,5.977-3.508,9.747
		c0,3.813,1.212,7.104,3.638,9.877c2.555,2.902,5.675,4.352,9.357,4.352c3.596,0,6.692-1.449,9.291-4.352
		C94.737,61.61,95.994,58.402,95.994,54.766z"/>
</g>
<path fill="#FEFEFE" d="M4.85,76.585c6.989-0.164,6.337,0.785,6.377-7.113c0.028-5.172-0.06-10.342,0.038-15.511
	c0.065-3.475,0.716-4.205,3.88-4.241c6.956-0.08,13.913-0.089,20.866,0.004c3.298,0.042,3.979,0.803,4.036,4.422
	c0.099,6.165-0.002,12.333,0.044,18.499c0.026,3.573,0.303,3.851,3.6,3.905c1.625,0.024,3.25,0.017,4.876,0.003
	c3.727-0.031,3.844-0.149,3.873-4.132c0.019-2.486,0.004-4.973,0.004-7.459c0-15.316,0.002-30.631,0-45.947
	c-0.002-5.024-0.01-5.024-4.689-5.031c-1.448-0.002-2.891-0.027-4.338,0.011c-2.97,0.079-3.288,0.381-3.32,3.597
	c-0.057,5.47,0.004,10.939-0.025,16.41c-0.028,5.087-0.515,5.629-5.143,5.647c-6.503,0.023-13.008,0.053-19.51-0.016
	c-3.49-0.036-4.115-0.721-4.165-4.546c-0.077-5.765,0.009-11.534-0.038-17.302c-0.026-3.49-0.271-3.737-3.386-3.792
	c-2.168-0.038-4.337,0.015-6.505-0.021C0.154,13.949,2.557,76.64,4.85,76.585z"/>
<path fill="#004276" d="M-2,11.893c4.064,0,8.135,0.072,12.198-0.04c1.546-0.04,1.997,0.489,1.979,2.183
	c-0.078,7.063,0.033,14.129-0.076,21.189c-0.029,1.985,0.508,2.485,2.273,2.459c7.589-0.109,15.182-0.108,22.772-0.012
	c1.652,0.022,2.14-0.415,2.113-2.287c-0.106-7.063,0.012-14.128-0.083-21.191c-0.023-1.833,0.424-2.419,2.116-2.346
	c3.337,0.143,6.688,0.114,10.029,0.012c1.477-0.045,2.033,0.346,2.028,2.12c-0.055,20.197-0.046,40.395-0.007,60.591
	c0.003,1.504-0.304,2.105-1.781,2.053c-3.43-0.113-6.871-0.146-10.299,0c-1.71,0.07-2.106-0.561-2.084-2.361
	c0.091-7.355-0.02-14.725,0.077-22.083c0.023-1.937-0.231-2.768-2.278-2.73c-7.588,0.146-15.182,0.114-22.772,0.015
	c-1.697-0.024-2.123,0.53-2.101,2.349c0.092,7.36-0.06,14.729,0.094,22.086c0.05,2.326-0.602,2.851-2.572,2.736
	C5.757,76.407,1.875,76.444-2,76.374C-2,54.881-2,33.388-2,11.893z"/>
<path fill="#004276" d="M212.35,36.631c-2.316,1.522-4.528,3.245-6.745,4.95c-3.599,2.771-5.244,6.594-5.189,11.448
	c0.084,7.454-0.023,14.909,0.06,22.365c0.018,1.77-0.339,2.479-2.083,2.378c-2.789-0.164-5.596-0.118-8.391-0.02
	c-1.397,0.05-1.893-0.409-1.858-2c0.089-4.273,0.031-8.55,0.029-12.821c0-3.382,0.083-6.762-0.017-10.139
	c-0.213-7.163,2.473-12.89,7.118-17.628c3.381-3.454,7.207-6.261,11.078-9.007c1.495-1.059,2.086-0.667,2.822,0.871
	c1.13,2.365,2.377,4.671,3.714,6.903"/>
<path fill="#014276" d="M127.546,54.819c0,6.858-0.055,13.72,0.035,20.577c0.024,1.81-0.427,2.439-2.114,2.359
	c-2.883-0.142-5.779-0.081-8.667-0.012c-1.289,0.034-1.993-0.229-1.987-1.916c0.044-14.017,0.034-28.039,0.013-42.058
	c-0.004-1.269,0.391-1.744,1.572-1.717c3.069,0.068,6.143,0.11,9.21-0.018c1.568-0.063,1.986,0.533,1.968,2.199
	C127.503,41.093,127.546,47.955,127.546,54.819z"/>
<path fill="#024276" d="M121.438,11.844c6.108,0,6.108,0,6.108,6.748c0,6.561,0,6.561-6.034,6.563
	c-6.681,0.003-6.681,0.003-6.685-7.388c0-5.923,0-5.923,5.262-5.923C120.54,11.844,120.989,11.844,121.438,11.844z"/>
<g>
	<path fill="#004276" d="M178.613,67.208c-0.17,0.3-0.344,0.593-0.521,0.881c-4.603,7.492-11.397,11.238-20.386,11.238
		c-7.408,0-13.386-2.404-17.934-7.214c-4.463-4.679-6.694-10.524-6.694-17.543c0-7.233,2.448-13.211,7.343-17.934
		c4.764-4.592,10.462-6.888,17.088-6.888c7.321,0,13.278,2.534,17.87,7.604c4.417,4.937,6.626,11.067,6.626,18.388v2.663h-37.101
		c1.169,7.192,5.458,10.787,12.866,10.787c4.549,0,7.557-1.105,9.031-3.313c0.521-0.78,4.123-2.86,4.123-2.86 M157.707,39.95
		c-6.413,0-10.571,3.206-12.477,9.616h24.69C168.447,43.157,164.375,39.95,157.707,39.95z"/>
</g>
<g>
</g>
</svg>
