<?xml version="1.0" encoding="utf-8"?>
<!-- Generator: Adobe Illustrator 16.0.0, SVG Export Plug-In . SVG Version: 6.00 Build 0)  -->
<!DOCTYPE svg PUBLIC "-//W3C//DTD SVG 1.1//EN" "http://www.w3.org/Graphics/SVG/1.1/DTD/svg11.dtd">
<svg version="1.1" id="图层_1" xmlns="http://www.w3.org/2000/svg" xmlns:xlink="http://www.w3.org/1999/xlink" x="0px" y="0px"
	 width="580.4px" height="93.549px" viewBox="15.001 0 580.4 93.549" enable-background="new 15.001 0 580.4 93.549"
	 xml:space="preserve">
<g>
	<path fill-rule="evenodd" clip-rule="evenodd" fill="#0B9C57" d="M82.641,62.087c-4.697,3.164-9.573,5.955-14.205,9.172
		c-3.331,2.316-5.883,2.313-8.636,0.048c-3.333-2.745-6.99-4.639-10.423-7.096c-1.129-0.808-2.549-1.37-2.605-3.392
		c-0.06-2.108,1.582-1.976,2.525-2.754c0.722-0.593,1.448-1.174,2.174-1.758c0.768-0.291,2.021,0.328,1.868-1.643
		c-0.904-1.641-2.251-1.367-3.529-1.384c-1.926-0.02-3.864,0.05-5.648-1.129c-6.809-1.447-12.629-4.911-17.558-11.474
		c-5.974-7.954-3.805-17.225,0.534-23.268c4.272-5.953,9.715-9.085,15.625-11.157C57.519,1.078,72.42,0.301,87.164,5.73
		c7.88,2.902,15.855,6.402,20.834,15.863c0.422,1.279,1.302,2.172,1.644,3.567c1.008,4.123-0.03,6.017-3.426,6.149
		c-3.264,0.125-6.541-0.395-9.794,0.354c-0.672,0.155-1.273-0.267-1.748-0.908C92.805,17.626,81.889,10.181,73.453,9.573
		c-8.441-0.608-16.787-0.478-24.7,4.065c-2.632,1.51-5.114,3.312-7.272,5.791c-4.657,5.349-4.352,15.138,0.535,20.309
		c3.964,4.194,8.623,6.654,13.573,7.079c6.177,0.535,11.935,1.965,17.209,6.251c1.365,1.107,3.052,1.568,4.591,2.326
		c1.781,0.884,3.733,1.293,5.208,3.031C83.449,59.629,83.181,60.855,82.641,62.087z"/>
	<path fill-rule="evenodd" clip-rule="evenodd" fill="#2284B9" d="M89.253,84.126c-4.42,1.04-8.615,3.502-13.211,3.437
		c-3.26-0.984-6.202,1.085-9.31,1.571c-11.866,0.692-23.231-1.81-33.885-8.732c-0.673-0.438-1.598,0.038-2.058-1.019
		c-0.708-0.448,1.528-1.748-0.419-2.036c-1.021-0.152-1.972-1.129-3.022-1.53c-0.165,0-0.328-0.024-0.488-0.072
		c-1.075-0.812-1.965-1.861-2.596-3.25c-0.304-0.4-0.707-0.737-0.898-1.212c-3.918-9.771-3.436-10.806,5.036-10.9
		c0.221-0.002,0.441-0.005,0.662-0.008c6.56-0.075,6.512-0.047,9.164,7.556c1.3,3.731,3.743,6.261,6.5,8.013
		c12.191,7.745,24.7,8.036,37.391,2.116c1.546-0.719,3.062-1.54,4.591-2.314c3.871-2.547,6.331-6.096,6.312-12.119
		c-0.019-6.599-1.736-11.727-6.42-14.929l0.015,0.019c-1.27-2.884-3.768-3.455-5.825-4.063c-2.831-0.833-5.61-2.53-8.614-2.139
		c-4.867,0.631-9.115-1.948-13.477-3.986c-3.406-1.354-6.705-3.042-9.88-5.114c-1.116-1.208-3.34-1.59-2.101-4.562
		c5.709-3.648,11.446-7.233,17.11-10.995c1.415-0.94,2.625-1.194,4.04-0.252c5.379,3.579,10.774,7.117,16.162,10.671
		c1.946,1.285,1.455,2.44-0.146,3.454c-2.349,1.484-4.719,2.921-7.771,4.804c2.425,0.483,4.174,0.952,5.942,1.163
		c6.179,0.735,11.859,3.37,17.002,7.655c7.307,6.089,11.755,15.126,4.839,26.965c-1.623,2.798-3.218,5.636-6.015,6.731
		c-0.241,0.206-0.48,0.413-0.722,0.62C95.003,82.531,91.982,82.906,89.253,84.126z"/>
	<path fill-rule="evenodd" clip-rule="evenodd" fill="#3A84AD" d="M58.7,38.527c1.633-0.025,3.114-0.033,4.688,1.268
		c1.968,1.628,4.286,2.541,6.842,2.12c5.316-0.875,10.158,2.07,15.2,3.408c1.625,0.431,1.106,2.083,1.186,3.392
		c-6.48-4.037-13.325-5.774-20.536-5.997C63.409,42.636,60.989,40.44,58.7,38.527z"/>
	<path fill-rule="evenodd" clip-rule="evenodd" fill="#3A84AD" d="M86.601,48.696c3.066,0.314,6.55,5.347,6.672,9.776
		c0.08,2.809,0.045,5.623,0.014,8.438c-0.047,4.011-3.228,8.254-6.577,8.834c4.51-4.578,7.242-9.986,5.258-17.718
		C90.97,54.148,88.522,51.682,86.601,48.696z"/>
	<path fill-rule="evenodd" clip-rule="evenodd" fill="#3C87AE" d="M66.732,89.134c0.223-0.448,0.41-1.25,0.67-1.288
		c2.116-0.322,4.196-0.536,6.177-1.857c0.817-0.543,2.254-0.503,2.463,1.574C73.019,88.853,69.923,89.443,66.732,89.134z"/>
	<path fill-rule="evenodd" clip-rule="evenodd" fill="#4887A8" d="M27.348,75.816c0.983,0.045,2.061-0.222,2.926,0.205
		c1.258,0.623,1.726,1.895,0.516,3.361C29.334,78.678,28.241,77.406,27.348,75.816z"/>
	<path fill-rule="evenodd" clip-rule="evenodd" fill="#4F8DA8" d="M46.718,28.851c-0.298,2.269,1.468,2.991,2.101,4.562
		c-0.809-0.367-1.645-0.661-2.417-1.124c-0.654-0.393-1.573-0.72-1.447-1.931C45.076,29.186,46,29.12,46.718,28.851z"/>
	<path fill-rule="evenodd" clip-rule="evenodd" fill="#2C9466" d="M52.125,55.337c0.812,0.385,1.325-0.589,2.021-0.725
		c0.172,0.705,0.845,1.589,0.143,2.1c-0.899,0.655-1.978,0.82-2.818-0.404C51.688,55.983,51.907,55.66,52.125,55.337z"/>
	<path fill-rule="evenodd" clip-rule="evenodd" fill="#449B76" d="M82.609,58.903c0.244-0.046,0.488-0.089,0.732-0.134
		c1.866,1.826,1.627,2.932-0.701,3.317C82.033,61.036,82.646,59.965,82.609,58.903z"/>
	<path fill-rule="evenodd" clip-rule="evenodd" fill="#FFFFFF" d="M26.859,75.744c-1.92,0.284-2.852-0.712-2.596-3.25"/>
	<path fill-rule="evenodd" clip-rule="evenodd" fill="#FFFFFF" d="M72.683,61.658c-2.146,1.443-3.868,2.649-5.623,3.769
		c-1.435,0.913-7.22-1.664-7.86-3.483c-0.106-0.305-0.081-0.785,0.033-1.097c0.821-2.255,5.917-4.494,7.662-3.374
		c1.565,1.002,3.114,2.047,4.66,3.097C71.836,60.761,72.073,61.063,72.683,61.658z"/>
	<path fill-rule="evenodd" clip-rule="evenodd" fill="#FFFFFF" d="M65.521,34.436c-2.404-0.789-4.128-2.282-5.882-3.674
		c-0.35-0.277-0.742-0.908-0.241-1.349c1.872-1.652,3.737-3.978,5.973-3.969c2.119,0.011,3.854,2.365,5.589,4.032
		c0.434,0.415,0.178,1.084-0.226,1.37C68.938,32.124,67.117,33.343,65.521,34.436z"/>
</g>
<g>
	<path stroke="#000000" stroke-width="2" stroke-miterlimit="10" d="M131.791,80.17c1.881-8.395,2.884-22.483,2.884-38.616v-4.526
		h4.012v4.526c0,16.278-1.003,30.513-2.884,38.908L131.791,80.17z M142.573,80.899V31.553h-10.281v-2.336h10.281v-9.416
		l-9.153,0.729l-0.501-2.336l22.443-1.897l0.501,2.336l-9.278,0.803v9.781h9.78v2.336h-9.78v49.347H142.573z M151.601,80.097V37.027
		h4.012v43.069H151.601z M168.903,58.416c-1.755,8.979-4.137,15.695-6.771,22.119l-4.012-0.584
		c2.758-6.497,5.141-13.141,6.771-21.827L168.903,58.416z M166.772,53.525c-3.385,0-6.395-0.511-6.395-4.599V20.02
		c0-4.088,3.009-4.6,6.395-4.6h14.795c3.511,0,6.395,0.512,6.395,4.6v28.907c0,4.088-2.884,4.599-6.395,4.599H166.772z
		 M181.567,51.189c1.379,0,2.382-0.219,2.382-2.263V20.02c0-2.044-1.003-2.264-2.382-2.264h-14.795c-1.254,0-2.382,0.22-2.382,2.264
		v28.907c0,2.044,1.128,2.263,2.382,2.263H181.567z M183.322,58.051l6.646,22.338l-4.012,0.365l-6.646-22.265L183.322,58.051z"/>
	<path stroke="#000000" stroke-width="2" stroke-miterlimit="10" d="M212.755,15.288c-2.968,11.953-7.173,20.018-14.717,27.506
		l-3.463-1.224c7.297-7.201,11.254-15.05,14.223-26.715L212.755,15.288z M233.656,77.861h6.555c2.103,0,3.834-0.721,3.834-3.601
		V49.059c0-2.88-1.731-3.601-3.834-3.601h-24.734c-1.855,13.537-7.915,26.931-15.707,34.563l-3.463-1.225
		c7.544-7.345,13.357-20.233,15.212-33.339h-9.646v-2.304h38.338c4.205,0,7.792,1.296,7.792,5.904v25.202
		c0,4.608-3.586,5.904-7.792,5.904h-6.555V77.861z M237.119,14.712l14.593,27.146l-3.71,0.647l-14.593-27.074L237.119,14.712z"/>
	<path stroke="#000000" stroke-width="2" stroke-miterlimit="10" d="M265.189,16.224l-2.721,5.257h20.901v2.304h-12.986v8.497
		h-3.958v-8.497h-9.399l4.452-8.28L265.189,16.224z M286.214,28.753v6.408h18.056c3.587,0,6.679,0.576,6.679,4.681v5.833h-3.958
		v-5.833c0-2.017-1.236-2.376-2.721-2.376h-39.946c-1.607,0-2.721,0.359-2.721,2.376v5.833h-3.958v-5.833
		c0-4.104,3.092-4.681,6.678-4.681h17.933v-6.408H286.214z M265.932,58.563v6.912h36.483c3.092,0,5.442,1.152,5.442,4.177v5.545
		c0,3.096-2.35,4.32-5.442,4.32h-33.763c-3.586,0-6.678-0.576-6.678-4.537V48.986c0-4.032,3.092-4.536,6.678-4.536h33.021
		c3.216,0,5.566,0.864,5.566,3.96v6.121c0,3.096-2.35,4.032-5.566,4.032H265.932z M265.932,56.259h35.741
		c0.866,0,1.608-0.359,1.608-1.728V48.41c0-1.368-0.742-1.655-1.608-1.655h-33.021c-1.484,0-2.721,0.216-2.721,2.231V56.259z
		 M265.932,67.78v7.2c0,1.944,1.237,2.232,2.721,2.232h33.763c0.866,0,1.484-0.576,1.484-2.016v-5.545
		c0-1.368-0.618-1.872-1.484-1.872H265.932z M295.984,16.224l-2.597,5.257h19.417v2.304H300.56v8.497h-3.958v-8.497h-8.657
		l4.329-8.28L295.984,16.224z"/>
	<path stroke="#000000" stroke-width="2" stroke-miterlimit="10" d="M319.479,19.608h17.314v2.304h-6.679v23.69h6.308v2.304h-6.308
		v23.546l6.926-2.016l1.607,2.016l-19.292,5.545l-1.608-2.017l8.41-2.376V47.906h-6.308v-2.304h6.308v-23.69h-6.679V19.608z
		 M340.503,61.084h14.964V49.778h-7.42c-4.205,0-7.791-1.224-7.791-5.832V21.553c0-4.537,3.586-5.833,7.791-5.833h18.551
		c4.205,0,7.792,1.296,7.792,5.833v22.394c0,4.608-3.587,5.832-7.792,5.832h-7.297v11.306h14.841v2.304h-14.841v14.689h16.449v2.304
		h-36.731v-2.304h16.448V63.388h-14.964V61.084z M344.213,31.85h11.254V18.024h-7.42c-2.103,0-3.834,0.72-3.834,3.528V31.85z
		 M348.047,47.475h7.42V34.153h-11.254v9.793C344.213,46.755,345.945,47.475,348.047,47.475z M359.301,18.024V31.85h11.131V21.553
		c0-2.809-1.731-3.528-3.834-3.528H359.301z M370.432,43.946v-9.793h-11.131v13.321h7.297
		C368.701,47.475,370.432,46.755,370.432,43.946z"/>
	<path stroke="#000000" stroke-width="2" stroke-miterlimit="10" d="M382.549,16.368h52.066v2.304h-23.993v35.932h26.096v2.304
		h-26.096v24.41h-3.957v-24.41h-26.095v-2.304h26.095V18.672h-24.116V16.368z M389.598,24.36l7.174,22.97l-3.958,0.433
		l-7.173-23.042L389.598,24.36z M431.524,24.648c-1.731,8.641-4.081,15.985-7.297,23.187l-3.71-0.576
		c2.968-6.769,5.317-13.97,7.049-22.826L431.524,24.648z"/>
	<path stroke="#000000" stroke-width="2" stroke-miterlimit="10" d="M445.125,54.675c0-4.608,3.586-5.904,7.791-5.904h34.999
		c4.453,0,7.792,1.296,7.792,5.904v19.154c0,4.608-3.339,5.904-7.792,5.904h-34.999c-4.205,0-7.791-1.296-7.791-5.904V54.675z
		 M494.717,23.568v11.593c0,4.608-3.587,5.833-7.792,5.833H445.99l7.421-26.57l3.957,0.432l-6.802,23.834h36.359
		c2.103,0,3.834-0.72,3.834-3.528V23.568H494.717z M449.082,73.829c0,2.88,1.731,3.6,3.834,3.6h34.999c2.103,0,3.834-0.72,3.834-3.6
		V54.675c0-2.808-1.731-3.6-3.834-3.6h-34.999c-2.103,0-3.834,0.792-3.834,3.6V73.829z"/>
</g>
</svg>
