<?xml version="1.0" encoding="utf-8"?>
<!-- Generator: Adobe Illustrator 16.0.0, SVG Export Plug-In . SVG Version: 6.00 Build 0)  -->
<!DOCTYPE svg PUBLIC "-//W3C//DTD SVG 1.1//EN" "http://www.w3.org/Graphics/SVG/1.1/DTD/svg11.dtd">
<svg version="1.1" id="图层_1" xmlns="http://www.w3.org/2000/svg" xmlns:xlink="http://www.w3.org/1999/xlink" x="0px" y="0px"
	 width="620px" height="93.549px" viewBox="50 0 620 93.549" enable-background="new 50 0 620 93.549" xml:space="preserve">
<g>
	<g>
	</g>
	<g>
	</g>
	<g>
		<path stroke="#000000" stroke-width="2" stroke-miterlimit="10" d="M308.441,14.587c-1.134,5.257-2.394,10.297-3.78,15.193h27.595
			c2.142,0,3.78-0.72,3.78-3.6v-6.841h4.032v6.841c0,4.608-3.528,5.904-7.813,5.904h-28.226c-0.882,3.457-1.89,6.841-3.024,10.153
			h37.298c-4.284,8.568-10.081,15.77-16.633,21.674l20.791,13.825l-3.15,1.44l-20.035-13.321
			c-6.805,5.616-14.491,10.009-22.429,13.394l-2.394-1.872c8.064-3.385,15.75-7.705,22.429-13.178l-18.901-12.673
			c-3.402,9.793-7.182,19.01-11.214,27.794l-3.78-0.504c6.426-14.041,12.223-29.378,17.011-46.732h-12.853l4.536-16.273l4.032,0.36
			l-3.78,13.609h8.695c1.386-4.968,2.646-10.153,3.78-15.481L308.441,14.587z M298.991,48.718l20.161,13.465
			c5.544-4.968,10.333-10.801,13.987-17.641h-32.762C299.873,45.982,299.369,47.351,298.991,48.718z"/>
		<path stroke="#000000" stroke-width="2" stroke-miterlimit="10" d="M347.5,15.883h56.451v2.304h-17.768v8.568h9.324
			c3.781,0,6.68,1.152,6.68,5.041v6.913c0,3.816-2.898,5.4-6.68,5.4h-39.943c-3.654,0-6.679-1.584-6.679-5.4v-6.913
			c0-3.888,3.024-5.041,6.679-5.041h9.576v-8.568H347.5V15.883z M347.752,59.375h55.947v2.304h-6.679l6.552,17.858l-4.031,0.432
			l-6.679-18.29h-14.364v14.617c0,4.033-3.15,4.465-6.805,4.465h-3.654v-2.304h3.654c1.512,0,2.771-0.217,2.771-2.161V61.679H358.84
			c-1.89,6.409-3.528,11.594-7.308,18.074l-3.78-0.648c3.402-5.904,5.166-11.089,6.93-17.426h-6.93V59.375z M348.004,50.446h55.316
			v2.305h-55.316V50.446z M365.141,41.805V29.061h-9.576c-1.512,0-2.646,0.648-2.646,2.736v6.913c0,2.232,1.134,3.096,2.646,3.096
			H365.141z M369.173,26.756h12.979v-8.568h-12.979V26.756z M369.173,41.805h12.979V29.061h-12.979V41.805z M386.184,29.061v12.745
			h9.324c1.387,0,2.646-0.864,2.646-3.096v-6.913c0-2.088-1.26-2.736-2.646-2.736H386.184z"/>
		<path stroke="#000000" stroke-width="2" stroke-miterlimit="10" d="M418.564,15.667l-2.772,5.257h21.296v2.304h-13.231v8.497
			h-4.032v-8.497h-9.576l4.536-8.281L418.564,15.667z M439.986,28.196v6.409h18.396c3.654,0,6.805,0.576,6.805,4.68v5.833h-4.033
			v-5.833c0-2.016-1.26-2.376-2.771-2.376h-40.701c-1.638,0-2.771,0.36-2.771,2.376v5.833h-4.032v-5.833
			c0-4.104,3.149-4.68,6.804-4.68h18.271v-6.409H439.986z M419.32,58.007v6.912h37.172c3.15,0,5.545,1.152,5.545,4.177v5.545
			c0,3.096-2.395,4.32-5.545,4.32h-34.4c-3.653,0-6.804-0.576-6.804-4.537V48.431c0-4.033,3.15-4.537,6.804-4.537h33.645
			c3.275,0,5.67,0.864,5.67,3.961v6.12c0,3.097-2.395,4.032-5.67,4.032H419.32z M419.32,55.702h36.416
			c0.883,0,1.639-0.359,1.639-1.728v-6.12c0-1.369-0.756-1.657-1.639-1.657h-33.645c-1.512,0-2.771,0.216-2.771,2.233V55.702z
			 M419.32,67.224v7.2c0,1.944,1.26,2.232,2.771,2.232h34.4c0.883,0,1.512-0.576,1.512-2.016v-5.545
			c0-1.368-0.629-1.872-1.512-1.872H419.32z M449.939,15.667l-2.646,5.257h19.783v2.304h-12.475v8.497h-4.031v-8.497h-8.82
			l4.41-8.281L449.939,15.667z"/>
		<path stroke="#000000" stroke-width="2" stroke-miterlimit="10" d="M473.879,19.051h17.641v2.304h-6.805v23.69h6.426v2.305h-6.426
			v23.545l7.057-2.016l1.639,2.016l-19.658,5.545l-1.639-2.017l8.57-2.376V47.351h-6.428v-2.305h6.428v-23.69h-6.805V19.051z
			 M495.299,60.526h15.248V49.222h-7.561c-4.285,0-7.939-1.224-7.939-5.832V20.996c0-4.537,3.654-5.833,7.939-5.833h18.9
			c4.285,0,7.939,1.296,7.939,5.833V43.39c0,4.608-3.654,5.832-7.939,5.832h-7.434v11.305h15.121v2.305h-15.121v14.689h16.758v2.304
			h-37.424v-2.304h16.76V62.831h-15.248V60.526z M499.08,31.292h11.467V17.467h-7.561c-2.143,0-3.906,0.72-3.906,3.528V31.292z
			 M502.986,46.918h7.561V33.597H499.08v9.793C499.08,46.198,500.844,46.918,502.986,46.918z M514.453,17.467v13.825h11.34V20.996
			c0-2.808-1.764-3.528-3.906-3.528H514.453z M525.793,43.39v-9.793h-11.34v13.321h7.434
			C524.029,46.918,525.793,46.198,525.793,43.39z"/>
		<path stroke="#000000" stroke-width="2" stroke-miterlimit="10" d="M556.158,61.319c-5.545,7.849-10.711,12.385-16.885,16.562
			l-3.15-1.513c5.922-4.032,10.961-8.353,16.254-15.842L556.158,61.319z M538.139,16.819h52.418v2.304h-27.596l-14.238,15.985
			h14.744l11.844-11.521l3.527,1.224l-30.367,29.594h33.014c2.143,0,3.906-0.647,3.906-3.312v-9.29h4.033v9.29
			c0,4.535-3.654,5.616-7.939,5.616h-14.365v18.218c0,4.536-3.652,5.616-7.938,5.616h-3.654V78.24h3.654
			c2.143,0,3.906-0.72,3.906-3.312V56.711h-21.674l19.658-19.298h-18.775l16.002-18.29h-20.16V16.819z M576.949,60.383
			l16.254,16.634l-3.654,1.08L573.42,61.463L576.949,60.383z"/>
		<path stroke="#000000" stroke-width="2" stroke-miterlimit="10" d="M618.906,76.944h-20.414v-2.304h20.414V76.944z M617.52,32.588
			l-12.602,29.018h12.727v2.305h-18.018l8.82-20.233h-9.199l11.719-29.451L615,14.731l-10.586,26.643h5.041l4.031-9.361
			L617.52,32.588z M640.201,14.227v7.057h16.633v2.304h-24.193l-5.922,20.234h20.16c2.143,0,3.906-0.792,3.906-3.601v-9.217h4.033
			v9.217c0,4.464-3.15,5.833-7.436,5.905v28.946c0,1.944,1.135,2.16,2.771,2.16h6.049v2.305h-6.049
			c-3.779,0-6.803-0.505-6.803-4.465V46.126h-10.711v6.192c0,12.457-2.646,19.657-9.828,27.146l-3.529-1.08
			c6.805-7.2,9.324-14.042,9.324-26.066v-6.192h-6.553l6.428-22.538h-9.199v-2.304h16.885v-7.057H640.201z"/>
	</g>
</g>
<g>
	<path stroke="#231815" stroke-width="0.25" stroke-miterlimit="10" d="M169.893,86.078"/>
	<path stroke="#231815" stroke-width="0.25" stroke-miterlimit="10" d="M238.938,85.828"/>
</g>
<g>
</g>
<g id="图层_2">
</g>
<g>
</g>
<g>
</g>
<g>
	<path fill="#004276" d="M164.612,77.962h-11.5v-5.522c-3.249,4.505-7.971,6.757-14.166,6.757c-6.758,0-12.237-2.403-16.439-7.212
		c-4.158-4.678-6.238-10.505-6.238-17.479c0-6.93,2.105-12.778,6.314-17.544c4.209-4.765,9.632-7.147,16.273-7.147
		c6.117,0,10.828,2.144,14.125,6.433v-5.068h11.63V77.962z M153.306,54.766c0-3.899-1.257-7.268-3.769-10.105
		c-2.512-2.836-5.675-4.255-9.486-4.255c-3.769,0-6.865,1.451-9.291,4.353c-2.34,2.728-3.508,5.977-3.508,9.747
		c0,3.813,1.212,7.104,3.638,9.877c2.555,2.902,5.675,4.352,9.357,4.352c3.596,0,6.692-1.449,9.291-4.352
		C152.049,61.61,153.306,58.402,153.306,54.766z"/>
</g>
<path fill="#FEFEFE" d="M62.162,76.585c6.989-0.164,6.337,0.785,6.377-7.113c0.028-5.172-0.06-10.342,0.038-15.511
	c0.065-3.475,0.716-4.205,3.88-4.241c6.956-0.08,13.913-0.089,20.866,0.004c3.298,0.042,3.979,0.803,4.036,4.422
	c0.099,6.165-0.002,12.333,0.044,18.499c0.026,3.573,0.303,3.851,3.6,3.905c1.625,0.024,3.25,0.017,4.876,0.003
	c3.727-0.031,3.844-0.149,3.873-4.132c0.019-2.486,0.004-4.973,0.004-7.459c0-15.316,0.002-30.631,0-45.947
	c-0.002-5.024-0.01-5.024-4.689-5.031c-1.448-0.002-2.891-0.027-4.338,0.011c-2.97,0.079-3.288,0.381-3.32,3.597
	c-0.057,5.47,0.004,10.939-0.025,16.41c-0.028,5.087-0.515,5.629-5.143,5.647c-6.503,0.023-13.008,0.053-19.51-0.016
	c-3.49-0.036-4.115-0.721-4.165-4.546c-0.077-5.765,0.009-11.534-0.038-17.302c-0.026-3.49-0.271-3.737-3.386-3.792
	c-2.168-0.038-4.337,0.015-6.505-0.021C57.466,13.949,59.869,76.64,62.162,76.585z"/>
<path fill="#004276" d="M55.312,11.893c4.064,0,8.135,0.072,12.198-0.04c1.546-0.04,1.997,0.489,1.979,2.183
	c-0.078,7.063,0.033,14.129-0.076,21.189c-0.029,1.985,0.508,2.485,2.273,2.459c7.589-0.109,15.182-0.108,22.772-0.012
	c1.652,0.022,2.14-0.415,2.113-2.287c-0.106-7.063,0.012-14.128-0.083-21.191c-0.023-1.833,0.424-2.419,2.116-2.346
	c3.337,0.143,6.688,0.114,10.029,0.012c1.477-0.045,2.033,0.346,2.028,2.12c-0.055,20.197-0.046,40.395-0.007,60.591
	c0.003,1.504-0.304,2.105-1.781,2.053c-3.43-0.113-6.871-0.146-10.299,0c-1.71,0.07-2.106-0.561-2.084-2.361
	c0.091-7.355-0.02-14.725,0.077-22.083c0.023-1.937-0.231-2.768-2.278-2.73c-7.588,0.146-15.182,0.114-22.772,0.015
	c-1.697-0.024-2.123,0.53-2.101,2.349c0.092,7.36-0.06,14.729,0.094,22.086c0.05,2.326-0.602,2.851-2.572,2.736
	c-3.869-0.229-7.751-0.191-11.626-0.262C55.312,54.881,55.312,33.388,55.312,11.893z"/>
<path fill="#004276" d="M269.662,36.631c-2.316,1.522-4.528,3.245-6.745,4.95c-3.599,2.771-5.244,6.594-5.189,11.448
	c0.084,7.454-0.023,14.909,0.06,22.365c0.018,1.77-0.339,2.479-2.083,2.378c-2.789-0.164-5.596-0.118-8.391-0.02
	c-1.397,0.05-1.893-0.409-1.858-2c0.089-4.273,0.031-8.55,0.029-12.821c0-3.382,0.083-6.762-0.017-10.139
	c-0.213-7.163,2.473-12.89,7.118-17.628c3.381-3.454,7.207-6.261,11.078-9.007c1.495-1.059,2.086-0.667,2.822,0.871
	c1.13,2.365,2.377,4.671,3.714,6.903"/>
<path fill="#014276" d="M184.858,54.819c0,6.858-0.055,13.72,0.035,20.577c0.024,1.81-0.427,2.439-2.114,2.359
	c-2.883-0.142-5.779-0.081-8.667-0.012c-1.289,0.034-1.993-0.229-1.987-1.916c0.044-14.017,0.034-28.039,0.013-42.058
	c-0.004-1.269,0.391-1.744,1.572-1.717c3.069,0.068,6.143,0.11,9.21-0.018c1.568-0.063,1.986,0.533,1.968,2.199
	C184.815,41.093,184.858,47.955,184.858,54.819z"/>
<path fill="#024276" d="M178.75,11.844c6.108,0,6.108,0,6.108,6.748c0,6.561,0,6.561-6.034,6.563
	c-6.681,0.003-6.681,0.003-6.685-7.388c0-5.923,0-5.923,5.262-5.923C177.852,11.844,178.301,11.844,178.75,11.844z"/>
<g>
	<path fill="#004276" d="M235.925,67.208c-0.17,0.3-0.344,0.593-0.521,0.881c-4.603,7.492-11.397,11.238-20.386,11.238
		c-7.408,0-13.386-2.404-17.934-7.214c-4.463-4.679-6.694-10.524-6.694-17.543c0-7.233,2.448-13.211,7.343-17.934
		c4.764-4.592,10.462-6.888,17.088-6.888c7.321,0,13.278,2.534,17.87,7.604c4.417,4.937,6.626,11.067,6.626,18.388v2.663h-37.101
		c1.169,7.192,5.458,10.787,12.866,10.787c4.549,0,7.557-1.105,9.031-3.313c0.521-0.78,4.123-2.86,4.123-2.86 M215.019,39.95
		c-6.413,0-10.571,3.206-12.477,9.616h24.69C225.759,43.157,221.688,39.95,215.019,39.95z"/>
</g>
<g>
</g>
</svg>
