<?xml version="1.0" encoding="utf-8"?>
<!-- Generator: Adobe Illustrator 16.0.0, SVG Export Plug-In . SVG Version: 6.00 Build 0)  -->
<!DOCTYPE svg PUBLIC "-//W3C//DTD SVG 1.1//EN" "http://www.w3.org/Graphics/SVG/1.1/DTD/svg11.dtd">
<svg version="1.1" id="图层_1" xmlns="http://www.w3.org/2000/svg" xmlns:xlink="http://www.w3.org/1999/xlink" x="0px" y="0px"
	 width="620px" height="93.549px" viewBox="50 0 620 93.549" enable-background="new 50 0 620 93.549" xml:space="preserve">
<g>
	<g>
	</g>
	<g>
	</g>
	<g>
		<path stroke="#000000" stroke-width="2" stroke-miterlimit="10" d="M308.441,14.587c-1.134,5.257-2.394,10.297-3.78,15.193h27.595
			c2.142,0,3.78-0.72,3.78-3.6v-6.841h4.032v6.841c0,4.608-3.528,5.904-7.813,5.904h-28.226c-0.882,3.457-1.89,6.841-3.024,10.153
			h37.298c-4.284,8.568-10.081,15.77-16.633,21.674l20.791,13.825l-3.15,1.44l-20.035-13.321
			c-6.805,5.616-14.491,10.009-22.429,13.394l-2.394-1.872c8.064-3.385,15.75-7.705,22.429-13.178l-18.901-12.673
			c-3.402,9.793-7.182,19.01-11.214,27.794l-3.78-0.504c6.426-14.041,12.223-29.378,17.011-46.732h-12.853l4.536-16.273l4.032,0.36
			l-3.78,13.609h8.695c1.386-4.968,2.646-10.153,3.78-15.481L308.441,14.587z M298.991,48.718l20.161,13.465
			c5.544-4.968,10.333-10.801,13.987-17.641h-32.762C299.873,45.982,299.369,47.351,298.991,48.718z"/>
		<path stroke="#000000" stroke-width="2" stroke-miterlimit="10" d="M347.5,15.883h56.451v2.304h-17.768v8.568h9.324
			c3.781,0,6.68,1.152,6.68,5.041v6.913c0,3.816-2.898,5.4-6.68,5.4h-39.943c-3.654,0-6.679-1.584-6.679-5.4v-6.913
			c0-3.888,3.024-5.041,6.679-5.041h9.576v-8.568H347.5V15.883z M347.752,59.375h55.947v2.304h-6.679l6.552,17.858l-4.031,0.432
			l-6.679-18.29h-14.364v14.617c0,4.033-3.15,4.465-6.805,4.465h-3.654v-2.304h3.654c1.512,0,2.771-0.217,2.771-2.161V61.679H358.84
			c-1.89,6.409-3.528,11.594-7.308,18.074l-3.78-0.648c3.402-5.904,5.166-11.089,6.93-17.426h-6.93V59.375z M348.004,50.446h55.316
			v2.305h-55.316V50.446z M365.141,41.805V29.061h-9.576c-1.512,0-2.646,0.648-2.646,2.736v6.913c0,2.232,1.134,3.096,2.646,3.096
			H365.141z M369.173,26.756h12.979v-8.568h-12.979V26.756z M369.173,41.805h12.979V29.061h-12.979V41.805z M386.184,29.061v12.745
			h9.324c1.387,0,2.646-0.864,2.646-3.096v-6.913c0-2.088-1.26-2.736-2.646-2.736H386.184z"/>
		<path stroke="#000000" stroke-width="2" stroke-miterlimit="10" d="M418.564,15.667l-2.772,5.257h21.296v2.304h-13.231v8.497
			h-4.032v-8.497h-9.576l4.536-8.281L418.564,15.667z M439.986,28.196v6.409h18.396c3.654,0,6.805,0.576,6.805,4.68v5.833h-4.033
			v-5.833c0-2.016-1.26-2.376-2.771-2.376h-40.701c-1.638,0-2.771,0.36-2.771,2.376v5.833h-4.032v-5.833
			c0-4.104,3.149-4.68,6.804-4.68h18.271v-6.409H439.986z M419.32,58.007v6.912h37.172c3.15,0,5.545,1.152,5.545,4.177v5.545
			c0,3.096-2.395,4.32-5.545,4.32h-34.4c-3.653,0-6.804-0.576-6.804-4.537V48.431c0-4.033,3.15-4.537,6.804-4.537h33.645
			c3.275,0,5.67,0.864,5.67,3.961v6.12c0,3.097-2.395,4.032-5.67,4.032H419.32z M419.32,55.702h36.416
			c0.883,0,1.639-0.359,1.639-1.728v-6.12c0-1.369-0.756-1.657-1.639-1.657h-33.645c-1.512,0-2.771,0.216-2.771,2.233V55.702z
			 M419.32,67.224v7.2c0,1.944,1.26,2.232,2.771,2.232h34.4c0.883,0,1.512-0.576,1.512-2.016v-5.545
			c0-1.368-0.629-1.872-1.512-1.872H419.32z M449.939,15.667l-2.646,5.257h19.783v2.304h-12.475v8.497h-4.031v-8.497h-8.82
			l4.41-8.281L449.939,15.667z"/>
		<path stroke="#000000" stroke-width="2" stroke-miterlimit="10" d="M473.877,19.051h17.641v2.304h-6.803v23.69h6.426v2.305h-6.426
			v23.545l7.055-2.016l1.639,2.016l-19.656,5.545l-1.639-2.017l8.568-2.376V47.351h-6.426v-2.305h6.426v-23.69h-6.805V19.051z
			 M495.299,60.526h15.246V49.222h-7.561c-4.283,0-7.938-1.224-7.938-5.832V20.996c0-4.537,3.654-5.833,7.938-5.833h18.902
			c4.283,0,7.938,1.296,7.938,5.833V43.39c0,4.608-3.654,5.832-7.938,5.832h-7.436v11.305h15.121v2.305h-15.121v14.689h16.76v2.304
			h-37.424v-2.304h16.758V62.831h-15.246V60.526z M499.078,31.292h11.467V17.467h-7.561c-2.141,0-3.906,0.72-3.906,3.528V31.292z
			 M502.984,46.918h7.561V33.597h-11.467v9.793C499.078,46.198,500.844,46.918,502.984,46.918z M514.451,17.467v13.825h11.342
			V20.996c0-2.808-1.766-3.528-3.906-3.528H514.451z M525.793,43.39v-9.793h-11.342v13.321h7.436
			C524.027,46.918,525.793,46.198,525.793,43.39z"/>
		<path stroke="#000000" stroke-width="2" stroke-miterlimit="10" d="M556.156,61.319c-5.545,7.849-10.711,12.385-16.885,16.562
			l-3.15-1.513c5.922-4.032,10.963-8.353,16.256-15.842L556.156,61.319z M538.137,16.819h52.42v2.304h-27.596l-14.238,15.985h14.742
			l11.844-11.521l3.529,1.224l-30.367,29.594h33.014c2.143,0,3.906-0.647,3.906-3.312v-9.29h4.031v9.29
			c0,4.535-3.654,5.616-7.938,5.616h-14.365v18.218c0,4.536-3.654,5.616-7.939,5.616h-3.652V78.24h3.652
			c2.143,0,3.906-0.72,3.906-3.312V56.711h-21.672l19.656-19.298h-18.775l16.004-18.29h-20.162V16.819z M576.947,60.383
			l16.256,16.634l-3.654,1.08L573.42,61.463L576.947,60.383z"/>
		<path stroke="#000000" stroke-width="2" stroke-miterlimit="10" d="M618.904,76.944h-20.412v-2.304h20.412V76.944z
			 M617.518,32.588l-12.6,29.018h12.727v2.305h-18.02l8.82-20.233h-9.197l11.719-29.451l4.031,0.504l-10.584,26.643h5.039
			l4.033-9.361L617.518,32.588z M640.199,14.227v7.057h16.633v2.304h-24.193l-5.922,20.234h20.162c2.141,0,3.906-0.792,3.906-3.601
			v-9.217h4.031v9.217c0,4.464-3.15,5.833-7.434,5.905v28.946c0,1.944,1.133,2.16,2.771,2.16h6.049v2.305h-6.049
			c-3.781,0-6.805-0.505-6.805-4.465V46.126h-10.711v6.192c0,12.457-2.646,19.657-9.828,27.146l-3.527-1.08
			c6.803-7.2,9.324-14.042,9.324-26.066v-6.192h-6.553l6.426-22.538h-9.197v-2.304h16.885v-7.057H640.199z"/>
	</g>
</g>
<g>
	<path stroke="#231815" stroke-width="0.25" stroke-miterlimit="10" d="M169.893,86.078"/>
	<path stroke="#231815" stroke-width="0.25" stroke-miterlimit="10" d="M238.938,85.828"/>
</g>
<g>
	<path fill-rule="evenodd" clip-rule="evenodd" fill="#FEFEFE" d="M59.537,76.181c6.668-0.158,6.046,0.749,6.084-6.803
		c0.027-4.943-0.058-9.888,0.036-14.83c0.063-3.321,0.684-4.02,3.702-4.055c6.637-0.076,13.275-0.084,19.91,0.004
		c3.146,0.04,3.796,0.769,3.851,4.229c0.095,5.893-0.001,11.79,0.042,17.686c0.024,3.417,0.289,3.681,3.435,3.733
		c1.55,0.023,3.102,0.015,4.653,0.002c3.556-0.03,3.667-0.143,3.695-3.949c0.018-2.379,0.004-4.755,0.004-7.133
		c0-14.644,0.003-29.286-0.001-43.928c-0.001-4.803-0.008-4.804-4.474-4.81c-1.38-0.003-2.758-0.027-4.138,0.01
		c-2.834,0.076-3.138,0.364-3.168,3.439c-0.054,5.229,0.004,10.459-0.023,15.689c-0.026,4.864-0.491,5.383-4.907,5.399
		c-6.206,0.022-12.412,0.05-18.616-0.015c-3.33-0.034-3.926-0.689-3.975-4.347c-0.073-5.512,0.009-11.028-0.035-16.542
		c-0.026-3.335-0.26-3.573-3.233-3.625c-2.069-0.037-4.138,0.013-6.206-0.021C55.055,16.293,57.348,76.231,59.537,76.181z"/>
	<path fill-rule="evenodd" clip-rule="evenodd" fill="#004276" d="M53,15.413c3.879,0,7.762,0.069,11.639-0.038
		c1.477-0.039,1.905,0.468,1.887,2.086c-0.074,6.753,0.032,13.509-0.071,20.259c-0.028,1.898,0.486,2.375,2.168,2.351
		c7.242-0.104,14.487-0.103,21.729-0.009c1.576,0.021,2.042-0.397,2.016-2.188c-0.102-6.752,0.012-13.507-0.078-20.26
		c-0.023-1.752,0.403-2.313,2.017-2.243c3.185,0.138,6.381,0.109,9.57,0.011c1.409-0.043,1.94,0.331,1.935,2.027
		c-0.051,19.31-0.044,38.62-0.007,57.93c0.003,1.438-0.29,2.013-1.699,1.963c-3.273-0.107-6.556-0.139-9.827,0
		c-1.633,0.068-2.009-0.535-1.988-2.257c0.086-7.034-0.019-14.078,0.074-21.113c0.022-1.852-0.221-2.647-2.173-2.61
		c-7.241,0.14-14.486,0.108-21.729,0.013c-1.619-0.023-2.026,0.508-2.004,2.247c0.088,7.037-0.057,14.08,0.09,21.116
		c0.047,2.223-0.574,2.725-2.455,2.615c-3.692-0.218-7.396-0.182-11.094-0.25C53,56.513,53,35.964,53,15.413z"/>
	<path fill-rule="evenodd" clip-rule="evenodd" fill="#004276" d="M156.491,55.241c-0.002,6.557-0.061,13.114,0.039,19.667
		c0.028,1.756-0.382,2.315-1.993,2.213c-2.404-0.159-4.825-0.117-7.232-0.013c-1.3,0.055-1.898-0.276-1.755-1.851
		c0.161-1.772-0.396-2.442-1.832-1.074c-5.938,5.653-12.449,4.789-18.832,1.494c-7.043-3.63-11.388-9.913-11.829-18.614
		c-0.736-14.507,9.788-25.579,22.957-24.52c2.826,0.229,5.277,1.558,7.43,3.576c0.5,0.468,0.937,1.279,1.742,0.848
		c0.695-0.373,0.415-1.197,0.363-1.782c-0.145-1.56,0.473-1.945,1.784-1.894c2.409,0.098,4.828,0.151,7.231-0.011
		c1.69-0.112,1.979,0.63,1.958,2.296C156.445,42.131,156.491,48.687,156.491,55.241z"/>
	<path fill-rule="evenodd" clip-rule="evenodd" fill="#004276" d="M210.72,57.955c-4.916,0-9.831,0.046-14.745-0.026
		c-1.498-0.021-1.708,0.391-1.219,1.944c2.922,9.29,14.325,11.919,20.466,4.507c1.466-1.77,2.583-2.258,4.45-1.101
		c0.956,0.593,2.098,0.816,3.158,1.213c2.977,1.114,2.977,1.116,0.992,3.988c-5.759,8.337-16.463,11.807-25.529,8.279
		c-8.699-3.39-14.52-12.348-14.381-22.126c0.184-12.718,10.251-22.872,22.477-22.666c11.722,0.195,21.213,10.641,21.138,23.151
		c-0.009,2.106-0.458,2.995-2.582,2.913c-4.738-0.184-9.484-0.059-14.226-0.059C210.72,57.969,210.72,57.962,210.72,57.955z"/>
	<path fill-rule="evenodd" clip-rule="evenodd" fill="#004276" d="M234.459,63.126c0-3.232,0.081-6.465-0.014-9.694
		c-0.204-6.849,2.36-12.324,6.79-16.854c3.227-3.302,6.878-5.986,10.572-8.612c1.426-1.012,1.99-0.637,2.69,0.832
		c1.078,2.261,2.268,4.467,3.544,6.599c0.717,1.201,0.669,1.805-0.514,2.583c-2.211,1.456-4.322,3.103-6.434,4.732
		c-3.435,2.65-5.006,6.305-4.953,10.946c0.08,7.128-0.023,14.255,0.057,21.383c0.019,1.692-0.323,2.37-1.986,2.274
		c-2.662-0.156-5.34-0.114-8.007-0.019c-1.334,0.048-1.805-0.392-1.772-1.913C234.517,71.298,234.461,67.21,234.459,63.126z"/>
	<path fill-rule="evenodd" clip-rule="evenodd" fill="#014276" d="M176.609,55.368c0,6.558-0.051,13.118,0.034,19.675
		c0.024,1.729-0.408,2.332-2.017,2.256c-2.752-0.136-5.515-0.079-8.271-0.011c-1.23,0.031-1.902-0.22-1.895-1.833
		c0.042-13.402,0.032-26.808,0.011-40.211c-0.003-1.213,0.374-1.667,1.5-1.641c2.929,0.066,5.862,0.106,8.789-0.016
		c1.497-0.061,1.896,0.509,1.878,2.102C176.569,42.247,176.609,48.808,176.609,55.368z"/>
	<path fill-rule="evenodd" clip-rule="evenodd" fill="#024276" d="M170.783,14.281c5.829-0.001,5.829-0.001,5.829,6.452
		c0,6.273,0,6.273-5.758,6.275c-6.375,0.004-6.375,0.004-6.378-7.063c0-5.662,0-5.662,5.02-5.663
		C169.925,14.281,170.354,14.281,170.783,14.281z"/>
	<path fill-rule="evenodd" clip-rule="evenodd" fill="#FEFEFE" d="M145.806,55.265c-0.006,7.023-4.944,12.595-11.204,12.642
		c-6.405,0.047-11.468-5.539-11.465-12.647c0.005-7.141,5.045-12.689,11.471-12.626C140.917,42.693,145.812,48.216,145.806,55.265z"
		/>
	<path fill-rule="evenodd" clip-rule="evenodd" fill="#FCFDFD" d="M205.936,50.605c-3.188,0-6.376-0.048-9.562,0.023
		c-1.489,0.032-1.824-0.379-1.167-1.954c1.817-4.369,6.457-7.662,11.086-7.428c4.8,0.241,8.588,2.503,10.871,7.377
		c0.673,1.441,0.418,2.043-1.149,2.007C212.656,50.553,209.294,50.605,205.936,50.605z"/>
	<g>
	</g>
</g>
<g>
</g>
<g id="图层_2">
</g>
<g>
</g>
<g>
</g>
</svg>
